<svg width="17" height="18" viewBox="0 0 17 18" fill="none" xmlns="http://www.w3.org/2000/svg">
<path fill-rule="evenodd" clip-rule="evenodd" d="M15.2068 5.05471L14.6882 4.15464C14.2493 3.39304 13.2769 3.1303 12.5142 3.5673V3.5673C12.1512 3.78115 11.718 3.84183 11.3102 3.73594C10.9024 3.63005 10.5535 3.3663 10.3403 3.00284C10.2032 2.77183 10.1295 2.5087 10.1267 2.24007V2.24007C10.1391 1.80939 9.97664 1.39204 9.67631 1.08309C9.37599 0.774148 8.96341 0.59992 8.53255 0.600098H7.48754C7.06543 0.600093 6.66072 0.768296 6.36296 1.06749C6.0652 1.36668 5.89894 1.77219 5.90097 2.1943V2.1943C5.88846 3.06581 5.17836 3.76571 4.30677 3.76562C4.03814 3.76283 3.77501 3.68915 3.54399 3.55204V3.55204C2.78135 3.11505 1.80889 3.37778 1.37008 4.13938L0.813249 5.05471C0.374969 5.81536 0.634127 6.78721 1.39296 7.22863V7.22863C1.88621 7.5134 2.19007 8.03969 2.19007 8.60925C2.19007 9.17881 1.88621 9.7051 1.39296 9.98988V9.98988C0.635091 10.4283 0.37565 11.3978 0.813249 12.1562V12.1562L1.33957 13.0639C1.54517 13.4349 1.89013 13.7086 2.29812 13.8246C2.70611 13.9405 3.14349 13.8891 3.51348 13.6817V13.6817C3.87719 13.4695 4.31062 13.4113 4.71741 13.5202C5.1242 13.6291 5.47066 13.8959 5.67976 14.2614C5.81688 14.4924 5.89055 14.7556 5.89334 15.0242V15.0242C5.89334 15.9047 6.60709 16.6184 7.48754 16.6184H8.53255C9.41003 16.6184 10.1226 15.9093 10.1267 15.0318V15.0318C10.1247 14.6084 10.292 14.2017 10.5914 13.9023C10.8908 13.6029 11.2975 13.4356 11.721 13.4376C11.9889 13.4448 12.251 13.5182 12.4837 13.6512V13.6512C13.2444 14.0895 14.2162 13.8303 14.6576 13.0715V13.0715L15.2068 12.1562C15.4194 11.7913 15.4778 11.3567 15.369 10.9487C15.2602 10.5406 14.9932 10.1928 14.6271 9.98225V9.98225C14.2611 9.77167 13.9941 9.42385 13.8853 9.01582C13.7765 8.60779 13.8348 8.17322 14.0474 7.80834C14.1857 7.56698 14.3858 7.36687 14.6271 7.22863V7.22863C15.3814 6.78745 15.64 5.82128 15.2068 5.06234V5.06234V5.05471Z" stroke="black" stroke-width="1.2" stroke-linecap="round" stroke-linejoin="round"/>
<circle cx="8.01369" cy="8.60915" r="2.1968" stroke="black" stroke-width="1.2" stroke-linecap="round" stroke-linejoin="round"/>
</svg>
