<svg width="48" height="48" viewBox="0 0 48 48" fill="none" xmlns="http://www.w3.org/2000/svg">
<path d="M17.9773 28.772C17.204 29.1986 14.9693 30.4773 13.6013 31.7106C12.8066 32.4266 12.9106 32.948 13.1626 34.2053L13.1853 34.3186C13.4333 35.5613 15.9933 43.704 16.496 45.2946L18.0533 44.9066C18.072 44.0786 18.1106 41.172 17.8133 39.3C17.7146 38.6733 17.6146 37.9186 17.524 37.2346C17.4546 36.6671 17.3728 36.1012 17.2786 35.5373C17.176 35.0093 17.3453 34.6706 17.8266 34.4373C18.6038 34.0609 19.3879 33.6991 20.1786 33.352L17.9773 28.772ZM32.208 35.9826C31.4973 35.896 30.8253 35.812 30.504 35.792C29.9666 35.7586 29.68 35.5093 29.5773 34.984C29.4088 34.137 29.2555 33.2871 29.1173 32.4346L24.1306 33.412C24.3493 34.2693 25.0253 36.752 25.8746 38.388C26.3666 39.336 26.8973 39.3666 28.176 39.44L28.2933 39.4466C29.56 39.5226 38.0826 39.092 39.7506 39.0066L39.768 37.4C38.972 37.1746 36.1693 36.4053 34.2826 36.22C33.5899 36.1512 32.8983 36.072 32.208 35.9826Z" fill="#D4AB88"/>
<path d="M37.4802 39.6933L37.2589 39.2853C37.2521 39.2699 37.2486 39.2532 37.2485 39.2364C37.2485 39.2195 37.252 39.2029 37.2588 39.1874C37.2655 39.172 37.2755 39.1582 37.2879 39.1468C37.3003 39.1354 37.315 39.1267 37.3309 39.1213C37.5442 39.048 37.9749 38.8506 38.1256 38.772C37.9949 39.0706 37.8456 39.548 37.6789 39.692C37.6149 39.7466 37.5136 39.7706 37.4802 39.6933Z" fill="#8899A6"/>
<path d="M40.7065 36.5281C40.5331 36.3895 40.1371 36.3215 39.8891 36.2975C39.5581 36.2736 39.2259 36.2705 38.8945 36.2881C38.7461 36.2936 38.5985 36.3115 38.4531 36.3415C38.2065 36.4135 38.0985 36.5161 38.0398 36.5881C37.9692 36.6748 37.9625 36.7668 37.9785 36.8135C38.0438 37.0041 38.3572 37.3335 38.4932 37.6468C38.539 37.7404 38.5606 37.844 38.5558 37.9481C38.5225 38.2921 38.0838 38.7921 37.7558 39.1628C37.5585 39.3855 37.4011 39.5615 37.3945 39.6295C37.3893 39.6985 37.4056 39.7674 37.4411 39.8268V39.8295C37.5305 39.9935 37.7265 40.1641 37.8598 40.6121C37.9465 40.9015 38.3518 42.2188 38.3518 42.2188C38.4491 42.5548 38.5785 42.6361 38.6331 42.8175C38.7465 43.1868 38.9465 44.1788 39.0451 44.4921C39.0775 44.6125 39.1437 44.721 39.2359 44.8049C39.328 44.8888 39.4423 44.9445 39.5651 44.9655C39.7491 44.9908 39.8545 44.9481 39.8545 44.9481C39.8545 44.9481 40.2838 44.7548 40.5678 43.1455C40.7731 41.9828 40.5918 41.8028 40.4371 40.0561C40.2851 38.3068 40.7065 36.5281 40.7065 36.5281Z" fill="#BE1931"/>
<path d="M40.348 39.1253C40.056 39.0053 39.388 38.5653 39.2013 38.092C39.032 37.664 38.9173 36.508 38.896 36.288C39.2547 36.256 39.8053 36.28 39.9827 36.296C40.216 36.3187 40.4853 36.3373 40.6467 36.4747L40.708 36.528C40.5706 37.3913 40.4506 38.2572 40.348 39.1253Z" fill="#DD2E44"/>
<path d="M37.7825 40.4494C37.7218 40.4496 37.6628 40.4292 37.6153 40.3914C37.5678 40.3535 37.5346 40.3006 37.5212 40.2414C37.5078 40.1822 37.5151 40.1201 37.5417 40.0656C37.5684 40.011 37.6129 39.9672 37.6679 39.9414L38.0932 39.74C38.1249 39.7239 38.1596 39.7144 38.195 39.7119C38.2305 39.7094 38.2661 39.714 38.2998 39.7255C38.3335 39.737 38.3645 39.7551 38.3911 39.7787C38.4176 39.8024 38.4392 39.8311 38.4545 39.8632C38.4698 39.8953 38.4785 39.9301 38.4801 39.9657C38.4818 40.0012 38.4763 40.0367 38.464 40.0701C38.4517 40.1034 38.4328 40.134 38.4085 40.16C38.3843 40.186 38.355 40.2068 38.3225 40.2214L37.8972 40.4227C37.8616 40.4403 37.8223 40.4494 37.7825 40.4494ZM38.0545 41.228C37.9981 41.2281 37.9431 41.2102 37.8975 41.1768C37.852 41.1435 37.8182 41.0965 37.8012 41.0427C37.7905 41.0093 37.7864 40.9742 37.7893 40.9393C37.7922 40.9043 37.802 40.8703 37.8181 40.8392C37.8342 40.8081 37.8564 40.7805 37.8832 40.758C37.9101 40.7355 37.9411 40.7185 37.9745 40.708L38.4465 40.5574C38.5131 40.5388 38.5843 40.5467 38.6451 40.5796C38.7058 40.6124 38.7515 40.6676 38.7724 40.7335C38.7933 40.7993 38.7879 40.8707 38.7572 40.9326C38.7265 40.9946 38.673 41.0421 38.6079 41.0654L38.1359 41.216C38.1095 41.224 38.0821 41.228 38.0545 41.228ZM38.2839 42.0214C38.2223 42.0216 38.1626 42.0005 38.1149 41.9616C38.0673 41.9226 38.0346 41.8684 38.0225 41.808C38.0088 41.7387 38.0229 41.6668 38.0618 41.6079C38.1008 41.549 38.1614 41.5078 38.2305 41.4934L38.6732 41.4027C38.7076 41.3951 38.7431 41.3945 38.7777 41.4009C38.8123 41.4074 38.8452 41.4207 38.8746 41.4401C38.9039 41.4595 38.9291 41.4846 38.9485 41.5139C38.968 41.5432 38.9814 41.5761 38.9879 41.6107C39.0017 41.68 38.9876 41.7519 38.9486 41.8108C38.9097 41.8697 38.849 41.9109 38.7799 41.9254L38.3372 42.016C38.3185 42.0187 38.3012 42.0214 38.2839 42.0214ZM41.7372 36.8574C41.7292 36.8214 41.7039 36.6867 41.6105 36.5214C41.5799 36.4654 41.5079 36.448 41.4359 36.44C41.3465 36.428 40.6892 36.3334 40.6772 36.4667C40.6772 36.4667 40.6745 36.664 40.5812 36.8C40.4879 36.936 40.4239 37.2694 40.3999 37.5187C40.3759 37.7667 40.2692 38.7014 40.2932 39.3574C40.3172 40.0134 40.5199 41.2014 40.5305 41.5974C40.5399 41.9934 40.5305 42.6094 40.4465 43.0654C40.3625 43.5214 40.2719 43.9267 40.2025 44.1774C40.134 44.4529 40.0166 44.7139 39.8559 44.948C39.8559 44.948 40.3745 44.9134 40.7719 44.1454C41.0852 43.54 41.2612 42.9574 41.3265 42.3894C41.3319 42.3467 41.4665 40.832 41.5319 40.0747C41.5785 39.5214 41.6585 38.6374 41.6585 38.6374C41.7585 37.5894 41.7825 37.0574 41.7372 36.8574Z" fill="#CCD6DD"/>
<path d="M15.2506 43.3547L15.5786 43.0267C15.5915 43.0159 15.6066 43.0078 15.6228 43.003C15.639 42.9983 15.6561 42.9969 15.6729 42.999C15.6896 43.0012 15.7058 43.0067 15.7203 43.0154C15.7348 43.0241 15.7474 43.0356 15.7572 43.0494C15.8879 43.2334 16.1999 43.5907 16.3186 43.7121C15.9946 43.6721 15.4946 43.6641 15.3092 43.5454C15.2372 43.4987 15.1852 43.4081 15.2506 43.3547Z" fill="#8899A6"/>
<path d="M19.2013 45.5494C19.2853 45.3441 19.2373 44.9454 19.1907 44.7001C19.1189 44.3762 19.0276 44.0569 18.9173 43.7441C18.8696 43.6036 18.8108 43.4672 18.7413 43.3361C18.6613 43.1922 18.5369 43.0781 18.3867 43.0107C18.284 42.9667 18.1933 42.9867 18.1533 43.0161C17.9893 43.1334 17.7613 43.5267 17.5013 43.7467C17.4244 43.8174 17.3308 43.8674 17.2293 43.8921C16.8907 43.9574 16.2867 43.6801 15.8373 43.4694C15.568 43.3441 15.3547 43.2427 15.288 43.2561C15.2205 43.2707 15.1591 43.3056 15.112 43.3561L15.1093 43.3574H15.1107C14.9787 43.4894 14.8707 43.7267 14.4787 43.9814C14.2267 44.1454 13.0773 44.9094 13.0773 44.9094C12.7827 45.0974 12.7413 45.2454 12.584 45.3494C12.2613 45.5627 11.368 46.0361 11.0947 46.2201C11.0212 46.2655 10.9575 46.3251 10.9072 46.3954C10.8569 46.4656 10.8211 46.5451 10.8017 46.6293C10.7824 46.7135 10.7799 46.8007 10.7945 46.8859C10.8091 46.971 10.8404 47.0524 10.8867 47.1254C10.8867 47.1254 11.1933 47.4827 12.8173 47.2974C13.9907 47.1641 14.1107 46.9387 15.7427 46.2947C17.3747 45.6507 19.2013 45.5494 19.2013 45.5494Z" fill="#BE1931"/>
<path d="M16.6094 45.9426C16.6414 45.6279 16.8734 44.8639 17.2747 44.5492C17.636 44.2666 18.7134 43.8266 18.9174 43.7439C19.0507 44.0786 19.184 44.6132 19.2174 44.7879C19.2614 45.0186 19.3214 45.2812 19.2347 45.4759L19.2014 45.5506C19.2014 45.5492 17.3614 45.7959 16.6094 45.9426Z" fill="#DD2E44"/>
<path d="M15.1798 44.4012C15.1423 44.4014 15.1051 44.3935 15.0708 44.3781C15.0365 44.3627 15.006 44.3401 14.9812 44.3119L14.6665 43.9612C14.6432 43.935 14.6253 43.9045 14.6138 43.8714C14.6023 43.8383 14.5974 43.8033 14.5995 43.7683C14.6015 43.7334 14.6104 43.6991 14.6257 43.6676C14.641 43.6361 14.6623 43.6078 14.6885 43.5846C14.7147 43.5613 14.7452 43.5434 14.7783 43.5319C14.8114 43.5204 14.8464 43.5155 14.8814 43.5175C14.9164 43.5196 14.9506 43.5285 14.9821 43.5438C15.0137 43.559 15.0419 43.5804 15.0652 43.6066L15.3785 43.9572C15.4127 43.9956 15.435 44.043 15.4429 44.0938C15.4507 44.1446 15.4437 44.1966 15.4227 44.2435C15.4018 44.2904 15.3677 44.3302 15.3246 44.3582C15.2815 44.3862 15.2312 44.4011 15.1798 44.4012ZM14.4745 44.9426C14.431 44.9424 14.3883 44.9316 14.3499 44.9112C14.3116 44.8907 14.2788 44.8612 14.2545 44.8252L13.9758 44.4146C13.9538 44.3858 13.9379 44.3528 13.929 44.3176C13.9202 44.2825 13.9186 44.2459 13.9244 44.2101C13.9301 44.1744 13.9431 44.1401 13.9626 44.1095C13.982 44.0789 14.0075 44.0526 14.0374 44.0322C14.0674 44.0118 14.1012 43.9977 14.1367 43.9908C14.1723 43.9839 14.2089 43.9843 14.2443 43.992C14.2797 43.9997 14.3132 44.0145 14.3427 44.0356C14.3722 44.0567 14.3971 44.0835 14.4158 44.1146L14.6945 44.5252C14.7219 44.5653 14.7379 44.6121 14.7407 44.6605C14.7435 44.709 14.733 44.7573 14.7104 44.8002C14.6877 44.8432 14.6538 44.8791 14.6122 44.9042C14.5707 44.9293 14.523 44.9426 14.4745 44.9426ZM13.7145 45.3759C13.666 45.376 13.6184 45.3629 13.5769 45.338C13.5353 45.3131 13.5013 45.2773 13.4785 45.2346L13.2665 44.8359C13.25 44.8049 13.2398 44.771 13.2365 44.736C13.2331 44.7011 13.2367 44.6659 13.247 44.6323C13.2573 44.5988 13.2741 44.5675 13.2964 44.5405C13.3187 44.5134 13.3462 44.491 13.3772 44.4746C13.4082 44.4581 13.4421 44.4479 13.477 44.4446C13.5119 44.4412 13.5472 44.4448 13.5807 44.4551C13.6143 44.4653 13.6455 44.4821 13.6726 44.5045C13.6996 44.5268 13.722 44.5542 13.7385 44.5852L13.9505 44.9839C13.9722 45.0246 13.9829 45.0702 13.9817 45.1162C13.9805 45.1623 13.9673 45.2073 13.9436 45.2468C13.9198 45.2862 13.8862 45.3189 13.8461 45.3415C13.8059 45.3642 13.7606 45.376 13.7145 45.3759ZM19.1785 46.6306C19.2105 46.6132 19.3332 46.5506 19.4652 46.4146C19.5092 46.3692 19.5065 46.2959 19.4945 46.2239C19.4798 46.1346 19.3838 45.4786 19.2532 45.5039C19.2532 45.5039 19.0625 45.5572 18.9065 45.5066C18.7505 45.4559 18.4118 45.4892 18.1665 45.5359C17.9212 45.5839 16.9958 45.7466 16.3732 45.9559C15.7505 46.1652 14.6705 46.6972 14.2932 46.8199C13.9158 46.9412 13.3225 47.1066 12.8612 47.1559C12.3998 47.2052 11.9852 47.2332 11.7265 47.2386C11.4428 47.2513 11.1592 47.2129 10.8892 47.1252C10.8892 47.1252 11.0705 47.6132 11.9185 47.7759C12.5878 47.9052 13.1972 47.9079 13.7598 47.8092C13.8025 47.8012 15.2932 47.5012 16.0372 47.3479C16.5812 47.2359 17.4505 47.0612 17.4505 47.0612C18.4825 46.8599 18.9998 46.7319 19.1785 46.6306Z" fill="#CCD6DD"/>
<path d="M17.4451 28.6214C18.4291 28.1121 21.6798 26.5041 23.9011 26.2747C24.1038 26.2534 25.9358 31.4801 25.6891 31.5587C24.6718 31.8867 22.1144 32.7547 20.1771 33.7827C20.0828 33.8366 19.9721 33.8541 19.8657 33.832C19.7594 33.8099 19.6648 33.7497 19.5998 33.6627C19.0251 32.8561 17.5344 30.6534 17.2024 29.0814C17.1638 28.8974 17.2664 28.7134 17.4451 28.6214Z" fill="#A0041E"/>
<path d="M23.8425 33.8186C23.5812 32.7586 22.7839 29.2706 23.0612 27.0866C23.0865 26.8866 27.9812 26.1732 27.9812 26.1732C28.2145 26.1452 28.7812 30.2852 29.3212 32.3799C29.3785 32.6012 29.2772 32.8252 29.0799 32.9066C28.1905 33.2732 25.7812 34.1986 24.2225 34.1559C24.0412 34.1506 23.8905 34.0092 23.8425 33.8186Z" fill="#BE1931"/>
<path d="M19.7345 14.9932C19.5825 15.8466 20.0798 16.9013 22.0518 17.3146C24.0238 17.7279 25.4571 17.6786 26.4838 17.6053C27.3545 17.5426 27.2345 18.8746 27.4318 20.2692C27.6291 21.6692 27.7531 23.4946 27.6745 23.7799C27.5411 24.2612 26.7118 24.4186 27.0891 25.2773C27.4665 26.1346 27.5278 26.6039 28.3451 26.3306C29.1625 26.0572 29.9745 25.7613 30.2065 25.3186C30.4385 24.8759 29.6331 23.8986 29.6211 23.3679C29.6118 22.9759 30.0118 18.0719 29.9878 17.4946C29.9585 16.7906 29.9411 15.8266 28.8091 15.3852C27.6771 14.9439 23.3318 13.8199 22.1798 13.5959C20.9638 13.3599 19.9358 13.8612 19.7345 14.9932Z" fill="#D4AB88"/>
<path d="M21.9931 8.81593C22.4364 8.24821 22.7385 7.58328 22.8744 6.87593C23.4198 4.0986 21.8158 1.44527 19.2904 0.9506C16.7664 0.454601 13.3131 2.3226 13.3904 5.15193C13.4664 7.96127 15.0291 12.1039 17.3811 11.4053C18.0024 11.2213 18.6238 11.0186 19.2144 10.7733C19.4664 11.0719 19.6478 12.2146 19.5438 13.1933C19.2771 15.6866 22.7184 15.9466 22.9824 13.4493C23.1918 11.4733 21.9584 10.2173 21.9931 8.81593Z" fill="#D4AB88"/>
<path d="M29.2039 3.64389C27.4559 3.62522 25.8759 1.83056 24.0773 2.97589C23.7789 3.16084 23.5078 3.38658 23.2719 3.64656C22.9599 2.69856 22.4239 1.82389 21.5399 1.24922C20.6759 0.686556 19.6159 0.266556 18.6146 0.379889C12.5119 1.06789 12.8426 5.48122 13.3066 5.89456C13.7706 6.30789 15.0386 5.13189 15.9759 5.00256C16.4133 4.94122 17.3639 4.93189 17.8679 5.65589C18.2759 6.24256 18.4159 7.42922 18.4159 7.42922C18.4159 7.42922 18.4319 6.07989 18.4706 5.60522C18.5066 5.16256 18.9453 4.65322 19.5386 5.30922C20.0546 5.87989 19.7919 6.99989 19.4333 7.11722C19.1573 7.20789 19.6053 7.88389 20.2973 8.39855C21.5586 9.33722 22.5386 8.96922 22.6786 8.91722C22.8199 8.86522 23.2986 8.75989 23.5426 7.13989C23.5773 6.91456 23.6013 6.67322 23.6159 6.42389C24.1146 6.85589 24.9319 7.36922 26.0519 7.37722C27.2906 7.38656 29.5439 6.75589 30.8333 5.21589C31.8253 4.03056 32.2333 2.07589 32.2333 2.07589C31.7066 3.05989 30.5226 3.65856 29.2039 3.64389Z" fill="#963B22"/>
<path d="M26.1653 14.5854C25.1946 12.3148 23.788 11.1228 21.86 11.7668C20.1466 12.3401 19.2973 13.3014 18.792 14.3801C18.5466 14.9041 17.5906 16.9574 18.1706 18.2908C19.3053 20.8988 21.1613 26.1081 21.488 27.7028C21.488 27.7028 21.9173 28.1374 24.692 27.7881C27.1226 27.4814 28.3346 27.2494 28.3346 27.2494C27.9653 23.7908 27.732 18.2534 26.1653 14.5854Z" fill="#DD2E44"/>
<path d="M22.9359 14.7561C22.1666 14.2601 20.9373 14.3147 19.7306 16.0667C18.8316 17.3557 18.1272 18.77 17.6399 20.2641C17.3453 21.1374 16.0973 20.4774 14.6586 20.1014C13.2146 19.7227 11.3853 19.0987 11.1399 18.9054C10.7253 18.5787 10.9106 17.7081 9.92126 17.7241C8.93193 17.7414 8.4506 17.6094 8.38393 18.5174C8.31726 19.4254 8.27326 20.3361 8.6106 20.7427C8.94793 21.1494 10.2266 20.7641 10.7493 20.9681C11.1346 21.1187 15.7479 23.5081 16.3199 23.7201C17.0186 23.9787 17.9639 24.3547 18.8546 23.4321C19.7453 22.5094 22.6133 18.7361 23.3013 17.7041C24.0253 16.6187 23.9559 15.4134 22.9359 14.7561Z" fill="#D4AB88"/>
</svg>
