<svg width="46" height="46" viewBox="0 0 46 46" fill="none" xmlns="http://www.w3.org/2000/svg">
<g clip-path="url(#clip0_81_4149)">
<path d="M0 46.0001H46V14.0556C46 14.0556 38.3321 1.27783 34.4987 1.27783C30.6654 1.27783 21.7209 12.7778 19.1654 15.3334C16.6098 17.8889 13.4154 15.9723 11.4987 14.0556C9.58333 12.1389 7.66667 10.2223 6.38889 10.2223C5.11111 10.2223 0 19.1667 0 19.1667V46.0001Z" fill="#77B255"/>
<path d="M15.8126 8.0922C14.5349 9.36997 16.6113 8.94447 17.889 11.5C19.1668 14.0556 23.0001 12.7778 21.7224 10.2223C21.4528 9.68175 20.3884 8.82181 19.5105 8.1727C19.5105 8.1727 20.2593 7.29486 19.8594 6.36336C19.4594 5.43186 15.8126 8.0922 15.8126 8.0922Z" fill="#F3D2A2"/>
<path d="M15.305 2.93373C14.8348 2.94252 14.371 3.04426 13.9403 3.23309C13.5095 3.42192 13.1204 3.69411 12.7954 4.03397C12.4703 4.37384 12.2157 4.77467 12.0462 5.21337C11.8767 5.65207 11.7957 6.11997 11.8078 6.59011C11.82 7.06025 11.925 7.52335 12.1169 7.95272C12.3088 8.38209 12.5837 8.76924 12.9259 9.09189C13.2681 9.41453 13.6707 9.66628 14.1106 9.83263C14.5505 9.99899 15.019 10.0767 15.489 10.0612C16.4296 10.0302 17.3198 9.62854 17.9654 8.94382C18.611 8.25911 18.9597 7.34689 18.9355 6.4061C18.9112 5.46532 18.5159 4.5723 17.8358 3.92181C17.1557 3.27133 16.246 2.91614 15.305 2.93373Z" fill="#F3D2A2"/>
<path d="M25.4956 4.92457C24.4031 5.2274 23.0794 5.64268 21.0733 4.17963C19.6409 3.1344 18.3043 2.78685 15.4906 3.40274C12.5032 4.05696 10.4038 6.25729 12.5262 6.86424C13.4526 7.12874 14.1196 6.77479 15.5175 6.62913C17.5683 6.41574 18.4014 8.1484 20.3909 8.14713C24.283 8.14201 27.1261 4.47224 25.4956 4.92457Z" fill="#FFE51E"/>
<path d="M24.2777 20.4443C24.2777 20.4443 20.4443 22.9999 20.4443 24.2777C20.4443 25.5554 25.5554 29.3888 26.8332 30.6666C28.111 31.9443 30.6666 31.9443 29.3888 29.3888C28.111 26.8332 24.2777 20.4443 24.2777 20.4443Z" fill="#E2C196"/>
<path d="M26.3658 29.4158C26.3658 29.4158 27.8647 30.4239 28.8728 28.9238C29.881 27.4237 30.617 31.1867 30.617 31.1867C30.617 31.1867 27.3472 34.431 24.8402 34.923C22.3332 35.4149 23.3413 33.9148 24.3482 32.416L26.3658 29.4158Z" fill="#A0041E"/>
<path d="M8.94444 28.1111C7.76984 28.1111 6.60674 28.3424 5.52155 28.7919C4.43636 29.2414 3.45034 29.9003 2.61977 30.7309C1.7892 31.5614 1.13036 32.5474 0.680855 33.6326C0.231355 34.7178 0 35.8809 0 37.0555C0 38.2301 0.231355 39.3932 0.680855 40.4784C1.13036 41.5636 1.7892 42.5496 2.61977 43.3802C3.45034 44.2108 4.43636 44.8696 5.52155 45.3191C6.60674 45.7686 7.76984 46 8.94444 46C11.3167 46 13.5917 45.0576 15.2691 43.3802C16.9465 41.7028 17.8889 39.4277 17.8889 37.0555C17.8889 34.6833 16.9465 32.4083 15.2691 30.7309C13.5917 29.0534 11.3167 28.1111 8.94444 28.1111ZM8.94444 43.4444C7.25001 43.4444 5.62497 42.7713 4.42682 41.5732C3.22867 40.375 2.55556 38.75 2.55556 37.0555C2.55556 35.3611 3.22867 33.7361 4.42682 32.5379C5.62497 31.3398 7.25001 30.6666 8.94444 30.6666C10.6389 30.6666 12.2639 31.3398 13.4621 32.5379C14.6602 33.7361 15.3333 35.3611 15.3333 37.0555C15.3333 38.75 14.6602 40.375 13.4621 41.5732C12.2639 42.7713 10.6389 43.4444 8.94444 43.4444ZM37.0556 28.1111C34.6832 28.1113 32.408 29.0538 30.7306 30.7315C29.0532 32.4091 28.1109 34.6844 28.1111 37.0568C28.1113 39.4292 29.0539 41.7043 30.7315 43.3817C32.4092 45.0592 34.6844 46.0014 37.0568 46.0012C38.2315 46.0012 39.3947 45.7697 40.4799 45.3201C41.5652 44.8705 42.5512 44.2115 43.3818 43.3808C44.2123 42.5502 44.8712 41.564 45.3206 40.4787C45.7701 39.3934 46.0014 38.2302 46.0013 37.0555C46.0012 35.8808 45.7697 34.7177 45.3201 33.6324C44.8705 32.5472 44.2116 31.5612 43.3809 30.7306C42.5502 29.9 41.564 29.2412 40.4787 28.7917C39.3934 28.3423 38.2302 28.111 37.0556 28.1111ZM37.0556 43.4444C35.3611 43.4444 33.7361 42.7713 32.5379 41.5732C31.3398 40.375 30.6667 38.75 30.6667 37.0555C30.6667 35.3611 31.3398 33.7361 32.5379 32.5379C33.7361 31.3398 35.3611 30.6666 37.0556 30.6666C38.75 30.6666 40.375 31.3398 41.5732 32.5379C42.7713 33.7361 43.4444 35.3611 43.4444 37.0555C43.4444 38.75 42.7713 40.375 41.5732 41.5732C40.375 42.7713 38.75 43.4444 37.0556 43.4444Z" fill="#292F33"/>
<path d="M28.1111 25.5556C28.1111 24.849 27.4927 24.2778 26.7273 24.2778H12.8838C12.1197 24.2778 11.5 24.849 11.5 25.5556C11.5 26.2622 12.1197 26.8334 12.8838 26.8334H26.726C27.4927 26.8334 28.1111 26.2622 28.1111 25.5556ZM38.3333 37.0556C38.3333 36.7167 38.1987 36.3917 37.9591 36.1521C37.7195 35.9125 37.3944 35.7778 37.0556 35.7778H23C22.6611 35.7778 22.3361 35.9125 22.0965 36.1521C21.8568 36.3917 21.7222 36.7167 21.7222 37.0556C21.7222 37.3945 21.8568 37.7195 22.0965 37.9591C22.3361 38.1988 22.6611 38.3334 23 38.3334H37.0556C37.3944 38.3334 37.7195 38.1988 37.9591 37.9591C38.1987 37.7195 38.3333 37.3945 38.3333 37.0556Z" fill="#E1E8ED"/>
<path d="M27.1197 21.7222L21.7964 36.6262C21.6826 36.9454 21.7002 37.2968 21.8454 37.603C21.9906 37.9093 22.2515 38.1453 22.5708 38.2592C22.89 38.373 23.2414 38.3554 23.5476 38.2102C23.8539 38.065 24.0899 37.8041 24.2038 37.4848L29.8337 21.7222H27.1197Z" fill="#E1E8ED"/>
<path d="M37.0566 38.3332C36.6349 38.3332 36.2209 38.1237 35.9769 37.7416L27.0324 23.6861C26.9423 23.5445 26.881 23.3865 26.8519 23.2211C26.8229 23.0558 26.8267 22.8864 26.8631 22.7225C26.8995 22.5587 26.9679 22.4036 27.0642 22.2661C27.1606 22.1287 27.2831 22.0116 27.4247 21.9215C27.5663 21.8314 27.7243 21.77 27.8897 21.741C28.055 21.7119 28.2244 21.7157 28.3883 21.7521C28.5521 21.7886 28.7072 21.8569 28.8447 21.9533C28.9821 22.0496 29.0992 22.1721 29.1893 22.3137L38.1338 36.3693C38.2567 36.5624 38.3255 36.785 38.333 37.0138C38.3404 37.2426 38.2863 37.4692 38.1762 37.6699C38.0661 37.8707 37.9041 38.0381 37.7072 38.1548C37.5102 38.2715 37.2855 38.3331 37.0566 38.3332ZM24.2776 32.8822L13.5608 24.546C13.4287 24.4396 13.2767 24.3605 13.1136 24.3134C12.9506 24.2664 12.7798 24.2522 12.6113 24.2719C12.4428 24.2915 12.2798 24.3446 12.132 24.4278C11.9841 24.5111 11.8544 24.6231 11.7503 24.757C11.6461 24.891 11.5698 25.0444 11.5256 25.2082C11.4814 25.3721 11.4702 25.5431 11.4928 25.7112C11.5154 25.8794 11.5713 26.0414 11.6572 26.1877C11.743 26.3341 11.8572 26.4619 11.993 26.5636L23.493 35.5081C23.7163 35.6836 23.9923 35.7786 24.2763 35.7777L24.2776 32.8822Z" fill="#E1E8ED"/>
<path d="M8.94442 38.3333C8.74191 38.3332 8.54232 38.285 8.36211 38.1926C8.1819 38.1002 8.02622 37.9664 7.90791 37.802C7.78961 37.6376 7.71206 37.4475 7.68166 37.2473C7.65126 37.0471 7.66889 36.8425 7.73309 36.6505L11.2751 26.0245L6.90125 22.7431C6.76701 22.6424 6.65392 22.5163 6.56842 22.3719C6.48293 22.2275 6.42671 22.0677 6.40298 21.9016C6.35506 21.5661 6.44236 21.2253 6.6457 20.9542C6.84903 20.6831 7.15173 20.5039 7.48721 20.456C7.8227 20.408 8.16348 20.4953 8.43459 20.6987L14.283 25.0853L10.1583 37.4593C10.0728 37.7136 9.90968 37.9347 9.69192 38.0915C9.47417 38.2483 9.21274 38.3328 8.94442 38.3333Z" fill="#E1E8ED"/>
<path d="M33.7114 24.2779C33.6734 24.2779 33.6354 24.2753 33.5977 24.2702L26.3501 23.3656C26.1143 23.346 25.8956 23.2348 25.7408 23.0559C25.5861 22.877 25.5075 22.6445 25.5221 22.4084C25.5366 22.1723 25.6431 21.9512 25.8186 21.7926C25.9942 21.6341 26.2249 21.5506 26.4613 21.5601C26.5137 21.5601 31.658 21.5371 34.1139 19.9002C34.2712 19.796 34.457 19.7433 34.6456 19.7492C34.8342 19.7552 35.0163 19.8196 35.1668 19.9334C35.3162 20.0486 35.426 20.2074 35.4812 20.3878C35.5364 20.5682 35.5341 20.7613 35.4747 20.9403L34.5688 23.6582C34.5095 23.8387 34.3946 23.9958 34.2406 24.1071C34.0866 24.2184 33.9014 24.2782 33.7114 24.2779ZM14.0553 23.0001H7.66645C7.32756 23.0001 7.00255 22.8655 6.76292 22.6259C6.52329 22.3862 6.38867 22.0612 6.38867 21.7223C6.38867 21.3834 6.52329 21.0584 6.76292 20.8188C7.00255 20.5792 7.32756 20.4446 7.66645 20.4446H14.0553C14.3942 20.4446 14.7192 20.5792 14.9589 20.8188C15.1985 21.0584 15.3331 21.3834 15.3331 21.7223C15.3331 22.0612 15.1985 22.3862 14.9589 22.6259C14.7192 22.8655 14.3942 23.0001 14.0553 23.0001Z" fill="#292F33"/>
<path d="M28.1098 16.6111L23 20.4444L26.8333 24.2778L28.1098 16.6111Z" fill="#A0041E"/>
<path d="M25.5542 21.7222C25.5542 21.7222 22.9986 25.5555 22.9986 26.8333C22.9986 28.111 24.2764 31.9444 24.2764 35.7777C24.2764 39.611 26.8319 39.611 26.8319 38.3333C26.8319 37.0555 28.8521 31.409 26.8319 29.3888C25.5542 28.111 29.3875 24.2777 29.3875 24.2777L25.5542 21.7222ZM20.0418 16.9905L16.5279 15.9888C15.9568 18.4881 12.6652 21.7209 11.4999 21.7209C10.2221 21.7209 8.94434 21.7209 8.94434 22.9987C8.94434 24.2764 8.94434 24.2764 11.4999 24.2764C14.0554 24.2764 16.611 21.7209 17.8888 20.4431C18.7193 19.6125 19.5614 18.198 20.0418 16.9905Z" fill="#F3D2A2"/>
<path d="M28.1097 16.6112L24.2764 21.7223L29.3875 25.5556C29.3875 25.5556 35.7764 19.1667 35.7764 16.6112C35.7764 14.0556 31.943 12.7778 31.943 12.7778L28.1097 16.6112Z" fill="#BE1931"/>
<path d="M26.832 8.94309C22.9987 7.66531 19.6956 8.41409 17.8876 10.2209C16.6098 11.4986 16.6098 12.7764 16.6098 15.332C16.6098 15.5569 16.5714 15.7945 16.5165 16.0348L20.0227 17.0365C20.2808 16.3861 20.4444 15.7792 20.4444 15.332C20.4444 14.0542 21.7222 14.0542 22.9999 15.332C24.2777 16.6098 25.5555 17.8875 26.8333 17.8875C28.1111 17.8875 34.4999 12.7764 34.4999 12.7764C30.6653 11.4986 29.2572 9.75064 26.832 8.94309ZM24.2777 37.0555C24.2777 37.0555 25.5555 38.3333 26.8333 37.0555C28.1111 35.7777 28.1111 39.611 28.1111 39.611C28.1111 39.611 24.2777 42.1666 21.7222 42.1666C19.1666 42.1666 20.4444 40.8888 21.7222 39.611L24.2777 37.0555ZM14.0555 2.55548C16.6111 1.2777 21.7222 2.55548 19.1666 5.11103C17.8888 6.38881 10.2222 7.66659 10.2222 7.66659C10.2222 6.38881 11.4999 3.83326 14.0555 2.55548Z" fill="#DD2E44"/>
</g>
<defs>
<clipPath id="clip0_81_4149">
<rect width="46" height="46" fill="white"/>
</clipPath>
</defs>
</svg>
