<svg width="45" height="45" viewBox="0 0 45 45" fill="none" xmlns="http://www.w3.org/2000/svg">
<g clip-path="url(#clip0_81_4235)">
<path d="M22.5 45C34.9264 45 45 34.9264 45 22.5C45 10.0736 34.9264 0 22.5 0C10.0736 0 0 10.0736 0 22.5C0 34.9264 10.0736 45 22.5 45Z" fill="#F5F8FA"/>
<path d="M22.4999 13.75C22.1683 13.75 21.8504 13.6183 21.616 13.3839C21.3816 13.1495 21.2499 12.8315 21.2499 12.5V3.75001C21.2499 3.41849 21.3816 3.10055 21.616 2.86613C21.8504 2.63171 22.1683 2.50001 22.4999 2.50001C22.8314 2.50001 23.1493 2.63171 23.3838 2.86613C23.6182 3.10055 23.7499 3.41849 23.7499 3.75001V12.5C23.7499 12.8315 23.6182 13.1495 23.3838 13.3839C23.1493 13.6183 22.8314 13.75 22.4999 13.75ZM14.2711 19.375C14.143 19.3751 14.0157 19.3553 13.8936 19.3163L3.84237 16.1388C3.52626 16.0388 3.26281 15.8174 3.10997 15.5232C2.95713 15.229 2.92742 14.8861 3.02737 14.57C3.12732 14.2539 3.34875 13.9905 3.64295 13.8376C3.93715 13.6848 4.28001 13.6551 4.59612 13.755L14.6486 16.9325C14.9338 17.0221 15.1774 17.211 15.3353 17.4648C15.4931 17.7186 15.5549 18.0205 15.5092 18.3159C15.4635 18.6113 15.3136 18.8806 15.0864 19.0749C14.8593 19.2692 14.57 19.3757 14.2711 19.375ZM31.3024 19.0113C31.0021 19.0096 30.7125 18.9001 30.4863 18.7026C30.2602 18.5051 30.1125 18.2329 30.0704 17.9357C30.0282 17.6384 30.0944 17.3359 30.2568 17.0833C30.4191 16.8308 30.6669 16.645 30.9549 16.56L39.3924 14.1125C39.7093 14.025 40.048 14.066 40.335 14.2265C40.622 14.387 40.8342 14.6541 40.9256 14.97C41.017 15.2858 40.9803 15.625 40.8234 15.9139C40.6665 16.2029 40.4021 16.4184 40.0874 16.5138L31.6499 18.9613C31.537 18.9944 31.42 19.0112 31.3024 19.0113ZM33.8036 37.7088C33.6086 37.7089 33.4163 37.6634 33.242 37.576C33.0677 37.4885 32.9163 37.3615 32.7999 37.205L25.9761 28.0388C25.8743 27.9074 25.7996 27.7571 25.7566 27.5965C25.7135 27.436 25.7029 27.2684 25.7254 27.1037C25.7479 26.939 25.803 26.7805 25.8875 26.6373C25.972 26.4942 26.0842 26.3693 26.2175 26.2701C26.3509 26.1708 26.5027 26.0992 26.664 26.0593C26.8254 26.0194 26.9931 26.0121 27.1573 26.0378C27.3215 26.0636 27.479 26.1218 27.6204 26.2091C27.7619 26.2964 27.8845 26.411 27.9811 26.5463L34.8049 35.7125C34.9431 35.8983 35.0271 36.1189 35.0473 36.3496C35.0675 36.5803 35.0232 36.8122 34.9194 37.0192C34.8156 37.2262 34.6562 37.4003 34.4592 37.5221C34.2622 37.6438 34.0352 37.7085 33.8036 37.7088ZM10.9361 37.605C10.7079 37.6048 10.4841 37.5421 10.2889 37.4237C10.0938 37.3053 9.93479 37.1358 9.82918 36.9334C9.72356 36.7311 9.67537 36.5037 9.68981 36.2759C9.70426 36.0481 9.78079 35.8286 9.91112 35.6413L16.3174 26.4225C16.4093 26.2837 16.5281 26.1647 16.6666 26.0725C16.8052 25.9802 16.9608 25.9165 17.1243 25.8852C17.2878 25.8539 17.456 25.8556 17.6188 25.8902C17.7817 25.9247 17.936 25.9914 18.0727 26.0864C18.2094 26.1814 18.3258 26.3028 18.4149 26.4434C18.5041 26.584 18.5643 26.7409 18.592 26.9051C18.6197 27.0693 18.6143 27.2373 18.5761 27.3993C18.538 27.5614 18.4679 27.7142 18.3699 27.8488L11.9636 37.0675C11.8488 37.2337 11.6953 37.3696 11.5163 37.4632C11.3373 37.5568 11.1381 37.6055 10.9361 37.605ZM4.37487 33.8275C3.82487 33.8275 3.31987 33.4613 3.16862 32.905L0.43362 22.8275C0.390694 22.669 0.379405 22.5036 0.400398 22.3408C0.421391 22.1779 0.474254 22.0208 0.55597 21.8784C0.637685 21.736 0.746653 21.611 0.87665 21.5107C1.00665 21.4104 1.15513 21.3367 1.31362 21.2938C1.47211 21.2508 1.6375 21.2396 1.80035 21.2605C1.9632 21.2815 2.12033 21.3344 2.26275 21.4161C2.40517 21.4978 2.5301 21.6068 2.63041 21.7368C2.73072 21.8668 2.80444 22.0153 2.84737 22.1738L5.58237 32.2513C5.63302 32.4367 5.64015 32.6313 5.60318 32.8199C5.56622 33.0085 5.48617 33.1861 5.36928 33.3387C5.25239 33.4912 5.10183 33.6148 4.92933 33.6996C4.75684 33.7844 4.56708 33.8281 4.37487 33.8275ZM27.4999 42.5H16.2499C15.9183 42.5 15.6004 42.3683 15.366 42.1339C15.1316 41.8995 14.9999 41.5815 14.9999 41.25C14.9999 40.9185 15.1316 40.6006 15.366 40.3661C15.6004 40.1317 15.9183 40 16.2499 40H27.4999C27.8314 40 28.1493 40.1317 28.3838 40.3661C28.6182 40.6006 28.7499 40.9185 28.7499 41.25C28.7499 41.5815 28.6182 41.8995 28.3838 42.1339C28.1493 42.3683 27.8314 42.5 27.4999 42.5ZM40.1574 33.9063C39.9677 33.9065 39.7805 33.8635 39.6099 33.7806C39.4394 33.6977 39.2899 33.5771 39.1729 33.4278C39.0559 33.2785 38.9745 33.1046 38.9348 32.9191C38.895 32.7337 38.8981 32.5416 38.9436 32.3575L41.5999 21.5763C41.6354 21.413 41.7033 21.2585 41.7995 21.122C41.8957 20.9854 42.0184 20.8695 42.1602 20.7811C42.3019 20.6928 42.46 20.6337 42.625 20.6075C42.79 20.5812 42.9586 20.5884 43.1208 20.6284C43.283 20.6684 43.4355 20.7406 43.5694 20.8405C43.7032 20.9405 43.8157 21.0663 43.9001 21.2105C43.9845 21.3547 44.0391 21.5143 44.0608 21.68C44.0824 21.8457 44.0706 22.014 44.0261 22.175L41.3699 32.9563C41.2286 33.525 40.7186 33.9063 40.1574 33.9063ZM37.8899 9.61001C37.6704 9.61012 37.4548 9.55234 37.2649 9.44251L27.8124 3.97376C27.6703 3.89148 27.5458 3.78199 27.446 3.65157C27.3462 3.52115 27.2731 3.37235 27.2308 3.21366C27.1886 3.05498 27.178 2.88952 27.1997 2.72675C27.2214 2.56397 27.275 2.40707 27.3574 2.26501C27.4393 2.12272 27.5485 1.998 27.6788 1.89802C27.809 1.79803 27.9578 1.72474 28.1164 1.68235C28.275 1.63996 28.4405 1.62931 28.6032 1.651C28.766 1.6727 28.9229 1.72631 29.0649 1.80876L38.5174 7.27751C38.7558 7.41521 38.9422 7.6278 39.0474 7.88227C39.1527 8.13673 39.1709 8.41883 39.0994 8.68475C39.0279 8.95067 38.8705 9.18552 38.6518 9.35283C38.4331 9.52015 38.1652 9.61055 37.8899 9.61001ZM6.87612 9.61001C6.61123 9.61047 6.35305 9.52678 6.13881 9.37099C5.92458 9.21521 5.76537 8.9954 5.68415 8.74327C5.60293 8.49114 5.60391 8.21973 5.68694 7.96819C5.76998 7.71666 5.93077 7.498 6.14612 7.34376L13.8811 1.79626C14.151 1.61723 14.4797 1.54979 14.7982 1.60811C15.1168 1.66644 15.4003 1.84599 15.5892 2.10903C15.7781 2.37206 15.8577 2.69808 15.8112 3.01856C15.7647 3.33904 15.5957 3.62901 15.3399 3.82751L7.60362 9.37501C7.39161 9.5274 7.13721 9.60958 6.87612 9.61001Z" fill="#CCD6DD"/>
<path d="M31.8662 16.895L22.8563 10.5412C22.6435 10.3917 22.3895 10.312 22.1294 10.3134C21.8694 10.3147 21.6162 10.397 21.405 10.5487L12.4462 17.0075C12.2368 17.1586 12.0793 17.3708 11.9954 17.615C11.9115 17.8592 11.9052 18.1234 11.9775 18.3713L15.1025 29.1C15.1782 29.3596 15.3361 29.5877 15.5525 29.75C15.7689 29.9123 16.032 30 16.3025 30H27.5C27.7618 30.0001 28.017 29.9179 28.2296 29.7652C28.4422 29.6125 28.6015 29.3969 28.685 29.1488L32.3312 18.315C32.417 18.0598 32.4181 17.7837 32.3343 17.5279C32.2505 17.272 32.0863 17.0501 31.8662 16.895ZM1.615 24.4275C1.83692 24.4276 2.05485 24.3685 2.24642 24.2565C2.43798 24.1445 2.59626 23.9835 2.705 23.79L6.92375 16.29C6.98741 16.1765 7.03296 16.0538 7.05875 15.9263L8.725 7.75C8.76231 7.56834 8.7587 7.38065 8.71441 7.20056C8.67013 7.02047 8.58629 6.85251 8.46898 6.70887C8.35168 6.56523 8.20385 6.44952 8.03624 6.37015C7.86864 6.29078 7.68545 6.24973 7.5 6.25H6.965C2.68125 10.3462 0 16.105 0 22.5C0 22.8325 0.035 23.1562 0.05 23.485L0.8025 24.1275C1.03 24.3225 1.31875 24.4275 1.615 24.4275ZM13.2712 3.74375C13.3367 3.87875 13.4337 3.99603 13.554 4.08566C13.6743 4.1753 13.8144 4.23467 13.9625 4.25875L21.9312 5.56125C22.0319 5.57628 22.1343 5.57628 22.235 5.56125L29.84 4.31125C29.9645 4.29108 30.0836 4.24593 30.1902 4.17853C30.2967 4.11113 30.3886 4.02288 30.4602 3.91906C30.5317 3.81525 30.5816 3.69804 30.6067 3.57446C30.6318 3.45089 30.6316 3.32351 30.6063 3.2L30.2413 1.39625C27.7635 0.477646 25.1426 0.00493601 22.5 0C19.4688 0 16.5825 0.6075 13.9437 1.695L13.2925 2.8825C13.2206 3.01397 13.1811 3.16073 13.1774 3.31055C13.1737 3.46036 13.2059 3.60889 13.2712 3.74375ZM38.9175 7.14875L37.0375 7.03C36.8954 7.02135 36.7531 7.04484 36.6213 7.09872C36.4896 7.15261 36.3716 7.23551 36.2762 7.34125C36.182 7.44704 36.1132 7.57304 36.0753 7.70957C36.0374 7.84609 36.0313 7.9895 36.0575 8.12875L37.5163 15.8763C37.5375 15.9759 37.5769 16.0708 37.6325 16.1562C39.4975 19.2863 41.5725 22.7825 41.8587 23.3838C41.8887 23.4888 41.9363 23.4825 42.0013 23.5725C42.1763 23.8162 42.4663 23.75 42.7663 23.75H42.775C43.0225 23.75 43.1787 23.8675 44.985 22.8088C44.9862 22.705 45 22.6038 45 22.5C45 16.5588 42.68 11.17 38.9175 7.14875ZM18.1763 41.72C18.1898 41.4707 18.1039 41.2262 17.9375 41.04L12.3125 34.79C12.2375 34.7068 12.1482 34.6378 12.0487 34.5863C4.6925 30.75 4.55625 30.705 4.46625 30.6737C4.36852 30.6421 4.26649 30.6256 4.16375 30.625C3.4925 30.625 3.295 30.7063 2.6825 33.155C5.50801 38.395 10.2906 42.3055 15.9875 44.0338L17.8625 42.3675C18.0487 42.2017 18.1615 41.9689 18.1763 41.72ZM40.4675 31.0112C40.3502 30.9618 40.2241 30.9369 40.0969 30.9379C39.9696 30.939 39.8439 30.9661 39.7275 31.0175L32.1237 34.3512C31.9911 34.4087 31.8738 34.4964 31.7812 34.6075L26.4688 40.9613C26.3894 41.0565 26.3297 41.1664 26.2931 41.2848C26.2564 41.4032 26.2435 41.5276 26.2551 41.651C26.2668 41.7744 26.3027 41.8942 26.3608 42.0037C26.4189 42.1131 26.4981 42.21 26.5938 42.2887C27.4475 42.9875 28.17 43.5762 28.8025 44.0887C34.2938 42.4781 38.9661 38.8374 41.87 33.9062L40.98 31.545C40.9353 31.4259 40.8668 31.3171 40.7787 31.2253C40.6906 31.1336 40.5847 31.0607 40.4675 31.0112Z" fill="#31373D"/>
</g>
<defs>
<clipPath id="clip0_81_4235">
<rect width="45" height="45" fill="white"/>
</clipPath>
</defs>
</svg>
