<svg width="56" height="56" viewBox="0 0 56 56" fill="none" xmlns="http://www.w3.org/2000/svg">
<g clip-path="url(#clip0_81_4175)">
<path d="M28.8215 5.92676C27.6844 5.92676 26.611 6.19587 25.6528 6.66098C24.988 6.54459 24.3057 6.57504 23.6539 6.75021C23.002 6.92537 22.3964 7.241 21.8794 7.67496C21.3625 8.10893 20.9467 8.65073 20.6612 9.26237C20.3758 9.87401 20.2276 10.5407 20.2271 11.2156V19.149H20.2379C20.3593 23.4236 23.8562 26.8552 28.1604 26.8552C32.4646 26.8552 35.9615 23.4236 36.0828 19.149H36.0937V13.199C36.0937 11.2703 35.3275 9.42055 33.9637 8.05674C32.5999 6.69294 30.7502 5.92676 28.8215 5.92676Z" fill="#963B22"/>
<path d="M24.0289 54.2501H22.4422C22.4422 54.2501 20.2893 49.0421 20.6066 45.3274L24.5437 46.1814C25.4149 48.6143 24.0289 54.2501 24.0289 54.2501ZM31.6277 54.2501H33.2144C33.2144 54.2501 35.3673 49.0421 35.05 45.3274L31.1113 46.1814C30.2417 48.6143 31.6277 54.2501 31.6277 54.2501Z" fill="#D4AB88"/>
<path d="M20.9253 54.6762C21.084 54.2982 21.4168 53.5967 21.4526 53.1907C21.4884 52.7847 21.5055 52.64 21.8228 52.528C22.3595 52.3398 24.0426 52.3927 24.332 52.5031C24.6197 52.6136 24.6244 52.9122 24.6648 53.1627C24.7053 53.4131 24.8406 53.8222 25.0164 54.1582C25.1922 54.4942 25.648 55.2424 25.4208 55.7667C25.326 55.9844 24.7955 55.9813 23.0922 55.9813C21.3888 55.9813 20.902 55.9409 20.7853 55.7978C20.6686 55.6547 20.7682 55.0558 20.9253 54.6762ZM34.7308 54.6762C34.5722 54.2982 34.2393 53.5967 34.2035 53.1907C34.1677 52.7847 34.1506 52.64 33.8333 52.528C33.2966 52.3398 31.6135 52.3927 31.3242 52.5031C31.0364 52.6136 31.0317 52.9122 30.9913 53.1627C30.9508 53.4131 30.8155 53.8222 30.6397 54.1582C30.464 54.4942 30.0082 55.2424 30.2353 55.7667C30.3302 55.9844 30.8606 55.9813 32.564 55.9813C34.2673 55.9813 34.7542 55.9409 34.8708 55.7978C34.986 55.6547 34.8879 55.0558 34.7308 54.6762Z" fill="#DD2E44"/>
<path d="M12.9266 6.46493C12.9437 6.66248 14.1928 8.83715 14.8959 10.5483C15.599 12.2594 16.0579 14.0483 16.4266 14.4371C17.167 15.2134 19.4226 16.73 20.9548 19.0058C22.487 21.2831 17.8794 23.0191 16.8932 21.476C16.1917 20.3778 14.857 17.7925 13.6312 15.6287C13.1583 14.7887 12.2359 13.3669 11.5654 11.7149C10.9339 10.1594 10.5668 8.34248 10.4734 8.11848C10.195 7.45737 9.10611 6.5987 9.05322 5.92982C9.05322 5.92982 12.8706 5.79915 12.9266 6.46493ZM42.7294 6.46493C42.7123 6.66248 41.4632 8.83715 40.7601 10.5483C40.057 12.2594 39.5981 14.0483 39.2294 14.4371C38.489 15.2134 36.2334 16.73 34.7012 19.0058C33.169 21.2831 37.7766 23.0191 38.7628 21.476C39.4643 20.3778 40.799 17.7925 42.0248 15.6287C42.4977 14.7887 43.4201 13.3669 44.0906 11.7149C44.7221 10.1594 45.0892 8.34248 45.1826 8.11848C45.4594 7.45737 46.5483 6.5987 46.6012 5.93137C46.6012 5.92982 42.7854 5.79915 42.7294 6.46493Z" fill="#D4AB88"/>
<path d="M56 5.44453C56 5.65081 55.9181 5.84864 55.7722 5.9945C55.6263 6.14036 55.4285 6.2223 55.2222 6.2223H0.777778C0.571498 6.2223 0.373667 6.14036 0.227806 5.9945C0.0819442 5.84864 0 5.65081 0 5.44453C0 5.23825 0.0819442 5.04042 0.227806 4.89455C0.373667 4.74869 0.571498 4.66675 0.777778 4.66675H55.2222C55.4285 4.66675 55.6263 4.74869 55.7722 4.89455C55.9181 5.04042 56 5.23825 56 5.44453Z" fill="#99AAB5"/>
<path d="M52.889 0C52.4764 0 52.0808 0.163888 51.7891 0.455612C51.4973 0.747335 51.3334 1.143 51.3334 1.55556C51.3334 1.143 51.1696 0.747335 50.8778 0.455612C50.5861 0.163888 50.1904 0 49.7779 0C49.3653 0 48.9697 0.163888 48.6779 0.455612C48.3862 0.747335 48.2223 1.143 48.2223 1.55556V9.33333C48.2223 9.74589 48.3862 10.1416 48.6779 10.4333C48.9697 10.725 49.3653 10.8889 49.7779 10.8889C50.1904 10.8889 50.5861 10.725 50.8778 10.4333C51.1696 10.1416 51.3334 9.74589 51.3334 9.33333C51.3334 9.74589 51.4973 10.1416 51.7891 10.4333C52.0808 10.725 52.4764 10.8889 52.889 10.8889C53.3016 10.8889 53.6972 10.725 53.9889 10.4333C54.2807 10.1416 54.4446 9.74589 54.4446 9.33333V1.55556C54.4446 1.143 54.2807 0.747335 53.9889 0.455612C53.6972 0.163888 53.3016 0 52.889 0ZM6.22233 0C5.80977 0 5.41411 0.163888 5.12239 0.455612C4.83066 0.747335 4.66678 1.143 4.66678 1.55556C4.66678 1.143 4.50289 0.747335 4.21116 0.455612C3.91944 0.163888 3.52378 0 3.11122 0C2.69866 0 2.303 0.163888 2.01128 0.455612C1.71955 0.747335 1.55566 1.143 1.55566 1.55556V9.33333C1.55566 9.74589 1.71955 10.1416 2.01128 10.4333C2.303 10.725 2.69866 10.8889 3.11122 10.8889C3.52378 10.8889 3.91944 10.725 4.21116 10.4333C4.50289 10.1416 4.66678 9.74589 4.66678 9.33333C4.66678 9.74589 4.83066 10.1416 5.12239 10.4333C5.41411 10.725 5.80977 10.8889 6.22233 10.8889C6.63489 10.8889 7.03055 10.725 7.32227 10.4333C7.614 10.1416 7.77789 9.74589 7.77789 9.33333V1.55556C7.77789 1.143 7.614 0.747335 7.32227 0.455612C7.03055 0.163888 6.63489 0 6.22233 0Z" fill="#292F33"/>
<path d="M38.7612 21.4761C37.789 20.5692 34.6997 19.0059 34.6997 19.0059C33.5968 19.6296 32.7755 20.8539 32.4208 21.4496L30.2461 22.0625H25.7506L23.2197 21.431C22.8604 20.829 22.0452 19.6234 20.9517 19.0059C20.9517 19.0059 17.8624 20.5676 16.8901 21.4761C17.5217 23.0923 19.2904 25.253 19.2904 25.253L19.3028 25.2514C19.925 26.5285 20.6312 27.3701 20.7728 27.6579C21.3732 28.8727 21.7777 35.0001 21.7777 35.0001L27.9999 37.3334L33.8784 35.0001C33.8784 35.0001 34.2828 28.8727 34.8786 27.6594C35.0201 27.3716 35.7264 26.5285 36.3486 25.253L36.361 25.2545C36.361 25.253 38.1312 23.0923 38.7612 21.4761Z" fill="#DD2E44"/>
<path d="M25.6216 17.752V22.5104C25.6216 23.1412 25.8722 23.7462 26.3182 24.1922C26.7643 24.6383 27.3692 24.8888 28 24.8888C28.6308 24.8888 29.2358 24.6383 29.6818 24.1922C30.1279 23.7462 30.3785 23.1412 30.3785 22.5104V17.752H25.6216Z" fill="#D4AB88"/>
<path d="M28.5834 5.21582C27.199 5.21582 25.9203 5.6576 24.8719 6.40271C23.8285 6.45454 22.8449 6.90501 22.1242 7.66111C21.4034 8.41721 21.0004 9.42121 20.9985 10.4658C20.9985 12.264 21.0063 14.5305 23.377 15.3752C24.0184 16.2684 24.8785 16.9818 25.875 17.4469C26.8714 17.912 27.9706 18.1133 29.0672 18.0313C30.1638 17.9494 31.2209 17.587 32.1372 16.9789C33.0534 16.3709 33.798 15.5376 34.2995 14.559C34.8011 13.5804 35.0427 12.4893 35.0012 11.3904C34.9597 10.2916 34.6365 9.2218 34.0626 8.28378C33.4888 7.34576 32.6835 6.57097 31.724 6.03373C30.7645 5.4965 29.6831 5.21485 28.5834 5.21582Z" fill="#963B22"/>
<path d="M33.8332 8.71411H22.1665V15.7141C22.1665 17.2612 22.7811 18.7449 23.875 19.8389C24.969 20.9329 26.4527 21.5474 27.9998 21.5474C29.5469 21.5474 31.0307 20.9329 32.1246 19.8389C33.2186 18.7449 33.8332 17.2612 33.8332 15.7141V8.71411Z" fill="#D4AB88"/>
<path d="M28 6.22217L21.896 8.60683V13.4897C24.7442 13.4897 25.3742 10.5451 25.5158 9.23217C25.564 10.5451 26.5098 13.4897 34.1024 13.4897V8.60683L28 6.22217Z" fill="#963B22"/>
<path d="M30.3332 19.2158H25.6665C25.6665 19.2158 25.6665 20.3825 27.9998 20.3825C30.3332 20.3825 30.3332 19.2158 30.3332 19.2158Z" fill="#C1694F"/>
<path d="M25.0833 15.7157C25.4055 15.7157 25.6667 15.4546 25.6667 15.1324C25.6667 14.8102 25.4055 14.5491 25.0833 14.5491C24.7612 14.5491 24.5 14.8102 24.5 15.1324C24.5 15.4546 24.7612 15.7157 25.0833 15.7157Z" fill="#662113"/>
<path d="M31.5002 15.1324C31.5002 15.2871 31.4387 15.4355 31.3293 15.5449C31.2199 15.6543 31.0715 15.7157 30.9168 15.7157C30.7621 15.7157 30.6137 15.6543 30.5044 15.5449C30.395 15.4355 30.3335 15.2871 30.3335 15.1324C30.3335 14.9777 30.395 14.8293 30.5044 14.7199C30.6137 14.6105 30.7621 14.5491 30.9168 14.5491C31.0715 14.5491 31.2199 14.6105 31.3293 14.7199C31.4387 14.8293 31.5002 14.9777 31.5002 15.1324Z" fill="#662113"/>
<path d="M26.8335 16.8823H29.1668C29.1668 16.8823 29.1668 18.049 28.0002 18.049C26.8335 18.049 26.8335 16.8823 26.8335 16.8823Z" fill="#C1694F"/>
<path d="M42.1496 6.78697C41.6362 6.54274 41.4091 6.12119 41.5631 5.66852L41.5678 5.65297C41.7218 5.2003 42.0204 5.11475 42.7158 5.12563C42.7158 5.12563 45.0818 5.24386 46.5067 6.23319C46.5067 6.23319 46.1971 6.70608 45.8113 7.1043L45.8067 7.11986C45.6496 7.57097 43.296 7.33297 42.1496 6.78697Z" fill="#D4AB88"/>
<path d="M43.3117 5.39769C43.2091 5.37229 43.1208 5.3073 43.066 5.21693C43.0112 5.12657 42.9944 5.01818 43.0193 4.91547L43.1546 4.36013C43.2059 4.14702 43.4237 4.01635 43.6368 4.06769C43.8499 4.11902 43.9806 4.3368 43.9293 4.54991L43.7939 5.10524C43.7682 5.20761 43.7031 5.29571 43.6129 5.35044C43.5226 5.40518 43.4144 5.42216 43.3117 5.39769ZM42.6195 4.04435C42.497 4.00379 42.3633 4.01322 42.2477 4.0706C42.1321 4.12798 42.0438 4.22867 42.0019 4.3508L41.5679 5.6528C41.4824 5.90791 41.8293 5.54702 42.0844 5.63258C42.2067 5.67364 42.3403 5.66462 42.456 5.6075C42.5718 5.55037 42.6602 5.44978 42.7019 5.32769L42.9259 4.66346C42.9666 4.54071 42.9572 4.40689 42.8998 4.291C42.8424 4.17512 42.7417 4.0865 42.6195 4.04435Z" fill="#D4AB88"/>
<path d="M44.1533 5.28731C44.0507 5.26191 43.9624 5.19692 43.9076 5.10656C43.8528 5.01619 43.836 4.9078 43.8609 4.80509L43.9884 4.28553C44.0397 4.07242 44.2575 3.94176 44.4706 3.99309C44.6837 4.04442 44.8144 4.2622 44.7631 4.47531L44.6355 4.99487C44.6098 5.09724 44.5447 5.18533 44.4544 5.24007C44.3642 5.29481 44.256 5.31178 44.1533 5.28731Z" fill="#D4AB88"/>
<path d="M44.9555 5.32609C44.853 5.30069 44.7646 5.2357 44.7098 5.14533C44.655 5.05496 44.6382 4.94658 44.6631 4.84386L44.7689 4.41298C44.8202 4.19986 45.038 4.0692 45.2511 4.12053C45.4642 4.17186 45.5949 4.38964 45.5435 4.60275L45.4378 5.03364C45.412 5.13601 45.3469 5.22411 45.2567 5.27884C45.1664 5.33358 45.0582 5.35055 44.9555 5.32609Z" fill="#D4AB88"/>
<path d="M45.7632 5.36204C45.6606 5.33664 45.5722 5.27165 45.5174 5.18129C45.4626 5.09092 45.4458 4.98253 45.4707 4.87982L45.5329 4.62782C45.5843 4.41471 45.8021 4.28404 46.0152 4.33537C46.2283 4.38671 46.3589 4.60449 46.3076 4.8176L46.2454 5.0696C46.22 5.17218 46.155 5.26054 46.0646 5.31534C45.9743 5.37014 45.8659 5.38693 45.7632 5.36204Z" fill="#D4AB88"/>
<path d="M13.507 6.78696C14.0203 6.54273 14.2475 6.12118 14.0935 5.66851L14.0888 5.65296C13.9332 5.20184 13.6346 5.11473 12.9408 5.12562C12.9408 5.12562 10.5748 5.24384 9.1499 6.23318C9.1499 6.23318 9.45946 6.70607 9.84524 7.10429L9.8499 7.11984C10.0055 7.57096 12.3606 7.33296 13.507 6.78696Z" fill="#D4AB88"/>
<path d="M12.3452 5.39793C12.4478 5.37253 12.5361 5.30754 12.5909 5.21718C12.6457 5.12681 12.6625 5.01842 12.6376 4.91571L12.5008 4.36038C12.4754 4.25779 12.4104 4.16943 12.32 4.11463C12.2296 4.05983 12.1212 4.04304 12.0185 4.06793C11.9162 4.09367 11.8283 4.1588 11.7738 4.24913C11.7193 4.33946 11.7027 4.44766 11.7276 4.55015L11.863 5.10549C11.8887 5.20786 11.9538 5.29595 12.0441 5.35069C12.1343 5.40543 12.2425 5.4224 12.3452 5.39793ZM13.0374 4.0446C13.16 4.00403 13.2936 4.01347 13.4092 4.07085C13.5248 4.12822 13.6132 4.22892 13.655 4.35104L14.089 5.65304C14.1745 5.90815 13.8276 5.54726 13.5725 5.63282C13.4502 5.67388 13.3166 5.66487 13.2009 5.60774C13.0852 5.55061 12.9968 5.45002 12.955 5.32793L12.731 4.66371C12.6899 4.54096 12.6991 4.40696 12.7565 4.29097C12.814 4.17497 12.9149 4.0864 13.0374 4.0446Z" fill="#D4AB88"/>
<path d="M11.5035 5.2874C11.6061 5.262 11.6945 5.19701 11.7493 5.10665C11.8041 5.01628 11.8209 4.90789 11.796 4.80518L11.6684 4.28563C11.643 4.18304 11.578 4.09469 11.4877 4.03988C11.3973 3.98508 11.2889 3.96829 11.1862 3.99318C11.0838 4.01895 10.9957 4.08401 10.941 4.17427C10.8862 4.26453 10.8693 4.37272 10.8937 4.4754L11.0213 4.99496C11.0471 5.09733 11.1121 5.18542 11.2024 5.24016C11.2926 5.2949 11.4008 5.31187 11.5035 5.2874Z" fill="#D4AB88"/>
<path d="M10.7007 5.32632C10.8031 5.30055 10.8912 5.23549 10.9459 5.14523C11.0007 5.05497 11.0176 4.94678 10.9932 4.84409L10.8874 4.4132C10.862 4.31096 10.7972 4.22287 10.7072 4.16811C10.6172 4.11335 10.5092 4.09633 10.4067 4.12076C10.3041 4.14616 10.2158 4.21115 10.161 4.30152C10.1062 4.39188 10.0894 4.50027 10.1143 4.60298L10.2201 5.03387C10.2451 5.13634 10.3098 5.22468 10.3999 5.27951C10.49 5.33434 10.5982 5.35117 10.7007 5.32632Z" fill="#D4AB88"/>
<path d="M9.89327 5.36213C9.99585 5.33673 10.0842 5.27174 10.139 5.18138C10.1938 5.09101 10.2106 4.98262 10.1857 4.87991L10.1235 4.62791C10.0981 4.52533 10.0331 4.43697 9.94273 4.38217C9.85237 4.32737 9.74398 4.31057 9.64126 4.33547C9.53918 4.36157 9.45146 4.42677 9.39704 4.51699C9.34262 4.60721 9.32586 4.71522 9.35038 4.81769L9.4126 5.06969C9.42482 5.12053 9.44697 5.16846 9.47777 5.21071C9.50858 5.25296 9.54744 5.2887 9.59211 5.31588C9.63678 5.34306 9.68638 5.36114 9.73807 5.36908C9.78975 5.37701 9.8425 5.37465 9.89327 5.36213Z" fill="#D4AB88"/>
<path d="M33.8783 38.1112L27.9999 35.7778L21.7777 38.1112C21.7777 38.1112 20.3154 40.8583 20.3154 46.1814H24.545C25.9714 44.6585 26.4894 40.5752 26.4894 40.5752H29.1665C29.1665 40.5752 29.6845 44.6585 31.111 46.1814H35.3405C35.3405 40.8583 33.8783 38.1112 33.8783 38.1112Z" fill="#DD2E44"/>
<path d="M21.7778 35H33.8785V38.1111H21.7778V35Z" fill="#C1694F"/>
<path d="M29.5557 34.8428H30.5668V38.279H29.5557V34.8428Z" fill="#14171A"/>
<path d="M28.7778 36.75C28.9213 36.75 29.0376 36.6337 29.0376 36.4902C29.0376 36.3468 28.9213 36.2305 28.7778 36.2305C28.6344 36.2305 28.5181 36.3468 28.5181 36.4902C28.5181 36.6337 28.6344 36.75 28.7778 36.75Z" fill="#14171A"/>
<path d="M28.0327 36.4902C28.0327 36.5591 28.0054 36.6252 27.9567 36.6739C27.9079 36.7227 27.8419 36.75 27.773 36.75C27.7041 36.75 27.638 36.7227 27.5893 36.6739C27.5406 36.6252 27.5132 36.5591 27.5132 36.4902C27.5132 36.4213 27.5406 36.3553 27.5893 36.3066C27.638 36.2578 27.7041 36.2305 27.773 36.2305C27.8419 36.2305 27.9079 36.2578 27.9567 36.3066C28.0054 36.3553 28.0327 36.4213 28.0327 36.4902Z" fill="#14171A"/>
<path d="M26.7681 36.75C26.9115 36.75 27.0279 36.6337 27.0279 36.4902C27.0279 36.3468 26.9115 36.2305 26.7681 36.2305C26.6246 36.2305 26.5083 36.3468 26.5083 36.4902C26.5083 36.6337 26.6246 36.75 26.7681 36.75Z" fill="#14171A"/>
<path d="M25.7632 36.75C25.9067 36.75 26.023 36.6337 26.023 36.4902C26.023 36.3468 25.9067 36.2305 25.7632 36.2305C25.6197 36.2305 25.5034 36.3468 25.5034 36.4902C25.5034 36.6337 25.6197 36.75 25.7632 36.75Z" fill="#14171A"/>
<path d="M24.7598 36.75C24.9032 36.75 25.0196 36.6337 25.0196 36.4902C25.0196 36.3468 24.9032 36.2305 24.7598 36.2305C24.6163 36.2305 24.5 36.3468 24.5 36.4902C24.5 36.6337 24.6163 36.75 24.7598 36.75Z" fill="#14171A"/>
<path d="M23.7549 36.75C23.8984 36.75 24.0147 36.6337 24.0147 36.4902C24.0147 36.3468 23.8984 36.2305 23.7549 36.2305C23.6114 36.2305 23.4951 36.3468 23.4951 36.4902C23.4951 36.6337 23.6114 36.75 23.7549 36.75Z" fill="#14171A"/>
<path d="M22.75 36.75C22.8935 36.75 23.0098 36.6337 23.0098 36.4902C23.0098 36.3468 22.8935 36.2305 22.75 36.2305C22.6065 36.2305 22.4902 36.3468 22.4902 36.4902C22.4902 36.6337 22.6065 36.75 22.75 36.75Z" fill="#14171A"/>
<path d="M26.7681 36.75C26.9115 36.75 27.0279 36.6337 27.0279 36.4902C27.0279 36.3468 26.9115 36.2305 26.7681 36.2305C26.6246 36.2305 26.5083 36.3468 26.5083 36.4902C26.5083 36.6337 26.6246 36.75 26.7681 36.75Z" fill="#14171A"/>
<path d="M25.3835 36.7205C25.5107 36.7205 25.6138 36.6174 25.6138 36.4902C25.6138 36.3631 25.5107 36.26 25.3835 36.26C25.2564 36.26 25.1533 36.3631 25.1533 36.4902C25.1533 36.6174 25.2564 36.7205 25.3835 36.7205Z" fill="#657786"/>
<path d="M25.7493 36.7205C25.8764 36.7205 25.9795 36.6174 25.9795 36.4902C25.9795 36.3631 25.8764 36.26 25.7493 36.26C25.6221 36.26 25.519 36.3631 25.519 36.4902C25.519 36.6174 25.6221 36.7205 25.7493 36.7205Z" fill="#657786"/>
<path d="M25.3838 36.26H25.7493V36.722H25.3838V36.26Z" fill="#657786"/>
<path d="M26.0229 38.6493H24.8438V34.4524H26.0229V34.9968H25.3882V38.1048H26.0229V38.6493Z" fill="#657786"/>
</g>
<defs>
<clipPath id="clip0_81_4175">
<rect width="56" height="56" fill="white"/>
</clipPath>
</defs>
</svg>
