<svg width="54" height="54" viewBox="0 0 54 54" fill="none" xmlns="http://www.w3.org/2000/svg">
<g clip-path="url(#clip0_81_4383)">
<path d="M54.0002 30.5446C51.0238 28.8213 48.0235 27.1396 45.0002 25.5001C41.0432 23.3566 39.7052 17.1631 38.7902 13.8946C37.8842 10.6651 34.8017 5.60556 34.5002 4.50006C34.1057 3.05256 30.0002 1.50006 22.5002 4.50006C15.0002 7.50006 10.5002 7.50006 7.50016 7.50006C4.50016 7.50006 3.00016 10.5001 1.50016 13.5001C0.00016284 16.5001 1.50016 16.5001 1.50016 16.5001C3.00016 18.0001 4.50016 13.5001 7.50016 12.0001C10.5002 10.5001 12.0002 13.5001 15.0002 12.0001C17.2397 10.8796 21.2192 12.0136 24.7322 11.5426C25.9232 11.3821 27.7397 11.2606 28.5002 10.5001C28.5002 10.5001 29.3582 20.5471 31.5002 27.0001C31.5002 27.0001 31.1867 28.6126 29.6867 33.1126C28.9367 35.3626 27.0002 35.2501 26.4377 34.3126C25.8752 33.3751 25.5002 31.5001 25.5002 30.0001C25.5002 27.0001 24.0002 22.5001 18.0002 19.5001C15.3167 18.1591 9.51316 18.4756 7.50016 22.5001C4.50016 28.5001 7.50016 34.5001 10.5002 36.0001C13.5002 37.5001 15.0002 39.0001 21.0002 39.0001C23.9147 39.0001 47.7182 39.7201 54.0002 39.5461V30.5446Z" fill="#D4AB88"/>
<path d="M31.5002 27C37.1177 30.306 49.6607 28.4895 50.6972 28.3455C51.7337 28.2015 54.0002 30.5445 54.0002 30.5445V37.9215H29.4392C29.4392 37.9215 29.9612 34.737 29.0942 33.312C30.5942 31.131 31.5002 27 31.5002 27Z" fill="#FA743E"/>
<path d="M12.273 24.6077C15.552 21.6962 20.7225 22.0757 24.3105 25.3157C23.235 23.2562 21.3015 21.1517 18 19.5002C15.3165 18.1592 9.51296 18.4757 7.49996 22.5002C4.49997 28.5002 7.49996 34.5002 10.5 36.0002C10.8585 36.1787 11.1945 36.3587 11.5215 36.5342C8.80046 32.6027 9.02397 27.4967 12.273 24.6077Z" fill="#DD551F"/>
<path d="M17.9998 27.75C17.8516 27.75 17.7067 27.706 17.5835 27.6237C17.4602 27.5414 17.3641 27.4244 17.3073 27.2875C17.2505 27.1506 17.2355 26.9999 17.2642 26.8545C17.293 26.7091 17.3642 26.5755 17.4688 26.4705C19.1698 24.7695 20.9263 24.75 20.9998 24.75C21.1988 24.75 21.3895 24.829 21.5302 24.9697C21.6708 25.1103 21.7498 25.3011 21.7498 25.5C21.7498 25.6989 21.6708 25.8897 21.5302 26.0303C21.3895 26.171 21.1988 26.25 20.9998 26.25C20.9578 26.25 19.7683 26.292 18.5308 27.531C18.3897 27.6713 18.1988 27.75 17.9998 27.75ZM11.9998 32.25C11.8516 32.25 11.7067 32.206 11.5835 32.1237C11.4602 32.0414 11.3641 31.9244 11.3073 31.7875C11.2505 31.6506 11.2355 31.4999 11.2642 31.3545C11.293 31.2091 11.3642 31.0755 11.4688 30.9705C13.1698 29.2695 14.9263 29.25 14.9998 29.25C15.1988 29.25 15.3895 29.329 15.5302 29.4697C15.6708 29.6103 15.7498 29.8011 15.7498 30C15.7498 30.1989 15.6708 30.3897 15.5302 30.5303C15.3895 30.671 15.1988 30.75 14.9998 30.75C14.9578 30.7515 13.7683 30.792 12.5308 32.031C12.3897 32.1713 12.1988 32.25 11.9998 32.25Z" fill="#B78B60"/>
<path d="M0 36H54V54H0V36Z" fill="#55ACEE"/>
<path d="M9 36.0001C13.5 33.0001 19.5 28.5001 18 31.5001C16.5 34.5001 16.4985 36.0001 19.5 34.5001C22.5 33.0001 27 31.5001 25.5 34.5001C24 37.5001 28.5 36.0001 30 34.5001C31.5 33.0001 36 34.5001 34.5 36.0001C33 37.5001 21 39.0001 16.5 39.0001C12 39.0001 9 36.0001 9 36.0001Z" fill="#55ACEE"/>
</g>
<defs>
<clipPath id="clip0_81_4383">
<rect width="54" height="54" fill="white"/>
</clipPath>
</defs>
</svg>
