<svg width="57" height="57" viewBox="0 0 57 57" fill="none" xmlns="http://www.w3.org/2000/svg">
<path d="M45.3339 48.3915C45.052 46.1337 42.8512 45.3341 41.7603 45.3341C40.3606 45.3341 37.023 47.0853 36.4165 44.4079L36.358 44.1181L20.6671 44.0991L20.5832 44.3905C19.9895 47.0948 16.6375 45.3341 15.2347 45.3341C14.1438 45.3341 11.943 46.1337 11.6611 48.3915C11.6611 48.3915 22.3724 52.2501 28.4999 52.2501C34.6321 52.2501 45.3339 48.3915 45.3339 48.3915Z" fill="#4289C1"/>
<path d="M19.2611 26.9391C19.056 26.9048 18.8462 26.9114 18.6435 26.9582C18.4409 27.0051 18.2496 27.0915 18.0803 27.2123C17.9111 27.3332 17.7673 27.4862 17.6572 27.6626C17.5471 27.8391 17.4729 28.0354 17.4387 28.2406L16.1325 36.0733C16.02 36.1414 15.9076 36.2111 15.7889 36.2871C12.999 38.0778 13.159 41.8747 11.1434 43.5957C10.8726 43.8269 9.6408 44.8086 9.23863 45.6937C8.70663 46.8622 9.58696 46.3967 9.30988 46.7941C8.66705 47.7187 8.65438 49.1342 9.10879 49.4636L9.69938 49.6219C10.5813 50.26 12.9943 47.5066 13.311 45.9771C13.786 43.6923 18.1797 40.8312 18.9935 38.6098C19.25 37.9068 19.3482 37.3637 19.2675 36.9093L21.0186 28.7631C21.1627 27.8986 20.1225 27.0816 19.2611 26.9391ZM47.6376 46.8859C47.3605 46.4885 48.3295 46.8606 47.7975 45.6921C47.3938 44.8054 46.0733 43.8253 45.8041 43.5942C43.7885 41.8731 44.0371 38.0762 41.2473 36.2855C41.1207 36.2032 40.9924 36.1235 40.8625 36.0464L39.561 28.2406C39.492 27.8266 39.2614 27.457 38.92 27.213C38.5786 26.9689 38.1542 26.8704 37.7402 26.9391C36.8773 27.0832 35.7848 27.8986 35.9273 28.7615L37.7497 37.0297C37.7054 37.4603 37.8067 37.967 38.041 38.6098C38.8533 40.8297 43.2486 43.6907 43.7236 45.9771C44.0419 47.5082 46.4549 50.2616 47.3352 49.6219L47.9258 49.4636C48.3834 49.1311 48.282 47.8106 47.6376 46.8859Z" fill="#F3D2A2"/>
<path d="M36.0317 56.7151C34.385 56.856 32.8333 56.3857 31.2817 56.7151C30.5296 56.7626 30.0118 56.7151 29.2598 56.0564C28.5077 55.3977 16.1387 53.6577 13.8808 52.1535C12.839 51.4584 11.2493 49.7152 11.6705 48.2506C12.0869 46.805 13.4739 45.988 15.1507 45.9468C18.4203 45.8661 24.6507 50.6034 29.1648 52.3435C29.9849 52.6602 30.6658 52.2612 31.7044 52.5319C32.7858 52.8137 35.373 51.6532 36.6903 51.8257C38.4779 52.0617 39.1825 52.9072 39.0416 54.3654C38.8928 55.9076 37.6783 56.5742 36.0317 56.7151Z" fill="#F3D2A2"/>
<path d="M36.032 56.7148C34.3853 56.8557 32.8336 56.3854 31.282 56.7148C30.5299 56.7623 30.0121 56.7148 29.26 56.0561C28.508 55.3974 30.6676 52.2577 31.7063 52.5284C32.7877 52.8103 35.3749 51.6497 36.6922 51.8223C38.4798 52.0582 39.1844 52.9037 39.0435 54.3619C38.8931 55.9073 37.6786 56.5738 36.032 56.7148ZM17.7271 52.5759C18.1039 51.5879 19.6081 51.1652 20.3142 51.0718C21.0204 50.9783 22.1952 51.4011 22.9948 51.7304C23.7944 52.0598 24.765 52.1009 25.3761 51.865C25.9873 51.6291 26.4338 51.6687 26.893 51.865C27.0165 51.9173 27.5627 51.865 27.7575 51.7589C27.7575 51.7589 30.5916 52.7343 29.5561 53.0636C28.5222 53.3929 20.9729 53.8933 19.939 53.8933C18.9051 53.8933 17.7271 52.5759 17.7271 52.5759Z" fill="#E2C196"/>
<path d="M11.6705 48.2503C11.68 48.2186 11.6958 48.1917 11.7053 48.1616C12.0236 49.3681 12.9087 50.79 13.9236 51.1668C15.1934 51.637 25.398 54.647 26.6678 54.7879C27.9377 54.9288 29.8187 55.1172 30.1955 55.399C30.5723 55.6809 31.5588 55.7759 32.3583 55.5875C33.1579 55.399 35.1798 56.1511 36.2153 55.9168C37.2493 55.6825 38.755 55.2122 39.0368 53.9424C39.0416 53.9186 39.0479 53.9075 39.0543 53.8885C39.0606 54.0405 39.059 54.1973 39.0432 54.3667C38.8943 55.9105 37.6799 56.577 36.0333 56.718C34.3866 56.8589 32.8349 56.3886 31.2833 56.718C30.5312 56.7655 30.0134 56.718 29.2613 56.0593C28.5093 55.4006 16.1403 53.6605 13.8824 52.1564C12.839 51.4581 11.2493 49.7133 11.6705 48.2503Z" fill="#E2C196"/>
<path d="M20.9683 56.7151C22.615 56.856 24.1666 56.3857 25.7183 56.7151C26.4704 56.7626 26.9881 56.7151 27.7402 56.0564C28.4923 55.3977 40.8613 53.6577 43.1191 52.1535C44.161 51.4584 45.7506 49.7152 45.3295 48.2506C44.9131 46.805 43.5261 45.988 41.8493 45.9468C38.5797 45.8661 32.3493 50.6034 27.8352 52.3435C27.0151 52.6602 26.3342 52.2612 25.2956 52.5319C24.2141 52.8137 21.627 51.6532 20.3096 51.8257C18.5221 52.0617 17.8175 52.9072 17.9584 54.3654C18.1072 55.9076 19.3216 56.5742 20.9683 56.7151Z" fill="#F3D2A2"/>
<path d="M30.0832 5.48463e-06C28.1584 -0.00206845 26.279 0.584076 24.6967 1.67992C24.3863 1.63242 24.0744 1.58334 23.7498 1.58334C22.0701 1.58334 20.4592 2.2506 19.2715 3.43833C18.0838 4.62606 17.4165 6.23697 17.4165 7.91667V14.25C17.4165 15.7055 17.7032 17.1467 18.2602 18.4914C18.8172 19.8361 19.6336 21.0579 20.6627 22.0871C21.6919 23.1163 22.9137 23.9327 24.2584 24.4897C25.6031 25.0467 27.0444 25.3333 28.4998 25.3333C29.9553 25.3333 31.3966 25.0467 32.7412 24.4897C34.0859 23.9327 35.3078 23.1163 36.3369 22.0871C37.3661 21.0579 38.1825 19.8361 38.7395 18.4914C39.2965 17.1467 39.5832 15.7055 39.5832 14.25V9.50159C39.5834 8.2539 39.3378 7.01839 38.8605 5.86561C38.3832 4.71283 37.6834 3.66538 36.8012 2.78305C35.9191 1.90073 34.8717 1.20082 33.719 0.723301C32.5663 0.245783 31.3309 5.4673e-06 30.0832 5.48463e-06Z" fill="#FFE51E"/>
<path d="M35.693 23.75H21.3021C17.2456 23.75 16.6914 30.0833 16.6914 30.0833L20.5832 31.084C20.5832 31.084 21.3021 34.846 21.3021 37.9509C21.3021 41.0558 20.5832 44.3333 20.5832 44.3333C20.5832 44.3333 23.799 44.8638 28.4999 44.8638C33.2008 44.8638 36.4166 44.3333 36.4166 44.3333C36.4166 44.3333 35.6455 41.0543 35.6455 37.9034C35.6455 34.7526 36.4166 31.084 36.4166 31.084L40.3084 30.0833C40.3084 30.0833 39.7495 23.75 35.693 23.75Z" fill="#9268CA"/>
<path d="M25.3335 17.4165V23.7498C25.3335 24.5897 25.6671 25.3951 26.261 25.989C26.8549 26.5829 27.6603 26.9165 28.5002 26.9165C29.34 26.9165 30.1455 26.5829 30.7393 25.989C31.3332 25.3951 31.6668 24.5897 31.6668 23.7498V17.4165H25.3335Z" fill="#F3D2A2"/>
<path d="M31.6668 17.4165L25.3335 17.4466V23.7498C25.3335 23.7498 28.5002 25.3332 31.6668 23.7498V17.4165Z" fill="#E2C196"/>
<path d="M25.3335 4.75C25.3335 4.75 25.3161 9.95125 20.5835 10.9155V14.25C20.5835 18.6232 24.127 22.1667 28.5002 22.1667C32.8733 22.1667 36.4168 18.6247 36.4168 14.25V11.0327C25.3636 10.5197 25.3335 4.75 25.3335 4.75Z" fill="#F3D2A2"/>
<path d="M31.6668 19H25.3335C25.3335 19 25.3335 20.5833 28.5002 20.5833C31.6668 20.5833 31.6668 19 31.6668 19Z" fill="#DF1F32"/>
<path d="M25.7293 13.8542H23.3543C23.1374 13.8542 22.9585 13.6752 22.9585 13.4583C22.9585 13.2414 23.1374 13.0625 23.3543 13.0625H25.7293C25.9478 13.0625 26.1252 13.2414 26.1252 13.4583C26.1252 13.6752 25.9478 13.8542 25.7293 13.8542ZM33.646 13.8542H31.271C31.0525 13.8542 30.8752 13.6752 30.8752 13.4583C30.8752 13.2414 31.0525 13.0625 31.271 13.0625H33.646C33.8645 13.0625 34.0418 13.2414 34.0418 13.4583C34.0418 13.6752 33.8645 13.8542 33.646 13.8542ZM26.9168 15.8333H30.0835C30.0835 15.8333 30.0835 17.4167 28.5002 17.4167C26.9168 17.4167 26.9168 15.8333 26.9168 15.8333Z" fill="#C1694F"/>
</svg>
