<svg width="59" height="103" viewBox="0 0 59 103" fill="none" xmlns="http://www.w3.org/2000/svg">
<path d="M7.62504 62.654C8.08704 62.654 8.49771 62.753 8.85704 62.951C9.22371 63.149 9.50971 63.4423 9.71504 63.831C9.92771 64.2196 10.034 64.689 10.034 65.239V68.814H8.79104V65.426C8.79104 64.8833 8.65537 64.469 8.38404 64.183C8.11271 63.8896 7.74237 63.743 7.27304 63.743C6.80371 63.743 6.42971 63.8896 6.15104 64.183C5.87971 64.469 5.74404 64.8833 5.74404 65.426V68.814H4.49004V60.674H5.74404V63.457C5.95671 63.2003 6.22437 63.0023 6.54704 62.863C6.87704 62.7236 7.23637 62.654 7.62504 62.654ZM14.2626 68.913C13.6906 68.913 13.1736 68.7846 12.7116 68.528C12.2496 68.264 11.8866 67.8973 11.6226 67.428C11.3586 66.9513 11.2266 66.4013 11.2266 65.778C11.2266 65.162 11.3623 64.6156 11.6336 64.139C11.9049 63.6623 12.2753 63.2956 12.7446 63.039C13.2139 62.7823 13.7383 62.654 14.3176 62.654C14.8969 62.654 15.4213 62.7823 15.8906 63.039C16.3599 63.2956 16.7303 63.6623 17.0016 64.139C17.2729 64.6156 17.4086 65.162 17.4086 65.778C17.4086 66.394 17.2693 66.9403 16.9906 67.417C16.7119 67.8936 16.3306 68.264 15.8466 68.528C15.3699 68.7846 14.8419 68.913 14.2626 68.913ZM14.2626 67.824C14.5853 67.824 14.8859 67.747 15.1646 67.593C15.4506 67.439 15.6816 67.208 15.8576 66.9C16.0336 66.592 16.1216 66.218 16.1216 65.778C16.1216 65.338 16.0373 64.9676 15.8686 64.667C15.6999 64.359 15.4763 64.128 15.1976 63.974C14.9189 63.82 14.6183 63.743 14.2956 63.743C13.9729 63.743 13.6723 63.82 13.3936 63.974C13.1223 64.128 12.9059 64.359 12.7446 64.667C12.5833 64.9676 12.5026 65.338 12.5026 65.778C12.5026 66.4306 12.6676 66.9366 12.9976 67.296C13.3349 67.648 13.7566 67.824 14.2626 67.824ZM19.9022 63.633C20.0856 63.325 20.3276 63.0866 20.6282 62.918C20.9362 62.742 21.2992 62.654 21.7172 62.654V63.952H21.3982C20.9069 63.952 20.5329 64.0766 20.2762 64.326C20.0269 64.5753 19.9022 65.008 19.9022 65.624V68.814H18.6482V62.753H19.9022V63.633ZM22.4519 65.756C22.4519 65.1473 22.5766 64.6083 22.8259 64.139C23.0826 63.6696 23.4273 63.3066 23.8599 63.05C24.2999 62.786 24.7839 62.654 25.3119 62.654C25.7886 62.654 26.2029 62.7493 26.5549 62.94C26.9143 63.1233 27.2003 63.3543 27.4129 63.633V62.753H28.6779V68.814H27.4129V67.912C27.2003 68.198 26.9106 68.4363 26.5439 68.627C26.1773 68.8176 25.7593 68.913 25.2899 68.913C24.7693 68.913 24.2926 68.781 23.8599 68.517C23.4273 68.2456 23.0826 67.8716 22.8259 67.395C22.5766 66.911 22.4519 66.3646 22.4519 65.756ZM27.4129 65.778C27.4129 65.36 27.3249 64.997 27.1489 64.689C26.9803 64.381 26.7566 64.1463 26.4779 63.985C26.1993 63.8236 25.8986 63.743 25.5759 63.743C25.2533 63.743 24.9526 63.8236 24.6739 63.985C24.3953 64.139 24.1679 64.37 23.9919 64.678C23.8233 64.9786 23.7389 65.338 23.7389 65.756C23.7389 66.174 23.8233 66.5406 23.9919 66.856C24.1679 67.1713 24.3953 67.4133 24.6739 67.582C24.9599 67.7433 25.2606 67.824 25.5759 67.824C25.8986 67.824 26.1993 67.7433 26.4779 67.582C26.7566 67.4206 26.9803 67.186 27.1489 66.878C27.3249 66.5626 27.4129 66.196 27.4129 65.778ZM32.525 68.913C32.0483 68.913 31.6193 68.8286 31.238 68.66C30.864 68.484 30.567 68.2493 30.347 67.956C30.127 67.6553 30.0097 67.3216 29.995 66.955H31.293C31.315 67.2116 31.436 67.428 31.656 67.604C31.8833 67.7726 32.1657 67.857 32.503 67.857C32.855 67.857 33.1263 67.791 33.317 67.659C33.515 67.5196 33.614 67.3436 33.614 67.131C33.614 66.9036 33.504 66.735 33.284 66.625C33.0713 66.515 32.7303 66.394 32.261 66.262C31.8063 66.1373 31.436 66.0163 31.15 65.899C30.864 65.7816 30.6147 65.602 30.402 65.36C30.1967 65.118 30.094 64.799 30.094 64.403C30.094 64.0803 30.1893 63.787 30.38 63.523C30.5707 63.2516 30.842 63.039 31.194 62.885C31.5533 62.731 31.964 62.654 32.426 62.654C33.1153 62.654 33.669 62.83 34.087 63.182C34.5123 63.5266 34.7397 63.9996 34.769 64.601H33.515C33.493 64.3296 33.383 64.1133 33.185 63.952C32.987 63.7906 32.7193 63.71 32.382 63.71C32.052 63.71 31.799 63.7723 31.623 63.897C31.447 64.0216 31.359 64.1866 31.359 64.392C31.359 64.5533 31.4177 64.689 31.535 64.799C31.6523 64.909 31.7953 64.997 31.964 65.063C32.1327 65.1216 32.382 65.1986 32.712 65.294C33.152 65.4113 33.5113 65.5323 33.79 65.657C34.076 65.7743 34.3217 65.9503 34.527 66.185C34.7323 66.4196 34.8387 66.7313 34.846 67.12C34.846 67.4646 34.7507 67.7726 34.56 68.044C34.3693 68.3153 34.098 68.528 33.746 68.682C33.4013 68.836 32.9943 68.913 32.525 68.913ZM38.6404 65.756C38.6404 65.1473 38.7651 64.6083 39.0144 64.139C39.2711 63.6696 39.6157 63.3066 40.0484 63.05C40.4884 62.786 40.9761 62.654 41.5114 62.654C41.9074 62.654 42.2961 62.742 42.6774 62.918C43.0661 63.0866 43.3741 63.314 43.6014 63.6V60.674H44.8664V68.814H43.6014V67.901C43.3961 68.1943 43.1101 68.4363 42.7434 68.627C42.3841 68.8176 41.9697 68.913 41.5004 68.913C40.9724 68.913 40.4884 68.781 40.0484 68.517C39.6157 68.2456 39.2711 67.8716 39.0144 67.395C38.7651 66.911 38.6404 66.3646 38.6404 65.756ZM43.6014 65.778C43.6014 65.36 43.5134 64.997 43.3374 64.689C43.1687 64.381 42.9451 64.1463 42.6664 63.985C42.3877 63.8236 42.0871 63.743 41.7644 63.743C41.4417 63.743 41.1411 63.8236 40.8624 63.985C40.5837 64.139 40.3564 64.37 40.1804 64.678C40.0117 64.9786 39.9274 65.338 39.9274 65.756C39.9274 66.174 40.0117 66.5406 40.1804 66.856C40.3564 67.1713 40.5837 67.4133 40.8624 67.582C41.1484 67.7433 41.4491 67.824 41.7644 67.824C42.0871 67.824 42.3877 67.7433 42.6664 67.582C42.9451 67.4206 43.1687 67.186 43.3374 66.878C43.5134 66.5626 43.6014 66.196 43.6014 65.778ZM52.0685 65.635C52.0685 65.8623 52.0538 66.0676 52.0245 66.251H47.3935C47.4301 66.735 47.6098 67.1236 47.9325 67.417C48.2551 67.7103 48.6511 67.857 49.1205 67.857C49.7951 67.857 50.2718 67.5746 50.5505 67.01H51.9035C51.7201 67.5673 51.3865 68.0256 50.9025 68.385C50.4258 68.737 49.8318 68.913 49.1205 68.913C48.5411 68.913 48.0205 68.7846 47.5585 68.528C47.1038 68.264 46.7445 67.8973 46.4805 67.428C46.2238 66.9513 46.0955 66.4013 46.0955 65.778C46.0955 65.1546 46.2201 64.6083 46.4695 64.139C46.7261 63.6623 47.0818 63.2956 47.5365 63.039C47.9985 62.7823 48.5265 62.654 49.1205 62.654C49.6925 62.654 50.2021 62.7786 50.6495 63.028C51.0968 63.2773 51.4451 63.6293 51.6945 64.084C51.9438 64.5313 52.0685 65.0483 52.0685 65.635ZM50.7595 65.239C50.7521 64.777 50.5871 64.4066 50.2645 64.128C49.9418 63.8493 49.5421 63.71 49.0655 63.71C48.6328 63.71 48.2625 63.8493 47.9545 64.128C47.6465 64.3993 47.4631 64.7696 47.4045 65.239H50.7595ZM3.48659 82.756C3.48659 82.1473 3.61126 81.6083 3.86059 81.139C4.11726 80.6696 4.46192 80.3066 4.89459 80.05C5.33459 79.786 5.81859 79.654 6.34659 79.654C6.82326 79.654 7.23759 79.7493 7.58959 79.94C7.94892 80.1233 8.23492 80.3543 8.44759 80.633V79.753H9.71259V85.814H8.44759V84.912C8.23492 85.198 7.94526 85.4363 7.57859 85.627C7.21192 85.8176 6.79392 85.913 6.32459 85.913C5.80392 85.913 5.32726 85.781 4.89459 85.517C4.46192 85.2456 4.11726 84.8716 3.86059 84.395C3.61126 83.911 3.48659 83.3646 3.48659 82.756ZM8.44759 82.778C8.44759 82.36 8.35959 81.997 8.18359 81.689C8.01492 81.381 7.79126 81.1463 7.51259 80.985C7.23392 80.8236 6.93326 80.743 6.61059 80.743C6.28792 80.743 5.98726 80.8236 5.70859 80.985C5.42992 81.139 5.20259 81.37 5.02659 81.678C4.85792 81.9786 4.77359 82.338 4.77359 82.756C4.77359 83.174 4.85792 83.5406 5.02659 83.856C5.20259 84.1713 5.42992 84.4133 5.70859 84.582C5.99459 84.7433 6.29526 84.824 6.61059 84.824C6.93326 84.824 7.23392 84.7433 7.51259 84.582C7.79126 84.4206 8.01492 84.186 8.18359 83.878C8.35959 83.5626 8.44759 83.196 8.44759 82.778ZM12.8227 80.776V84.131C12.8227 84.3583 12.874 84.5233 12.9767 84.626C13.0867 84.7213 13.27 84.769 13.5267 84.769H14.2967V85.814H13.3067C12.742 85.814 12.3093 85.682 12.0087 85.418C11.708 85.154 11.5577 84.725 11.5577 84.131V80.776H10.8427V79.753H11.5577V78.246H12.8227V79.753H14.2967V80.776H12.8227ZM16.0904 78.95C15.8631 78.95 15.6724 78.873 15.5184 78.719C15.3644 78.565 15.2874 78.3743 15.2874 78.147C15.2874 77.9196 15.3644 77.729 15.5184 77.575C15.6724 77.421 15.8631 77.344 16.0904 77.344C16.3104 77.344 16.4974 77.421 16.6514 77.575C16.8054 77.729 16.8824 77.9196 16.8824 78.147C16.8824 78.3743 16.8054 78.565 16.6514 78.719C16.4974 78.873 16.3104 78.95 16.0904 78.95ZM16.7064 79.753V85.814H15.4524V79.753H16.7064ZM20.6958 84.692L22.4118 79.753H23.7428L21.4328 85.814H19.9368L17.6378 79.753H18.9798L20.6958 84.692ZM25.3287 78.95C25.1014 78.95 24.9107 78.873 24.7567 78.719C24.6027 78.565 24.5257 78.3743 24.5257 78.147C24.5257 77.9196 24.6027 77.729 24.7567 77.575C24.9107 77.421 25.1014 77.344 25.3287 77.344C25.5487 77.344 25.7357 77.421 25.8897 77.575C26.0437 77.729 26.1207 77.9196 26.1207 78.147C26.1207 78.3743 26.0437 78.565 25.8897 78.719C25.7357 78.873 25.5487 78.95 25.3287 78.95ZM25.9447 79.753V85.814H24.6907V79.753H25.9447ZM27.1731 82.756C27.1731 82.1473 27.2978 81.6083 27.5471 81.139C27.8038 80.6696 28.1484 80.3066 28.5811 80.05C29.0211 79.786 29.5088 79.654 30.0441 79.654C30.4401 79.654 30.8288 79.742 31.2101 79.918C31.5988 80.0866 31.9068 80.314 32.1341 80.6V77.674H33.3991V85.814H32.1341V84.901C31.9288 85.1943 31.6428 85.4363 31.2761 85.627C30.9168 85.8176 30.5024 85.913 30.0331 85.913C29.5051 85.913 29.0211 85.781 28.5811 85.517C28.1484 85.2456 27.8038 84.8716 27.5471 84.395C27.2978 83.911 27.1731 83.3646 27.1731 82.756ZM32.1341 82.778C32.1341 82.36 32.0461 81.997 31.8701 81.689C31.7014 81.381 31.4778 81.1463 31.1991 80.985C30.9204 80.8236 30.6198 80.743 30.2971 80.743C29.9744 80.743 29.6738 80.8236 29.3951 80.985C29.1164 81.139 28.8891 81.37 28.7131 81.678C28.5444 81.9786 28.4601 82.338 28.4601 82.756C28.4601 83.174 28.5444 83.5406 28.7131 83.856C28.8891 84.1713 29.1164 84.4133 29.3951 84.582C29.6811 84.7433 29.9818 84.824 30.2971 84.824C30.6198 84.824 30.9204 84.7433 31.1991 84.582C31.4778 84.4206 31.7014 84.186 31.8701 83.878C32.0461 83.5626 32.1341 83.196 32.1341 82.778ZM34.6282 82.756C34.6282 82.1473 34.7529 81.6083 35.0022 81.139C35.2589 80.6696 35.6035 80.3066 36.0362 80.05C36.4762 79.786 36.9602 79.654 37.4882 79.654C37.9649 79.654 38.3792 79.7493 38.7312 79.94C39.0905 80.1233 39.3765 80.3543 39.5892 80.633V79.753H40.8542V85.814H39.5892V84.912C39.3765 85.198 39.0869 85.4363 38.7202 85.627C38.3535 85.8176 37.9355 85.913 37.4662 85.913C36.9455 85.913 36.4689 85.781 36.0362 85.517C35.6035 85.2456 35.2589 84.8716 35.0022 84.395C34.7529 83.911 34.6282 83.3646 34.6282 82.756ZM39.5892 82.778C39.5892 82.36 39.5012 81.997 39.3252 81.689C39.1565 81.381 38.9329 81.1463 38.6542 80.985C38.3755 80.8236 38.0749 80.743 37.7522 80.743C37.4295 80.743 37.1289 80.8236 36.8502 80.985C36.5715 81.139 36.3442 81.37 36.1682 81.678C35.9995 81.9786 35.9152 82.338 35.9152 82.756C35.9152 83.174 35.9995 83.5406 36.1682 83.856C36.3442 84.1713 36.5715 84.4133 36.8502 84.582C37.1362 84.7433 37.4369 84.824 37.7522 84.824C38.0749 84.824 38.3755 84.7433 38.6542 84.582C38.9329 84.4206 39.1565 84.186 39.3252 83.878C39.5012 83.5626 39.5892 83.196 39.5892 82.778ZM42.0833 82.756C42.0833 82.1473 42.2079 81.6083 42.4573 81.139C42.7139 80.6696 43.0586 80.3066 43.4913 80.05C43.9313 79.786 44.4189 79.654 44.9543 79.654C45.3503 79.654 45.7389 79.742 46.1203 79.918C46.5089 80.0866 46.8169 80.314 47.0443 80.6V77.674H48.3093V85.814H47.0443V84.901C46.8389 85.1943 46.5529 85.4363 46.1863 85.627C45.8269 85.8176 45.4126 85.913 44.9433 85.913C44.4153 85.913 43.9313 85.781 43.4913 85.517C43.0586 85.2456 42.7139 84.8716 42.4573 84.395C42.2079 83.911 42.0833 83.3646 42.0833 82.756ZM47.0443 82.778C47.0443 82.36 46.9563 81.997 46.7803 81.689C46.6116 81.381 46.3879 81.1463 46.1093 80.985C45.8306 80.8236 45.5299 80.743 45.2073 80.743C44.8846 80.743 44.5839 80.8236 44.3053 80.985C44.0266 81.139 43.7993 81.37 43.6233 81.678C43.4546 81.9786 43.3703 82.338 43.3703 82.756C43.3703 83.174 43.4546 83.5406 43.6233 83.856C43.7993 84.1713 44.0266 84.4133 44.3053 84.582C44.5913 84.7433 44.8919 84.824 45.2073 84.824C45.5299 84.824 45.8306 84.7433 46.1093 84.582C46.3879 84.4206 46.6116 84.186 46.7803 83.878C46.9563 83.5626 47.0443 83.196 47.0443 82.778ZM55.5113 82.635C55.5113 82.8623 55.4967 83.0676 55.4673 83.251H50.8363C50.873 83.735 51.0527 84.1236 51.3753 84.417C51.698 84.7103 52.094 84.857 52.5633 84.857C53.238 84.857 53.7147 84.5746 53.9933 84.01H55.3463C55.163 84.5673 54.8293 85.0256 54.3453 85.385C53.8687 85.737 53.2747 85.913 52.5633 85.913C51.984 85.913 51.4633 85.7846 51.0013 85.528C50.5467 85.264 50.1873 84.8973 49.9233 84.428C49.6667 83.9513 49.5383 83.4013 49.5383 82.778C49.5383 82.1546 49.663 81.6083 49.9123 81.139C50.169 80.6623 50.5247 80.2956 50.9793 80.039C51.4413 79.7823 51.9693 79.654 52.5633 79.654C53.1353 79.654 53.645 79.7786 54.0923 80.028C54.5397 80.2773 54.888 80.6293 55.1373 81.084C55.3867 81.5313 55.5113 82.0483 55.5113 82.635ZM54.2023 82.239C54.195 81.777 54.03 81.4066 53.7073 81.128C53.3847 80.8493 52.985 80.71 52.5083 80.71C52.0757 80.71 51.7053 80.8493 51.3973 81.128C51.0893 81.3993 50.906 81.7696 50.8473 82.239H54.2023ZM19.0102 97.776V101.131C19.0102 101.358 19.0615 101.523 19.1642 101.626C19.2742 101.721 19.4575 101.769 19.7142 101.769H20.4842V102.814H19.4942C18.9295 102.814 18.4968 102.682 18.1962 102.418C17.8955 102.154 17.7452 101.725 17.7452 101.131V97.776H17.0302V96.753H17.7452V95.246H19.0102V96.753H20.4842V97.776H19.0102ZM24.2689 102.913C23.6969 102.913 23.1799 102.785 22.7179 102.528C22.2559 102.264 21.8929 101.897 21.6289 101.428C21.3649 100.951 21.2329 100.401 21.2329 99.778C21.2329 99.162 21.3686 98.6156 21.6399 98.139C21.9113 97.6623 22.2816 97.2956 22.7509 97.039C23.2203 96.7823 23.7446 96.654 24.3239 96.654C24.9033 96.654 25.4276 96.7823 25.8969 97.039C26.3663 97.2956 26.7366 97.6623 27.0079 98.139C27.2793 98.6156 27.4149 99.162 27.4149 99.778C27.4149 100.394 27.2756 100.94 26.9969 101.417C26.7183 101.894 26.3369 102.264 25.8529 102.528C25.3763 102.785 24.8483 102.913 24.2689 102.913ZM24.2689 101.824C24.5916 101.824 24.8923 101.747 25.1709 101.593C25.4569 101.439 25.6879 101.208 25.8639 100.9C26.0399 100.592 26.1279 100.218 26.1279 99.778C26.1279 99.338 26.0436 98.9676 25.8749 98.667C25.7063 98.359 25.4826 98.128 25.2039 97.974C24.9253 97.82 24.6246 97.743 24.3019 97.743C23.9793 97.743 23.6786 97.82 23.3999 97.974C23.1286 98.128 22.9123 98.359 22.7509 98.667C22.5896 98.9676 22.5089 99.338 22.5089 99.778C22.5089 100.431 22.6739 100.937 23.0039 101.296C23.3413 101.648 23.7629 101.824 24.2689 101.824ZM30.1176 97.776V101.131C30.1176 101.358 30.1689 101.523 30.2716 101.626C30.3816 101.721 30.5649 101.769 30.8216 101.769H31.5916V102.814H30.6016C30.0369 102.814 29.6043 102.682 29.3036 102.418C29.0029 102.154 28.8526 101.725 28.8526 101.131V97.776H28.1376V96.753H28.8526V95.246H30.1176V96.753H31.5916V97.776H30.1176ZM32.3294 99.756C32.3294 99.1473 32.454 98.6083 32.7034 98.139C32.96 97.6696 33.3047 97.3066 33.7374 97.05C34.1774 96.786 34.6614 96.654 35.1894 96.654C35.666 96.654 36.0804 96.7493 36.4324 96.94C36.7917 97.1233 37.0777 97.3543 37.2904 97.633V96.753H38.5554V102.814H37.2904V101.912C37.0777 102.198 36.788 102.436 36.4214 102.627C36.0547 102.818 35.6367 102.913 35.1674 102.913C34.6467 102.913 34.17 102.781 33.7374 102.517C33.3047 102.246 32.96 101.872 32.7034 101.395C32.454 100.911 32.3294 100.365 32.3294 99.756ZM37.2904 99.778C37.2904 99.36 37.2024 98.997 37.0264 98.689C36.8577 98.381 36.634 98.1463 36.3554 97.985C36.0767 97.8236 35.776 97.743 35.4534 97.743C35.1307 97.743 34.83 97.8236 34.5514 97.985C34.2727 98.139 34.0454 98.37 33.8694 98.678C33.7007 98.9786 33.6164 99.338 33.6164 99.756C33.6164 100.174 33.7007 100.541 33.8694 100.856C34.0454 101.171 34.2727 101.413 34.5514 101.582C34.8374 101.743 35.138 101.824 35.4534 101.824C35.776 101.824 36.0767 101.743 36.3554 101.582C36.634 101.421 36.8577 101.186 37.0264 100.878C37.2024 100.563 37.2904 100.196 37.2904 99.778ZM41.4564 94.674V102.814H40.2024V94.674H41.4564Z" fill="white"/>
<path d="M3 21.1333H8.97333V51H3V21.1333ZM12.375 21.1333H30.295V27.1067H18.3483V51H12.375V21.1333ZM30.295 51H12.375V45.0267H24.3217V21.1333H30.295V51ZM33.6875 21.1333H51.6075V27.1067H39.6608V51H33.6875V21.1333ZM51.6075 51H33.6875V45.0267H45.6342V21.1333H51.6075V51Z" fill="black"/>
</svg>
