<svg width="99" height="103" viewBox="0 0 99 103" fill="none" xmlns="http://www.w3.org/2000/svg">
<path d="M29.625 62.654C30.087 62.654 30.4977 62.753 30.857 62.951C31.2237 63.149 31.5097 63.4423 31.715 63.831C31.9277 64.2196 32.034 64.689 32.034 65.239V68.814H30.791V65.426C30.791 64.8833 30.6554 64.469 30.384 64.183C30.1127 63.8896 29.7424 63.743 29.273 63.743C28.8037 63.743 28.4297 63.8896 28.151 64.183C27.8797 64.469 27.744 64.8833 27.744 65.426V68.814H26.49V60.674H27.744V63.457C27.9567 63.2003 28.2244 63.0023 28.547 62.863C28.877 62.7236 29.2364 62.654 29.625 62.654ZM36.2626 68.913C35.6906 68.913 35.1736 68.7846 34.7116 68.528C34.2496 68.264 33.8866 67.8973 33.6226 67.428C33.3586 66.9513 33.2266 66.4013 33.2266 65.778C33.2266 65.162 33.3623 64.6156 33.6336 64.139C33.9049 63.6623 34.2753 63.2956 34.7446 63.039C35.2139 62.7823 35.7383 62.654 36.3176 62.654C36.8969 62.654 37.4213 62.7823 37.8906 63.039C38.3599 63.2956 38.7303 63.6623 39.0016 64.139C39.2729 64.6156 39.4086 65.162 39.4086 65.778C39.4086 66.394 39.2693 66.9403 38.9906 67.417C38.7119 67.8936 38.3306 68.264 37.8466 68.528C37.3699 68.7846 36.8419 68.913 36.2626 68.913ZM36.2626 67.824C36.5853 67.824 36.8859 67.747 37.1646 67.593C37.4506 67.439 37.6816 67.208 37.8576 66.9C38.0336 66.592 38.1216 66.218 38.1216 65.778C38.1216 65.338 38.0373 64.9676 37.8686 64.667C37.6999 64.359 37.4763 64.128 37.1976 63.974C36.9189 63.82 36.6183 63.743 36.2956 63.743C35.9729 63.743 35.6723 63.82 35.3936 63.974C35.1223 64.128 34.9059 64.359 34.7446 64.667C34.5833 64.9676 34.5026 65.338 34.5026 65.778C34.5026 66.4306 34.6676 66.9366 34.9976 67.296C35.3349 67.648 35.7566 67.824 36.2626 67.824ZM41.9022 63.633C42.0856 63.325 42.3276 63.0866 42.6282 62.918C42.9362 62.742 43.2992 62.654 43.7172 62.654V63.952H43.3982C42.9069 63.952 42.5329 64.0766 42.2762 64.326C42.0269 64.5753 41.9022 65.008 41.9022 65.624V68.814H40.6482V62.753H41.9022V63.633ZM44.4519 65.756C44.4519 65.1473 44.5766 64.6083 44.8259 64.139C45.0826 63.6696 45.4273 63.3066 45.8599 63.05C46.2999 62.786 46.7839 62.654 47.3119 62.654C47.7886 62.654 48.2029 62.7493 48.5549 62.94C48.9143 63.1233 49.2003 63.3543 49.4129 63.633V62.753H50.6779V68.814H49.4129V67.912C49.2003 68.198 48.9106 68.4363 48.5439 68.627C48.1773 68.8176 47.7593 68.913 47.2899 68.913C46.7693 68.913 46.2926 68.781 45.8599 68.517C45.4273 68.2456 45.0826 67.8716 44.8259 67.395C44.5766 66.911 44.4519 66.3646 44.4519 65.756ZM49.4129 65.778C49.4129 65.36 49.3249 64.997 49.1489 64.689C48.9803 64.381 48.7566 64.1463 48.4779 63.985C48.1993 63.8236 47.8986 63.743 47.5759 63.743C47.2533 63.743 46.9526 63.8236 46.6739 63.985C46.3953 64.139 46.1679 64.37 45.9919 64.678C45.8233 64.9786 45.7389 65.338 45.7389 65.756C45.7389 66.174 45.8233 66.5406 45.9919 66.856C46.1679 67.1713 46.3953 67.4133 46.6739 67.582C46.9599 67.7433 47.2606 67.824 47.5759 67.824C47.8986 67.824 48.1993 67.7433 48.4779 67.582C48.7566 67.4206 48.9803 67.186 49.1489 66.878C49.3249 66.5626 49.4129 66.196 49.4129 65.778ZM54.525 68.913C54.0483 68.913 53.6193 68.8286 53.238 68.66C52.864 68.484 52.567 68.2493 52.347 67.956C52.127 67.6553 52.0097 67.3216 51.995 66.955H53.293C53.315 67.2116 53.436 67.428 53.656 67.604C53.8833 67.7726 54.1657 67.857 54.503 67.857C54.855 67.857 55.1263 67.791 55.317 67.659C55.515 67.5196 55.614 67.3436 55.614 67.131C55.614 66.9036 55.504 66.735 55.284 66.625C55.0713 66.515 54.7303 66.394 54.261 66.262C53.8063 66.1373 53.436 66.0163 53.15 65.899C52.864 65.7816 52.6147 65.602 52.402 65.36C52.1967 65.118 52.094 64.799 52.094 64.403C52.094 64.0803 52.1893 63.787 52.38 63.523C52.5707 63.2516 52.842 63.039 53.194 62.885C53.5533 62.731 53.964 62.654 54.426 62.654C55.1153 62.654 55.669 62.83 56.087 63.182C56.5123 63.5266 56.7397 63.9996 56.769 64.601H55.515C55.493 64.3296 55.383 64.1133 55.185 63.952C54.987 63.7906 54.7193 63.71 54.382 63.71C54.052 63.71 53.799 63.7723 53.623 63.897C53.447 64.0216 53.359 64.1866 53.359 64.392C53.359 64.5533 53.4177 64.689 53.535 64.799C53.6523 64.909 53.7953 64.997 53.964 65.063C54.1327 65.1216 54.382 65.1986 54.712 65.294C55.152 65.4113 55.5113 65.5323 55.79 65.657C56.076 65.7743 56.3217 65.9503 56.527 66.185C56.7323 66.4196 56.8387 66.7313 56.846 67.12C56.846 67.4646 56.7507 67.7726 56.56 68.044C56.3693 68.3153 56.098 68.528 55.746 68.682C55.4013 68.836 54.9943 68.913 54.525 68.913ZM60.6404 65.756C60.6404 65.1473 60.7651 64.6083 61.0144 64.139C61.2711 63.6696 61.6157 63.3066 62.0484 63.05C62.4884 62.786 62.9761 62.654 63.5114 62.654C63.9074 62.654 64.2961 62.742 64.6774 62.918C65.0661 63.0866 65.3741 63.314 65.6014 63.6V60.674H66.8664V68.814H65.6014V67.901C65.3961 68.1943 65.1101 68.4363 64.7434 68.627C64.3841 68.8176 63.9697 68.913 63.5004 68.913C62.9724 68.913 62.4884 68.781 62.0484 68.517C61.6157 68.2456 61.2711 67.8716 61.0144 67.395C60.7651 66.911 60.6404 66.3646 60.6404 65.756ZM65.6014 65.778C65.6014 65.36 65.5134 64.997 65.3374 64.689C65.1687 64.381 64.9451 64.1463 64.6664 63.985C64.3877 63.8236 64.0871 63.743 63.7644 63.743C63.4417 63.743 63.1411 63.8236 62.8624 63.985C62.5837 64.139 62.3564 64.37 62.1804 64.678C62.0117 64.9786 61.9274 65.338 61.9274 65.756C61.9274 66.174 62.0117 66.5406 62.1804 66.856C62.3564 67.1713 62.5837 67.4133 62.8624 67.582C63.1484 67.7433 63.4491 67.824 63.7644 67.824C64.0871 67.824 64.3877 67.7433 64.6664 67.582C64.9451 67.4206 65.1687 67.186 65.3374 66.878C65.5134 66.5626 65.6014 66.196 65.6014 65.778ZM74.0685 65.635C74.0685 65.8623 74.0538 66.0676 74.0245 66.251H69.3935C69.4301 66.735 69.6098 67.1236 69.9325 67.417C70.2551 67.7103 70.6511 67.857 71.1205 67.857C71.7951 67.857 72.2718 67.5746 72.5505 67.01H73.9035C73.7201 67.5673 73.3865 68.0256 72.9025 68.385C72.4258 68.737 71.8318 68.913 71.1205 68.913C70.5411 68.913 70.0205 68.7846 69.5585 68.528C69.1038 68.264 68.7445 67.8973 68.4805 67.428C68.2238 66.9513 68.0955 66.4013 68.0955 65.778C68.0955 65.1546 68.2201 64.6083 68.4695 64.139C68.7261 63.6623 69.0818 63.2956 69.5365 63.039C69.9985 62.7823 70.5265 62.654 71.1205 62.654C71.6925 62.654 72.2021 62.7786 72.6495 63.028C73.0968 63.2773 73.4451 63.6293 73.6945 64.084C73.9438 64.5313 74.0685 65.0483 74.0685 65.635ZM72.7595 65.239C72.7521 64.777 72.5871 64.4066 72.2645 64.128C71.9418 63.8493 71.5421 63.71 71.0655 63.71C70.6328 63.71 70.2625 63.8493 69.9545 64.128C69.6465 64.3993 69.4631 64.7696 69.4045 65.239H72.7595ZM25.4866 82.756C25.4866 82.1473 25.6113 81.6083 25.8606 81.139C26.1173 80.6696 26.4619 80.3066 26.8946 80.05C27.3346 79.786 27.8186 79.654 28.3466 79.654C28.8233 79.654 29.2376 79.7493 29.5896 79.94C29.9489 80.1233 30.2349 80.3543 30.4476 80.633V79.753H31.7126V85.814H30.4476V84.912C30.2349 85.198 29.9453 85.4363 29.5786 85.627C29.2119 85.8176 28.7939 85.913 28.3246 85.913C27.8039 85.913 27.3273 85.781 26.8946 85.517C26.4619 85.2456 26.1173 84.8716 25.8606 84.395C25.6113 83.911 25.4866 83.3646 25.4866 82.756ZM30.4476 82.778C30.4476 82.36 30.3596 81.997 30.1836 81.689C30.0149 81.381 29.7913 81.1463 29.5126 80.985C29.2339 80.8236 28.9333 80.743 28.6106 80.743C28.2879 80.743 27.9873 80.8236 27.7086 80.985C27.4299 81.139 27.2026 81.37 27.0266 81.678C26.8579 81.9786 26.7736 82.338 26.7736 82.756C26.7736 83.174 26.8579 83.5406 27.0266 83.856C27.2026 84.1713 27.4299 84.4133 27.7086 84.582C27.9946 84.7433 28.2953 84.824 28.6106 84.824C28.9333 84.824 29.2339 84.7433 29.5126 84.582C29.7913 84.4206 30.0149 84.186 30.1836 83.878C30.3596 83.5626 30.4476 83.196 30.4476 82.778ZM34.8227 80.776V84.131C34.8227 84.3583 34.874 84.5233 34.9767 84.626C35.0867 84.7213 35.27 84.769 35.5267 84.769H36.2967V85.814H35.3067C34.742 85.814 34.3093 85.682 34.0087 85.418C33.708 85.154 33.5577 84.725 33.5577 84.131V80.776H32.8427V79.753H33.5577V78.246H34.8227V79.753H36.2967V80.776H34.8227ZM38.0904 78.95C37.8631 78.95 37.6724 78.873 37.5184 78.719C37.3644 78.565 37.2874 78.3743 37.2874 78.147C37.2874 77.9196 37.3644 77.729 37.5184 77.575C37.6724 77.421 37.8631 77.344 38.0904 77.344C38.3104 77.344 38.4974 77.421 38.6514 77.575C38.8054 77.729 38.8824 77.9196 38.8824 78.147C38.8824 78.3743 38.8054 78.565 38.6514 78.719C38.4974 78.873 38.3104 78.95 38.0904 78.95ZM38.7064 79.753V85.814H37.4524V79.753H38.7064ZM42.6958 84.692L44.4118 79.753H45.7428L43.4328 85.814H41.9368L39.6378 79.753H40.9798L42.6958 84.692ZM47.3287 78.95C47.1014 78.95 46.9107 78.873 46.7567 78.719C46.6027 78.565 46.5257 78.3743 46.5257 78.147C46.5257 77.9196 46.6027 77.729 46.7567 77.575C46.9107 77.421 47.1014 77.344 47.3287 77.344C47.5487 77.344 47.7357 77.421 47.8897 77.575C48.0437 77.729 48.1207 77.9196 48.1207 78.147C48.1207 78.3743 48.0437 78.565 47.8897 78.719C47.7357 78.873 47.5487 78.95 47.3287 78.95ZM47.9447 79.753V85.814H46.6907V79.753H47.9447ZM49.1731 82.756C49.1731 82.1473 49.2978 81.6083 49.5471 81.139C49.8038 80.6696 50.1484 80.3066 50.5811 80.05C51.0211 79.786 51.5088 79.654 52.0441 79.654C52.4401 79.654 52.8288 79.742 53.2101 79.918C53.5988 80.0866 53.9068 80.314 54.1341 80.6V77.674H55.3991V85.814H54.1341V84.901C53.9288 85.1943 53.6428 85.4363 53.2761 85.627C52.9168 85.8176 52.5024 85.913 52.0331 85.913C51.5051 85.913 51.0211 85.781 50.5811 85.517C50.1484 85.2456 49.8038 84.8716 49.5471 84.395C49.2978 83.911 49.1731 83.3646 49.1731 82.756ZM54.1341 82.778C54.1341 82.36 54.0461 81.997 53.8701 81.689C53.7014 81.381 53.4778 81.1463 53.1991 80.985C52.9204 80.8236 52.6198 80.743 52.2971 80.743C51.9744 80.743 51.6738 80.8236 51.3951 80.985C51.1164 81.139 50.8891 81.37 50.7131 81.678C50.5444 81.9786 50.4601 82.338 50.4601 82.756C50.4601 83.174 50.5444 83.5406 50.7131 83.856C50.8891 84.1713 51.1164 84.4133 51.3951 84.582C51.6811 84.7433 51.9818 84.824 52.2971 84.824C52.6198 84.824 52.9204 84.7433 53.1991 84.582C53.4778 84.4206 53.7014 84.186 53.8701 83.878C54.0461 83.5626 54.1341 83.196 54.1341 82.778ZM56.6282 82.756C56.6282 82.1473 56.7529 81.6083 57.0022 81.139C57.2589 80.6696 57.6035 80.3066 58.0362 80.05C58.4762 79.786 58.9602 79.654 59.4882 79.654C59.9649 79.654 60.3792 79.7493 60.7312 79.94C61.0905 80.1233 61.3765 80.3543 61.5892 80.633V79.753H62.8542V85.814H61.5892V84.912C61.3765 85.198 61.0869 85.4363 60.7202 85.627C60.3535 85.8176 59.9355 85.913 59.4662 85.913C58.9455 85.913 58.4689 85.781 58.0362 85.517C57.6035 85.2456 57.2589 84.8716 57.0022 84.395C56.7529 83.911 56.6282 83.3646 56.6282 82.756ZM61.5892 82.778C61.5892 82.36 61.5012 81.997 61.3252 81.689C61.1565 81.381 60.9329 81.1463 60.6542 80.985C60.3755 80.8236 60.0749 80.743 59.7522 80.743C59.4295 80.743 59.1289 80.8236 58.8502 80.985C58.5715 81.139 58.3442 81.37 58.1682 81.678C57.9995 81.9786 57.9152 82.338 57.9152 82.756C57.9152 83.174 57.9995 83.5406 58.1682 83.856C58.3442 84.1713 58.5715 84.4133 58.8502 84.582C59.1362 84.7433 59.4369 84.824 59.7522 84.824C60.0749 84.824 60.3755 84.7433 60.6542 84.582C60.9329 84.4206 61.1565 84.186 61.3252 83.878C61.5012 83.5626 61.5892 83.196 61.5892 82.778ZM64.0833 82.756C64.0833 82.1473 64.2079 81.6083 64.4573 81.139C64.7139 80.6696 65.0586 80.3066 65.4913 80.05C65.9313 79.786 66.4189 79.654 66.9543 79.654C67.3503 79.654 67.7389 79.742 68.1203 79.918C68.5089 80.0866 68.8169 80.314 69.0443 80.6V77.674H70.3093V85.814H69.0443V84.901C68.8389 85.1943 68.5529 85.4363 68.1863 85.627C67.8269 85.8176 67.4126 85.913 66.9433 85.913C66.4153 85.913 65.9313 85.781 65.4913 85.517C65.0586 85.2456 64.7139 84.8716 64.4573 84.395C64.2079 83.911 64.0833 83.3646 64.0833 82.756ZM69.0443 82.778C69.0443 82.36 68.9563 81.997 68.7803 81.689C68.6116 81.381 68.3879 81.1463 68.1093 80.985C67.8306 80.8236 67.5299 80.743 67.2073 80.743C66.8846 80.743 66.5839 80.8236 66.3053 80.985C66.0266 81.139 65.7993 81.37 65.6233 81.678C65.4546 81.9786 65.3703 82.338 65.3703 82.756C65.3703 83.174 65.4546 83.5406 65.6233 83.856C65.7993 84.1713 66.0266 84.4133 66.3053 84.582C66.5913 84.7433 66.8919 84.824 67.2073 84.824C67.5299 84.824 67.8306 84.7433 68.1093 84.582C68.3879 84.4206 68.6116 84.186 68.7803 83.878C68.9563 83.5626 69.0443 83.196 69.0443 82.778ZM77.5113 82.635C77.5113 82.8623 77.4967 83.0676 77.4673 83.251H72.8363C72.873 83.735 73.0527 84.1236 73.3753 84.417C73.698 84.7103 74.094 84.857 74.5633 84.857C75.238 84.857 75.7147 84.5746 75.9933 84.01H77.3463C77.163 84.5673 76.8293 85.0256 76.3453 85.385C75.8687 85.737 75.2747 85.913 74.5633 85.913C73.984 85.913 73.4633 85.7846 73.0013 85.528C72.5467 85.264 72.1873 84.8973 71.9233 84.428C71.6667 83.9513 71.5383 83.4013 71.5383 82.778C71.5383 82.1546 71.663 81.6083 71.9123 81.139C72.169 80.6623 72.5247 80.2956 72.9793 80.039C73.4413 79.7823 73.9693 79.654 74.5633 79.654C75.1353 79.654 75.645 79.7786 76.0923 80.028C76.5397 80.2773 76.888 80.6293 77.1373 81.084C77.3867 81.5313 77.5113 82.0483 77.5113 82.635ZM76.2023 82.239C76.195 81.777 76.03 81.4066 75.7073 81.128C75.3847 80.8493 74.985 80.71 74.5083 80.71C74.0757 80.71 73.7053 80.8493 73.3973 81.128C73.0893 81.3993 72.906 81.7696 72.8473 82.239H76.2023ZM41.0102 97.776V101.131C41.0102 101.358 41.0615 101.523 41.1642 101.626C41.2742 101.721 41.4575 101.769 41.7142 101.769H42.4842V102.814H41.4942C40.9295 102.814 40.4968 102.682 40.1962 102.418C39.8955 102.154 39.7452 101.725 39.7452 101.131V97.776H39.0302V96.753H39.7452V95.246H41.0102V96.753H42.4842V97.776H41.0102ZM46.2689 102.913C45.6969 102.913 45.1799 102.785 44.7179 102.528C44.2559 102.264 43.8929 101.897 43.6289 101.428C43.3649 100.951 43.2329 100.401 43.2329 99.778C43.2329 99.162 43.3686 98.6156 43.6399 98.139C43.9113 97.6623 44.2816 97.2956 44.7509 97.039C45.2203 96.7823 45.7446 96.654 46.3239 96.654C46.9033 96.654 47.4276 96.7823 47.8969 97.039C48.3663 97.2956 48.7366 97.6623 49.0079 98.139C49.2793 98.6156 49.4149 99.162 49.4149 99.778C49.4149 100.394 49.2756 100.94 48.9969 101.417C48.7183 101.894 48.3369 102.264 47.8529 102.528C47.3763 102.785 46.8483 102.913 46.2689 102.913ZM46.2689 101.824C46.5916 101.824 46.8923 101.747 47.1709 101.593C47.4569 101.439 47.6879 101.208 47.8639 100.9C48.0399 100.592 48.1279 100.218 48.1279 99.778C48.1279 99.338 48.0436 98.9676 47.8749 98.667C47.7063 98.359 47.4826 98.128 47.2039 97.974C46.9253 97.82 46.6246 97.743 46.3019 97.743C45.9793 97.743 45.6786 97.82 45.3999 97.974C45.1286 98.128 44.9123 98.359 44.7509 98.667C44.5896 98.9676 44.5089 99.338 44.5089 99.778C44.5089 100.431 44.6739 100.937 45.0039 101.296C45.3413 101.648 45.7629 101.824 46.2689 101.824ZM52.1176 97.776V101.131C52.1176 101.358 52.1689 101.523 52.2716 101.626C52.3816 101.721 52.5649 101.769 52.8216 101.769H53.5916V102.814H52.6016C52.0369 102.814 51.6043 102.682 51.3036 102.418C51.0029 102.154 50.8526 101.725 50.8526 101.131V97.776H50.1376V96.753H50.8526V95.246H52.1176V96.753H53.5916V97.776H52.1176ZM54.3294 99.756C54.3294 99.1473 54.454 98.6083 54.7034 98.139C54.96 97.6696 55.3047 97.3066 55.7374 97.05C56.1774 96.786 56.6614 96.654 57.1894 96.654C57.666 96.654 58.0804 96.7493 58.4324 96.94C58.7917 97.1233 59.0777 97.3543 59.2904 97.633V96.753H60.5554V102.814H59.2904V101.912C59.0777 102.198 58.788 102.436 58.4214 102.627C58.0547 102.818 57.6367 102.913 57.1674 102.913C56.6467 102.913 56.17 102.781 55.7374 102.517C55.3047 102.246 54.96 101.872 54.7034 101.395C54.454 100.911 54.3294 100.365 54.3294 99.756ZM59.2904 99.778C59.2904 99.36 59.2024 98.997 59.0264 98.689C58.8577 98.381 58.634 98.1463 58.3554 97.985C58.0767 97.8236 57.776 97.743 57.4534 97.743C57.1307 97.743 56.83 97.8236 56.5514 97.985C56.2727 98.139 56.0454 98.37 55.8694 98.678C55.7007 98.9786 55.6164 99.338 55.6164 99.756C55.6164 100.174 55.7007 100.541 55.8694 100.856C56.0454 101.171 56.2727 101.413 56.5514 101.582C56.8374 101.743 57.138 101.824 57.4534 101.824C57.776 101.824 58.0767 101.743 58.3554 101.582C58.634 101.421 58.8577 101.186 59.0264 100.878C59.2024 100.563 59.2904 100.196 59.2904 99.778ZM63.4564 94.674V102.814H62.2024V94.674H63.4564Z" fill="white"/>
<path d="M34.1562 21.1333H40.1296V51H34.1562V21.1333ZM43.5312 21.1333H61.4513V27.1067H49.5046V51H43.5312V21.1333ZM61.4513 51H43.5312V45.0267H55.4779V21.1333H61.4513V51Z" fill="black"/>
</svg>
