<svg width="59" height="103" viewBox="0 0 59 103" fill="none" xmlns="http://www.w3.org/2000/svg">
<path d="M22.3125 21.1333H28.2858V51H22.3125V21.1333Z" fill="black"/>
<path d="M10.563 62.6542C11.025 62.6542 11.4357 62.7532 11.795 62.9512C12.1617 63.1492 12.4477 63.4425 12.653 63.8312C12.8657 64.2199 12.972 64.6892 12.972 65.2392V68.8142H11.729V65.4262C11.729 64.8835 11.5934 64.4692 11.322 64.1832C11.0507 63.8899 10.6804 63.7432 10.211 63.7432C9.74169 63.7432 9.36769 63.8899 9.08903 64.1832C8.81769 64.4692 8.68203 64.8835 8.68203 65.4262V68.8142H7.42803V60.6742H8.68203V63.4572C8.89469 63.2005 9.16236 63.0025 9.48503 62.8632C9.81503 62.7239 10.1744 62.6542 10.563 62.6542ZM17.2006 68.9132C16.6286 68.9132 16.1116 68.7849 15.6496 68.5282C15.1876 68.2642 14.8246 67.8975 14.5606 67.4282C14.2966 66.9515 14.1646 66.4015 14.1646 65.7782C14.1646 65.1622 14.3002 64.6159 14.5716 64.1392C14.8429 63.6625 15.2132 63.2959 15.6826 63.0392C16.1519 62.7825 16.6762 62.6542 17.2556 62.6542C17.8349 62.6542 18.3592 62.7825 18.8286 63.0392C19.2979 63.2959 19.6682 63.6625 19.9396 64.1392C20.2109 64.6159 20.3466 65.1622 20.3466 65.7782C20.3466 66.3942 20.2072 66.9405 19.9286 67.4172C19.6499 67.8939 19.2686 68.2642 18.7846 68.5282C18.3079 68.7849 17.7799 68.9132 17.2006 68.9132ZM17.2006 67.8242C17.5232 67.8242 17.8239 67.7472 18.1026 67.5932C18.3886 67.4392 18.6196 67.2082 18.7956 66.9002C18.9716 66.5922 19.0596 66.2182 19.0596 65.7782C19.0596 65.3382 18.9752 64.9679 18.8066 64.6672C18.6379 64.3592 18.4142 64.1282 18.1356 63.9742C17.8569 63.8202 17.5562 63.7432 17.2336 63.7432C16.9109 63.7432 16.6102 63.8202 16.3316 63.9742C16.0602 64.1282 15.8439 64.3592 15.6826 64.6672C15.5212 64.9679 15.4406 65.3382 15.4406 65.7782C15.4406 66.4309 15.6056 66.9369 15.9356 67.2962C16.2729 67.6482 16.6946 67.8242 17.2006 67.8242ZM22.8402 63.6332C23.0236 63.3252 23.2656 63.0869 23.5662 62.9182C23.8742 62.7422 24.2372 62.6542 24.6552 62.6542V63.9522H24.3362C23.8449 63.9522 23.4709 64.0769 23.2142 64.3262C22.9649 64.5755 22.8402 65.0082 22.8402 65.6242V68.8142H21.5862V62.7532H22.8402V63.6332ZM25.3899 65.7562C25.3899 65.1475 25.5146 64.6085 25.7639 64.1392C26.0206 63.6699 26.3652 63.3069 26.7979 63.0502C27.2379 62.7862 27.7219 62.6542 28.2499 62.6542C28.7266 62.6542 29.1409 62.7495 29.4929 62.9402C29.8522 63.1235 30.1382 63.3545 30.3509 63.6332V62.7532H31.6159V68.8142H30.3509V67.9122C30.1382 68.1982 29.8486 68.4365 29.4819 68.6272C29.1152 68.8179 28.6972 68.9132 28.2279 68.9132C27.7072 68.9132 27.2306 68.7812 26.7979 68.5172C26.3652 68.2459 26.0206 67.8719 25.7639 67.3952C25.5146 66.9112 25.3899 66.3649 25.3899 65.7562ZM30.3509 65.7782C30.3509 65.3602 30.2629 64.9972 30.0869 64.6892C29.9182 64.3812 29.6946 64.1465 29.4159 63.9852C29.1372 63.8239 28.8366 63.7432 28.5139 63.7432C28.1912 63.7432 27.8906 63.8239 27.6119 63.9852C27.3332 64.1392 27.1059 64.3702 26.9299 64.6782C26.7612 64.9789 26.6769 65.3382 26.6769 65.7562C26.6769 66.1742 26.7612 66.5409 26.9299 66.8562C27.1059 67.1715 27.3332 67.4135 27.6119 67.5822C27.8979 67.7435 28.1986 67.8242 28.5139 67.8242C28.8366 67.8242 29.1372 67.7435 29.4159 67.5822C29.6946 67.4209 29.9182 67.1862 30.0869 66.8782C30.2629 66.5629 30.3509 66.1962 30.3509 65.7782ZM35.7024 65.7562C35.7024 65.1475 35.8271 64.6085 36.0764 64.1392C36.3331 63.6699 36.6777 63.3069 37.1104 63.0502C37.5504 62.7862 38.0381 62.6542 38.5734 62.6542C38.9694 62.6542 39.3581 62.7422 39.7394 62.9182C40.1281 63.0869 40.4361 63.3142 40.6634 63.6002V60.6742H41.9284V68.8142H40.6634V67.9012C40.4581 68.1945 40.1721 68.4365 39.8054 68.6272C39.4461 68.8179 39.0317 68.9132 38.5624 68.9132C38.0344 68.9132 37.5504 68.7812 37.1104 68.5172C36.6777 68.2459 36.3331 67.8719 36.0764 67.3952C35.8271 66.9112 35.7024 66.3649 35.7024 65.7562ZM40.6634 65.7782C40.6634 65.3602 40.5754 64.9972 40.3994 64.6892C40.2307 64.3812 40.0071 64.1465 39.7284 63.9852C39.4497 63.8239 39.1491 63.7432 38.8264 63.7432C38.5037 63.7432 38.2031 63.8239 37.9244 63.9852C37.6457 64.1392 37.4184 64.3702 37.2424 64.6782C37.0737 64.9789 36.9894 65.3382 36.9894 65.7562C36.9894 66.1742 37.0737 66.5409 37.2424 66.8562C37.4184 67.1715 37.6457 67.4135 37.9244 67.5822C38.2104 67.7435 38.5111 67.8242 38.8264 67.8242C39.1491 67.8242 39.4497 67.7435 39.7284 67.5822C40.0071 67.4209 40.2307 67.1862 40.3994 66.8782C40.5754 66.5629 40.6634 66.1962 40.6634 65.7782ZM49.1305 65.6352C49.1305 65.8625 49.1158 66.0679 49.0865 66.2512H44.4555C44.4922 66.7352 44.6718 67.1239 44.9945 67.4172C45.3172 67.7105 45.7132 67.8572 46.1825 67.8572C46.8572 67.8572 47.3338 67.5749 47.6125 67.0102H48.9655C48.7822 67.5675 48.4485 68.0259 47.9645 68.3852C47.4878 68.7372 46.8938 68.9132 46.1825 68.9132C45.6032 68.9132 45.0825 68.7849 44.6205 68.5282C44.1658 68.2642 43.8065 67.8975 43.5425 67.4282C43.2858 66.9515 43.1575 66.4015 43.1575 65.7782C43.1575 65.1549 43.2822 64.6085 43.5315 64.1392C43.7882 63.6625 44.1438 63.2959 44.5985 63.0392C45.0605 62.7825 45.5885 62.6542 46.1825 62.6542C46.7545 62.6542 47.2642 62.7789 47.7115 63.0282C48.1588 63.2775 48.5072 63.6295 48.7565 64.0842C49.0058 64.5315 49.1305 65.0485 49.1305 65.6352ZM47.8215 65.2392C47.8142 64.7772 47.6492 64.4069 47.3265 64.1282C47.0038 63.8495 46.6042 63.7102 46.1275 63.7102C45.6948 63.7102 45.3245 63.8495 45.0165 64.1282C44.7085 64.3995 44.5252 64.7699 44.4665 65.2392H47.8215ZM3.48659 82.7562C3.48659 82.1475 3.61126 81.6085 3.86059 81.1392C4.11726 80.6699 4.46192 80.3069 4.89459 80.0502C5.33459 79.7862 5.81859 79.6542 6.34659 79.6542C6.82326 79.6542 7.23759 79.7495 7.58959 79.9402C7.94892 80.1235 8.23492 80.3545 8.44759 80.6332V79.7532H9.71259V85.8142H8.44759V84.9122C8.23492 85.1982 7.94526 85.4365 7.57859 85.6272C7.21192 85.8179 6.79392 85.9132 6.32459 85.9132C5.80392 85.9132 5.32726 85.7812 4.89459 85.5172C4.46192 85.2459 4.11726 84.8719 3.86059 84.3952C3.61126 83.9112 3.48659 83.3649 3.48659 82.7562ZM8.44759 82.7782C8.44759 82.3602 8.35959 81.9972 8.18359 81.6892C8.01492 81.3812 7.79126 81.1465 7.51259 80.9852C7.23392 80.8239 6.93326 80.7432 6.61059 80.7432C6.28792 80.7432 5.98726 80.8239 5.70859 80.9852C5.42992 81.1392 5.20259 81.3702 5.02659 81.6782C4.85792 81.9789 4.77359 82.3382 4.77359 82.7562C4.77359 83.1742 4.85792 83.5409 5.02659 83.8562C5.20259 84.1715 5.42992 84.4135 5.70859 84.5822C5.99459 84.7435 6.29526 84.8242 6.61059 84.8242C6.93326 84.8242 7.23392 84.7435 7.51259 84.5822C7.79126 84.4209 8.01492 84.1862 8.18359 83.8782C8.35959 83.5629 8.44759 83.1962 8.44759 82.7782ZM12.8227 80.7762V84.1312C12.8227 84.3585 12.874 84.5235 12.9767 84.6262C13.0867 84.7215 13.27 84.7692 13.5267 84.7692H14.2967V85.8142H13.3067C12.742 85.8142 12.3093 85.6822 12.0087 85.4182C11.708 85.1542 11.5577 84.7252 11.5577 84.1312V80.7762H10.8427V79.7532H11.5577V78.2462H12.8227V79.7532H14.2967V80.7762H12.8227ZM16.0904 78.9502C15.8631 78.9502 15.6724 78.8732 15.5184 78.7192C15.3644 78.5652 15.2874 78.3745 15.2874 78.1472C15.2874 77.9199 15.3644 77.7292 15.5184 77.5752C15.6724 77.4212 15.8631 77.3442 16.0904 77.3442C16.3104 77.3442 16.4974 77.4212 16.6514 77.5752C16.8054 77.7292 16.8824 77.9199 16.8824 78.1472C16.8824 78.3745 16.8054 78.5652 16.6514 78.7192C16.4974 78.8732 16.3104 78.9502 16.0904 78.9502ZM16.7064 79.7532V85.8142H15.4524V79.7532H16.7064ZM20.6958 84.6922L22.4118 79.7532H23.7428L21.4328 85.8142H19.9368L17.6378 79.7532H18.9798L20.6958 84.6922ZM25.3287 78.9502C25.1014 78.9502 24.9107 78.8732 24.7567 78.7192C24.6027 78.5652 24.5257 78.3745 24.5257 78.1472C24.5257 77.9199 24.6027 77.7292 24.7567 77.5752C24.9107 77.4212 25.1014 77.3442 25.3287 77.3442C25.5487 77.3442 25.7357 77.4212 25.8897 77.5752C26.0437 77.7292 26.1207 77.9199 26.1207 78.1472C26.1207 78.3745 26.0437 78.5652 25.8897 78.7192C25.7357 78.8732 25.5487 78.9502 25.3287 78.9502ZM25.9447 79.7532V85.8142H24.6907V79.7532H25.9447ZM27.1731 82.7562C27.1731 82.1475 27.2978 81.6085 27.5471 81.1392C27.8038 80.6699 28.1484 80.3069 28.5811 80.0502C29.0211 79.7862 29.5088 79.6542 30.0441 79.6542C30.4401 79.6542 30.8288 79.7422 31.2101 79.9182C31.5988 80.0869 31.9068 80.3142 32.1341 80.6002V77.6742H33.3991V85.8142H32.1341V84.9012C31.9288 85.1945 31.6428 85.4365 31.2761 85.6272C30.9168 85.8179 30.5024 85.9132 30.0331 85.9132C29.5051 85.9132 29.0211 85.7812 28.5811 85.5172C28.1484 85.2459 27.8038 84.8719 27.5471 84.3952C27.2978 83.9112 27.1731 83.3649 27.1731 82.7562ZM32.1341 82.7782C32.1341 82.3602 32.0461 81.9972 31.8701 81.6892C31.7014 81.3812 31.4778 81.1465 31.1991 80.9852C30.9204 80.8239 30.6198 80.7432 30.2971 80.7432C29.9744 80.7432 29.6738 80.8239 29.3951 80.9852C29.1164 81.1392 28.8891 81.3702 28.7131 81.6782C28.5444 81.9789 28.4601 82.3382 28.4601 82.7562C28.4601 83.1742 28.5444 83.5409 28.7131 83.8562C28.8891 84.1715 29.1164 84.4135 29.3951 84.5822C29.6811 84.7435 29.9818 84.8242 30.2971 84.8242C30.6198 84.8242 30.9204 84.7435 31.1991 84.5822C31.4778 84.4209 31.7014 84.1862 31.8701 83.8782C32.0461 83.5629 32.1341 83.1962 32.1341 82.7782ZM34.6282 82.7562C34.6282 82.1475 34.7529 81.6085 35.0022 81.1392C35.2589 80.6699 35.6035 80.3069 36.0362 80.0502C36.4762 79.7862 36.9602 79.6542 37.4882 79.6542C37.9649 79.6542 38.3792 79.7495 38.7312 79.9402C39.0905 80.1235 39.3765 80.3545 39.5892 80.6332V79.7532H40.8542V85.8142H39.5892V84.9122C39.3765 85.1982 39.0869 85.4365 38.7202 85.6272C38.3535 85.8179 37.9355 85.9132 37.4662 85.9132C36.9455 85.9132 36.4689 85.7812 36.0362 85.5172C35.6035 85.2459 35.2589 84.8719 35.0022 84.3952C34.7529 83.9112 34.6282 83.3649 34.6282 82.7562ZM39.5892 82.7782C39.5892 82.3602 39.5012 81.9972 39.3252 81.6892C39.1565 81.3812 38.9329 81.1465 38.6542 80.9852C38.3755 80.8239 38.0749 80.7432 37.7522 80.7432C37.4295 80.7432 37.1289 80.8239 36.8502 80.9852C36.5715 81.1392 36.3442 81.3702 36.1682 81.6782C35.9995 81.9789 35.9152 82.3382 35.9152 82.7562C35.9152 83.1742 35.9995 83.5409 36.1682 83.8562C36.3442 84.1715 36.5715 84.4135 36.8502 84.5822C37.1362 84.7435 37.4369 84.8242 37.7522 84.8242C38.0749 84.8242 38.3755 84.7435 38.6542 84.5822C38.9329 84.4209 39.1565 84.1862 39.3252 83.8782C39.5012 83.5629 39.5892 83.1962 39.5892 82.7782ZM42.0833 82.7562C42.0833 82.1475 42.2079 81.6085 42.4573 81.1392C42.7139 80.6699 43.0586 80.3069 43.4913 80.0502C43.9313 79.7862 44.4189 79.6542 44.9543 79.6542C45.3503 79.6542 45.7389 79.7422 46.1203 79.9182C46.5089 80.0869 46.8169 80.3142 47.0443 80.6002V77.6742H48.3093V85.8142H47.0443V84.9012C46.8389 85.1945 46.5529 85.4365 46.1863 85.6272C45.8269 85.8179 45.4126 85.9132 44.9433 85.9132C44.4153 85.9132 43.9313 85.7812 43.4913 85.5172C43.0586 85.2459 42.7139 84.8719 42.4573 84.3952C42.2079 83.9112 42.0833 83.3649 42.0833 82.7562ZM47.0443 82.7782C47.0443 82.3602 46.9563 81.9972 46.7803 81.6892C46.6116 81.3812 46.3879 81.1465 46.1093 80.9852C45.8306 80.8239 45.5299 80.7432 45.2073 80.7432C44.8846 80.7432 44.5839 80.8239 44.3053 80.9852C44.0266 81.1392 43.7993 81.3702 43.6233 81.6782C43.4546 81.9789 43.3703 82.3382 43.3703 82.7562C43.3703 83.1742 43.4546 83.5409 43.6233 83.8562C43.7993 84.1715 44.0266 84.4135 44.3053 84.5822C44.5913 84.7435 44.8919 84.8242 45.2073 84.8242C45.5299 84.8242 45.8306 84.7435 46.1093 84.5822C46.3879 84.4209 46.6116 84.1862 46.7803 83.8782C46.9563 83.5629 47.0443 83.1962 47.0443 82.7782ZM55.5113 82.6352C55.5113 82.8625 55.4967 83.0679 55.4673 83.2512H50.8363C50.873 83.7352 51.0527 84.1239 51.3753 84.4172C51.698 84.7105 52.094 84.8572 52.5633 84.8572C53.238 84.8572 53.7147 84.5749 53.9933 84.0102H55.3463C55.163 84.5675 54.8293 85.0259 54.3453 85.3852C53.8687 85.7372 53.2747 85.9132 52.5633 85.9132C51.984 85.9132 51.4633 85.7849 51.0013 85.5282C50.5467 85.2642 50.1873 84.8975 49.9233 84.4282C49.6667 83.9515 49.5383 83.4015 49.5383 82.7782C49.5383 82.1549 49.663 81.6085 49.9123 81.1392C50.169 80.6625 50.5247 80.2959 50.9793 80.0392C51.4413 79.7825 51.9693 79.6542 52.5633 79.6542C53.1353 79.6542 53.645 79.7789 54.0923 80.0282C54.5397 80.2775 54.888 80.6295 55.1373 81.0842C55.3867 81.5315 55.5113 82.0485 55.5113 82.6352ZM54.2023 82.2392C54.195 81.7772 54.03 81.4069 53.7073 81.1282C53.3847 80.8495 52.985 80.7102 52.5083 80.7102C52.0757 80.7102 51.7053 80.8495 51.3973 81.1282C51.0893 81.3995 50.906 81.7699 50.8473 82.2392H54.2023ZM19.0102 97.7762V101.131C19.0102 101.359 19.0615 101.524 19.1642 101.626C19.2742 101.722 19.4575 101.769 19.7142 101.769H20.4842V102.814H19.4942C18.9295 102.814 18.4968 102.682 18.1962 102.418C17.8955 102.154 17.7452 101.725 17.7452 101.131V97.7762H17.0302V96.7532H17.7452V95.2462H19.0102V96.7532H20.4842V97.7762H19.0102ZM24.2689 102.913C23.6969 102.913 23.1799 102.785 22.7179 102.528C22.2559 102.264 21.8929 101.898 21.6289 101.428C21.3649 100.952 21.2329 100.402 21.2329 99.7782C21.2329 99.1622 21.3686 98.6159 21.6399 98.1392C21.9113 97.6625 22.2816 97.2959 22.7509 97.0392C23.2203 96.7825 23.7446 96.6542 24.3239 96.6542C24.9033 96.6542 25.4276 96.7825 25.8969 97.0392C26.3663 97.2959 26.7366 97.6625 27.0079 98.1392C27.2793 98.6159 27.4149 99.1622 27.4149 99.7782C27.4149 100.394 27.2756 100.941 26.9969 101.417C26.7183 101.894 26.3369 102.264 25.8529 102.528C25.3763 102.785 24.8483 102.913 24.2689 102.913ZM24.2689 101.824C24.5916 101.824 24.8923 101.747 25.1709 101.593C25.4569 101.439 25.6879 101.208 25.8639 100.9C26.0399 100.592 26.1279 100.218 26.1279 99.7782C26.1279 99.3382 26.0436 98.9679 25.8749 98.6672C25.7063 98.3592 25.4826 98.1282 25.2039 97.9742C24.9253 97.8202 24.6246 97.7432 24.3019 97.7432C23.9793 97.7432 23.6786 97.8202 23.3999 97.9742C23.1286 98.1282 22.9123 98.3592 22.7509 98.6672C22.5896 98.9679 22.5089 99.3382 22.5089 99.7782C22.5089 100.431 22.6739 100.937 23.0039 101.296C23.3413 101.648 23.7629 101.824 24.2689 101.824ZM30.1176 97.7762V101.131C30.1176 101.359 30.1689 101.524 30.2716 101.626C30.3816 101.722 30.5649 101.769 30.8216 101.769H31.5916V102.814H30.6016C30.0369 102.814 29.6043 102.682 29.3036 102.418C29.0029 102.154 28.8526 101.725 28.8526 101.131V97.7762H28.1376V96.7532H28.8526V95.2462H30.1176V96.7532H31.5916V97.7762H30.1176ZM32.3294 99.7562C32.3294 99.1475 32.454 98.6085 32.7034 98.1392C32.96 97.6699 33.3047 97.3069 33.7374 97.0502C34.1774 96.7862 34.6614 96.6542 35.1894 96.6542C35.666 96.6542 36.0804 96.7495 36.4324 96.9402C36.7917 97.1235 37.0777 97.3545 37.2904 97.6332V96.7532H38.5554V102.814H37.2904V101.912C37.0777 102.198 36.788 102.437 36.4214 102.627C36.0547 102.818 35.6367 102.913 35.1674 102.913C34.6467 102.913 34.17 102.781 33.7374 102.517C33.3047 102.246 32.96 101.872 32.7034 101.395C32.454 100.911 32.3294 100.365 32.3294 99.7562ZM37.2904 99.7782C37.2904 99.3602 37.2024 98.9972 37.0264 98.6892C36.8577 98.3812 36.634 98.1465 36.3554 97.9852C36.0767 97.8239 35.776 97.7432 35.4534 97.7432C35.1307 97.7432 34.83 97.8239 34.5514 97.9852C34.2727 98.1392 34.0454 98.3702 33.8694 98.6782C33.7007 98.9789 33.6164 99.3382 33.6164 99.7562C33.6164 100.174 33.7007 100.541 33.8694 100.856C34.0454 101.172 34.2727 101.414 34.5514 101.582C34.8374 101.744 35.138 101.824 35.4534 101.824C35.776 101.824 36.0767 101.744 36.3554 101.582C36.634 101.421 36.8577 101.186 37.0264 100.878C37.2024 100.563 37.2904 100.196 37.2904 99.7782ZM41.4564 94.6742V102.814H40.2024V94.6742H41.4564Z" fill="black"/>
</svg>
