<svg width="37" height="46" viewBox="0 0 37 46" fill="none" xmlns="http://www.w3.org/2000/svg">
<path fill-rule="evenodd" clip-rule="evenodd" d="M36.843 29.7311C36.432 38.7613 28.3479 45.9669 18.4314 45.9669C8.25197 45.9669 1.29383e-05 38.1198 1.29383e-05 29.01C1.29383e-05 27.7924 -0.0237126 25.3589 1.9608 21.2532C3.14844 18.7961 3.89335 17.2524 4.31374 15.8414C4.54472 15.0659 4.99393 13.8338 6.27452 15.8414C7.02962 17.0252 7.05884 18.7277 7.05884 18.7277C7.05884 18.7277 9.86825 16.7443 11.7647 12.9551C14.5449 7.40033 12.3267 4.07985 11.5686 1.77083C11.3063 0.972053 11.1416 -0.463508 12.9412 0.1473C14.7749 0.769833 19.6228 3.89188 22.1569 7.18259C25.7735 11.8791 27.0588 16.3826 27.0588 16.3826C27.0588 16.3826 28.2169 15.0603 28.6275 13.6767C29.0912 12.1143 29.0981 10.5669 30.5881 12.2338C32.0051 13.8189 34.1096 16.7977 35.2941 19.6297C37.4449 24.7725 36.843 29.7311 36.843 29.7311Z" fill="#FC9502"/>
</svg>
