<svg width="54" height="53" viewBox="0 0 54 53" fill="none" xmlns="http://www.w3.org/2000/svg">
<g clip-path="url(#clip0_107_1564)">
<path d="M46.8988 1.27969C46.5652 0.739235 45.7178 0.973248 45.7185 1.60358C45.7185 1.61096 45.7185 1.61855 45.7185 1.62604C45.7185 9.77402 40.9067 16.8278 33.897 20.2484V32.1508C43.076 29.868 49.8421 21.8512 49.9387 12.1878C49.9785 8.19657 48.8631 4.4621 46.8988 1.27969Z" fill="#A66EDD"/>
<path d="M27.0002 51.5495C40.6448 51.5495 51.7059 40.79 51.7059 27.5175C51.7059 14.2451 40.6448 3.4856 27.0002 3.4856C13.3556 3.4856 2.29443 14.2451 2.29443 27.5175C2.29443 40.79 13.3556 51.5495 27.0002 51.5495Z" fill="#A66EDD"/>
<path d="M32.2943 48.0019C18.6497 48.0019 7.58865 37.2426 7.58865 23.9701C7.58865 16.8791 10.7466 10.5064 15.7683 6.10767C7.76984 10.0858 2.29443 18.1797 2.29443 27.518C2.29443 40.7904 13.3555 51.5498 27.0001 51.5498C33.3549 51.5498 39.1486 49.2152 43.5261 45.3805C40.1563 47.0563 36.3388 48.0019 32.2943 48.0019Z" fill="#7D45B2"/>
<path d="M26.948 29.6551C28.4621 29.6551 29.6894 28.4612 29.6894 26.9885C29.6894 25.5157 28.4621 24.3218 26.948 24.3218C25.4339 24.3218 24.2065 25.5157 24.2065 26.9885C24.2065 28.4612 25.4339 29.6551 26.948 29.6551Z" fill="#FC4C59"/>
<path d="M41.6179 28.933C43.132 28.933 44.3594 27.7391 44.3594 26.2663C44.3594 24.7935 43.132 23.5996 41.6179 23.5996C40.1039 23.5996 38.8765 24.7935 38.8765 26.2663C38.8765 27.7391 40.1039 28.933 41.6179 28.933Z" fill="#FC4C59"/>
<path d="M34.0021 42.1825C31.3475 42.1825 28.785 41.0785 26.7383 39.0413C26.3504 38.655 26.3578 38.0361 26.7547 37.6587C27.1519 37.2812 27.7881 37.2886 28.176 37.6746C29.939 39.4295 32.1434 40.3319 34.3882 40.2173C36.6008 40.1035 38.7137 38.946 40.3382 36.9579C40.6834 36.5354 41.3158 36.465 41.7504 36.801C42.1849 37.1369 42.2571 37.7519 41.9118 38.1747C39.9241 40.6072 37.29 42.0261 34.4942 42.1697C34.33 42.1783 34.1658 42.1825 34.0021 42.1825Z" fill="#3A2568"/>
<path d="M27.0053 30.6315C25.533 30.6315 24.1227 29.8126 23.4717 28.4275C22.9953 27.4141 23.012 26.1706 23.5167 25.1007C23.7321 24.644 24.0223 24.248 24.3731 23.925C24.2189 23.8479 24.0629 23.7695 23.905 23.6898C23.2185 23.343 22.6668 23.0261 22.133 22.7199C21.5022 22.3577 20.85 21.9833 19.9233 21.5266C19.4281 21.2828 19.2299 20.6944 19.4807 20.2128C19.7314 19.7311 20.3362 19.5381 20.8314 19.7824C21.816 20.2674 22.4967 20.6582 23.1548 21.0361C23.6888 21.3429 24.1933 21.6324 24.8313 21.9546C25.2605 22.1714 25.6766 22.3781 26.0764 22.5769C27.7866 23.4267 29.2636 24.1605 30.2467 24.9368C30.3667 25.0317 30.4628 25.1522 30.5273 25.2893C31.4168 27.1816 30.558 29.425 28.6127 30.2901C28.0912 30.5217 27.5439 30.6315 27.0053 30.6315ZM26.4596 24.9682C26.4391 24.9755 26.4179 24.982 26.3966 24.988C25.8099 25.1532 25.5002 25.5837 25.3436 25.9158C25.0872 26.4592 25.0699 27.1258 25.2995 27.614C25.7283 28.5258 26.8393 28.9283 27.7766 28.5115C28.2307 28.3095 28.5768 27.9478 28.7509 27.4927C28.899 27.1057 28.9079 26.6909 28.7797 26.3037C28.1991 25.8845 27.3948 25.445 26.4596 24.9682Z" fill="#3A2568"/>
<path d="M41.7541 29.9684C41.2049 29.9684 40.6573 29.8534 40.143 29.6245C39.2007 29.2054 38.4825 28.4544 38.121 27.5099C37.7594 26.5653 37.7975 25.5404 38.2284 24.6236C38.2992 24.473 38.4083 24.3423 38.5453 24.2439C39.6019 23.4846 40.9971 22.6955 42.6918 21.8985C45.2349 20.7025 45.4037 20.6062 47.4714 19.4263L47.7874 19.2461C48.2658 18.9729 48.8821 19.129 49.1627 19.595C49.4435 20.0608 49.2827 20.6597 48.804 20.9328L48.4884 21.113C46.6767 22.1468 46.2727 22.3771 44.4881 23.2239C44.8762 23.6041 45.1815 24.0615 45.3835 24.575C45.7883 25.6043 45.7521 26.766 45.284 27.7618C44.8531 28.6783 44.081 29.377 43.11 29.7288C42.6691 29.8887 42.211 29.9684 41.7541 29.9684ZM39.9708 25.6542C39.8479 26.0369 39.8584 26.4457 40.0046 26.8276C40.1789 27.2827 40.5248 27.6445 40.9791 27.8464C41.4329 28.0482 41.9409 28.0659 42.4085 27.8967C42.8763 27.7271 43.2484 27.3905 43.456 26.9489C43.6976 26.4348 43.7164 25.8087 43.5061 25.274C43.3725 24.9343 43.0837 24.4756 42.4651 24.1983C41.4902 24.6963 40.6549 25.1839 39.9708 25.6542Z" fill="#3A2568"/>
<path d="M14.2564 14.2512C11.1092 11.0386 9.17694 6.68992 9.17694 1.90173C9.17694 1.89516 9.17694 1.8888 9.17694 1.88244C9.17746 1.34045 8.44878 1.13916 8.16191 1.6039C6.47272 4.34055 5.51359 7.5522 5.54776 10.9842C5.57655 13.8631 6.29363 16.5721 7.54692 18.9649C7.54692 18.9649 7.93768 19.7636 8.38993 20.3012L14.2564 14.2512Z" fill="#A66EDD"/>
<path d="M50.3414 17.0385C50.7229 15.461 50.9268 13.8346 50.9432 12.1971C50.9834 8.16444 49.8826 4.21515 47.76 0.776361C47.3757 0.153934 46.6351 -0.134248 45.9169 0.0598566C45.1959 0.254577 44.7121 0.875363 44.713 1.60367V1.62624C44.713 3.94944 44.3069 6.20821 43.5073 8.36019C39.0378 4.71026 33.2786 2.50832 26.9998 2.50832C21.284 2.50832 15.7411 4.36247 11.2485 7.75171C10.5482 5.89961 10.1817 3.92451 10.1817 1.9017V1.88354C10.1825 1.19412 9.72509 0.607084 9.04344 0.422931C8.36391 0.239496 7.66359 0.511673 7.30004 1.10055C5.4612 4.07963 4.50786 7.50067 4.54267 10.9936C4.5723 13.9625 5.28169 16.7938 6.6513 19.4089C6.82891 19.7478 7.18171 19.943 7.54758 19.943C7.70114 19.943 7.85702 19.9086 8.0031 19.8362C8.49764 19.591 8.69434 19.0024 8.44227 18.5211C7.21503 16.1779 6.57927 13.6389 6.5529 10.9748C6.52706 8.38307 7.10767 5.83611 8.2422 3.52204C8.61545 7.79234 10.4597 11.7928 13.5286 14.9256C13.9114 15.3166 14.5476 15.3315 14.9496 14.9589C15.3515 14.5865 15.3667 13.9676 14.9839 13.5767C13.8115 12.38 12.8388 11.0417 12.0823 9.60391C16.2915 6.28485 21.5607 4.46353 27 4.46353C40.0687 4.46353 50.7004 14.8057 50.7004 27.5178C50.7004 40.2299 40.0686 50.5719 27 50.5719C13.9315 50.5719 3.2993 40.23 3.2993 27.5179C3.2993 25.9728 3.45729 24.4284 3.76895 22.9274C3.87885 22.3981 3.52679 21.8825 2.98268 21.7756C2.43878 21.6686 1.90837 22.0111 1.79858 22.5404C1.46066 24.1683 1.28906 25.8431 1.28906 27.518C1.28917 41.3081 12.8229 52.5272 26.9999 52.5272C41.1768 52.5272 52.7105 41.308 52.7105 27.5179C52.7106 23.7779 51.8607 20.2279 50.3414 17.0385ZM45.1027 9.77617C46.013 7.58367 46.5441 5.28406 46.6849 2.91623C48.1912 5.76645 48.9655 8.9426 48.9331 12.1785C48.9261 12.88 48.8797 13.579 48.7987 14.2724C47.7453 12.6376 46.5038 11.1291 45.1027 9.77617Z" fill="black"/>
<path d="M28.1716 37.6744C27.7837 37.2883 27.1473 37.281 26.7503 37.6585C26.3533 38.0361 26.3461 38.6549 26.734 39.0411C28.7807 41.0782 31.3433 42.1823 33.9976 42.1823C34.1615 42.1823 34.3256 42.1781 34.4899 42.1695C37.2856 42.0258 39.92 40.6069 41.9076 38.1745C42.2529 37.7517 42.1806 37.1368 41.7462 36.8008C41.3116 36.4647 40.6794 36.5352 40.334 36.9577C38.7095 38.9458 36.5964 40.1033 34.3839 40.2171C32.1394 40.3317 29.9346 39.4293 28.1716 37.6744Z" fill="black"/>
<path d="M30.2421 24.9363C29.2591 24.1603 27.7823 23.4264 26.0721 22.5767C25.6723 22.378 25.256 22.1712 24.8267 21.9543C24.189 21.6321 23.6847 21.3427 23.1508 21.036C22.4926 20.6582 21.8118 20.2673 20.827 19.7821C20.332 19.5379 19.7272 19.7306 19.4764 20.2126C19.2255 20.6943 19.4236 21.2826 19.919 21.5264C20.846 21.9832 21.4982 22.3577 22.1291 22.72C22.6625 23.0263 23.2144 23.343 23.9006 23.6897C24.0585 23.7693 24.2145 23.8478 24.3687 23.9249C24.018 24.2478 23.7277 24.6438 23.5123 25.1006C23.0076 26.1705 22.9908 27.414 23.4672 28.4274C24.1184 29.8125 25.5287 30.6314 27.0009 30.6314C27.5397 30.6314 28.0869 30.5216 28.6082 30.2897C30.5534 29.4246 31.4123 27.1812 30.5231 25.2891C30.4586 25.1518 30.3623 25.0313 30.2421 24.9363ZM27.7721 28.5116C26.8348 28.9283 25.7237 28.5258 25.295 27.6141C25.0654 27.1258 25.0827 26.4592 25.3391 25.9159C25.4957 25.5838 25.8055 25.1531 26.3921 24.9881C26.4134 24.9821 26.4345 24.9755 26.4552 24.9683C27.3903 25.445 28.1944 25.8844 28.775 26.3037C29.0601 27.1677 28.6411 28.1249 27.7721 28.5116Z" fill="black"/>
<path d="M48.7991 20.9328C49.2779 20.6597 49.4386 20.0608 49.1578 19.595C48.877 19.129 48.2611 18.9729 47.7825 19.246L47.4665 19.4263C45.3988 20.6061 45.23 20.7024 42.6869 21.8985C40.9922 22.6954 39.597 23.4844 38.5404 24.2438C38.4034 24.3422 38.2943 24.473 38.2235 24.6235C37.7926 25.5402 37.7545 26.5653 38.1161 27.5098C38.4777 28.4542 39.1961 29.2054 40.1382 29.6245C40.6527 29.8534 41.2002 29.9684 41.7494 29.9684C42.2061 29.9684 42.6642 29.8889 43.1053 29.729C44.0761 29.3772 44.8484 28.6785 45.2793 27.7618C45.7473 26.766 45.7835 25.6043 45.3785 24.5751C45.1765 24.0614 44.8713 23.6044 44.4832 23.2242C46.2676 22.3774 46.6716 22.1469 48.4833 21.1132L48.7991 20.9328ZM43.4511 26.9487C43.2434 27.3904 42.8713 27.727 42.4036 27.8964C41.936 28.0656 41.4281 28.0478 40.9742 27.8461C40.52 27.6441 40.174 27.2822 39.9997 26.8272C39.8536 26.4456 39.8429 26.0367 39.9659 25.6541C40.65 25.1838 41.4853 24.6963 42.4603 24.1982C43.0789 24.4753 43.3677 24.9341 43.5013 25.2737C43.7115 25.8084 43.6927 26.4345 43.4511 26.9487Z" fill="black"/>
<path d="M3.73304 20.3012C4.28809 20.3012 4.73805 19.8635 4.73805 19.3235C4.73805 18.7836 4.28809 18.3459 3.73304 18.3459C3.17799 18.3459 2.72803 18.7836 2.72803 19.3235C2.72803 19.8635 3.17799 20.3012 3.73304 20.3012Z" fill="black"/>
</g>
<defs>
<clipPath id="clip0_107_1564">
<rect width="54" height="52.5272" fill="white"/>
</clipPath>
</defs>
</svg>
