<svg width="60" height="60" viewBox="0 0 60 60" fill="none" xmlns="http://www.w3.org/2000/svg">
<path d="M6.53844 38.2051C6.36848 38.6133 6.04332 38.9373 5.63449 39.1057C5.22566 39.2742 4.76665 39.2734 4.35844 39.1034C3.95023 38.9334 3.62625 38.6083 3.45778 38.1995C3.28931 37.7906 3.29015 37.3316 3.46011 36.9234L11.1551 16.0267C11.237 15.8215 11.3589 15.6345 11.5137 15.4768C11.6685 15.3191 11.8531 15.1937 12.0568 15.108C12.2605 15.0223 12.4792 14.9779 12.7002 14.9775C12.9212 14.9771 13.1401 15.0207 13.3441 15.1057C13.5481 15.1907 13.7332 15.3154 13.8885 15.4726C14.0439 15.6297 14.1664 15.8162 14.249 16.0212C14.3316 16.2262 14.3727 16.4456 14.3697 16.6666C14.3667 16.8875 14.3198 17.1057 14.2318 17.3084L6.53844 38.2051Z" fill="#66757F"/>
<path d="M23.2052 36.9232C23.3752 37.3314 23.376 37.7904 23.2075 38.1993C23.0391 38.6081 22.7151 38.9333 22.3069 39.1032C21.8987 39.2732 21.4397 39.274 21.0308 39.1055C20.622 38.9371 20.2968 38.6131 20.1269 38.2049L12.4352 17.3082C12.2652 16.9 12.2644 16.441 12.4329 16.0322C12.6013 15.6233 12.9253 15.2982 13.3335 15.1282C13.7418 14.9583 14.2008 14.9574 14.6096 15.1259C15.0184 15.2944 15.3436 15.6183 15.5135 16.0266L23.2052 36.9232ZM39.8735 38.2049C39.6932 38.5975 39.3676 38.9048 38.9652 39.0621C38.5628 39.2195 38.1151 39.2146 37.7163 39.0486C37.3174 38.8825 36.9986 38.5682 36.8268 38.1718C36.655 37.7754 36.6437 37.3278 36.7952 36.9232L44.4885 16.0249C44.6587 15.6169 44.984 15.2932 45.3928 15.1251C45.8017 14.9569 46.2605 14.958 46.6685 15.1282C47.0765 15.2984 47.4002 15.6237 47.5684 16.0325C47.7365 16.4413 47.7354 16.9002 47.5652 17.3082L39.8735 38.2049Z" fill="#66757F"/>
<path d="M56.5384 36.9234C56.7084 37.3316 56.7092 37.7906 56.5408 38.1995C56.3723 38.6083 56.0483 38.9334 55.6401 39.1034C55.2319 39.2734 54.7729 39.2742 54.3641 39.1057C53.9552 38.9373 53.6301 38.6133 53.4601 38.2051L45.7684 17.3084C45.6804 17.1057 45.6335 16.8875 45.6305 16.6666C45.6276 16.4456 45.6686 16.2262 45.7512 16.0212C45.8338 15.8162 45.9563 15.6297 46.1117 15.4726C46.2671 15.3154 46.4521 15.1907 46.6561 15.1057C46.8601 15.0207 47.079 14.9771 47.3 14.9775C47.521 14.9779 47.7397 15.0223 47.9434 15.108C48.1471 15.1937 48.3318 15.3191 48.4865 15.4768C48.6413 15.6345 48.7632 15.8215 48.8451 16.0267L56.5384 36.9234Z" fill="#66757F"/>
<path d="M24.7617 36.6667H1.905C0.853333 36.6667 0 37.5184 0 38.5717C0 42.7784 5.97 46.1901 13.3333 46.1901C20.6967 46.1901 26.6667 42.7784 26.6667 38.5717C26.6667 37.5184 25.8133 36.6667 24.7617 36.6667ZM40 56.6667H20C19.558 56.6667 19.134 56.4912 18.8215 56.1786C18.5089 55.866 18.3333 55.4421 18.3333 55.0001C18.3333 51.3184 23.5567 48.3334 30 48.3334C36.4433 48.3334 41.6667 51.3184 41.6667 55.0001C41.6667 55.4421 41.4911 55.866 41.1785 56.1786C40.866 56.4912 40.442 56.6667 40 56.6667ZM58.095 36.6667H35.2383C34.185 36.6667 33.3333 37.5184 33.3333 38.5717C33.3333 42.7784 39.3017 46.1901 46.6667 46.1901C54.0317 46.1901 60 42.7784 60 38.5717C60 37.5184 59.1483 36.6667 58.095 36.6667Z" fill="#FFAC33"/>
<path d="M31.6668 4.99992C31.6668 4.55789 31.4912 4.13397 31.1787 3.82141C30.8661 3.50885 30.4422 3.33325 30.0002 3.33325C29.5581 3.33325 29.1342 3.50885 28.8217 3.82141C28.5091 4.13397 28.3335 4.55789 28.3335 4.99992V49.9999C28.3335 50.4419 28.5091 50.8659 28.8217 51.1784C29.1342 51.491 29.5581 51.6666 30.0002 51.6666C30.4422 51.6666 30.8661 51.491 31.1787 51.1784C31.4912 50.8659 31.6668 50.4419 31.6668 49.9999V4.99992Z" fill="#FFAC33"/>
<path d="M29.9998 9.99992C31.8408 9.99992 33.3332 8.50753 33.3332 6.66659C33.3332 4.82564 31.8408 3.33325 29.9998 3.33325C28.1589 3.33325 26.6665 4.82564 26.6665 6.66659C26.6665 8.50753 28.1589 9.99992 29.9998 9.99992Z" fill="#FFAC33"/>
<path d="M13.3333 19.9999C15.1743 19.9999 16.6667 18.5075 16.6667 16.6666C16.6667 14.8256 15.1743 13.3333 13.3333 13.3333C11.4924 13.3333 10 14.8256 10 16.6666C10 18.5075 11.4924 19.9999 13.3333 19.9999Z" fill="#FFAC33"/>
<path d="M46.6668 19.9999C48.5078 19.9999 50.0002 18.5075 50.0002 16.6666C50.0002 14.8256 48.5078 13.3333 46.6668 13.3333C44.8259 13.3333 43.3335 14.8256 43.3335 16.6666C43.3335 18.5075 44.8259 19.9999 46.6668 19.9999Z" fill="#FFAC33"/>
<path d="M46.6668 16.6667C46.6668 18.5067 46.6668 16.6667 30.0002 16.6667C13.3335 16.6667 13.3335 18.5067 13.3335 16.6667C13.3335 14.8267 18.3335 10 30.0002 10C41.6668 10 46.6668 14.8267 46.6668 16.6667Z" fill="#FFAC33"/>
</svg>
