<svg width="51" height="51" viewBox="0 0 51 51" fill="none" xmlns="http://www.w3.org/2000/svg">
<path d="M10.7998 35.4375L7.4248 43.2844L15.2717 39.9094C13.4998 38.6437 11.9811 37.125 10.7998 35.4375Z" fill="#FF8A00"/>
<path d="M39.825 15.1877L43.2 7.34082L35.4375 10.7158C37.125 11.9814 38.6438 13.5002 39.825 15.1877Z" fill="#FF8A00"/>
<path d="M7.93125 22.1904L0 25.3123L7.93125 28.4342C7.67812 27.4217 7.59375 26.4092 7.59375 25.3123C7.59375 24.2154 7.67812 23.2029 7.93125 22.1904Z" fill="#FF8A00"/>
<path d="M42.6938 28.4342L50.6251 25.3123L42.6938 22.1904C42.8626 23.2029 43.0313 24.2998 43.0313 25.3123C43.0313 26.4092 42.947 27.4217 42.6938 28.4342Z" fill="#FF8A00"/>
<path d="M15.1877 10.7998L7.34082 7.4248L10.7158 15.2717C11.9814 13.4998 13.5002 11.9811 15.1877 10.7998Z" fill="#FF8A00"/>
<path d="M35.4375 39.8249L43.2844 43.1999L39.9094 35.353C38.6437 37.1249 37.125 38.6437 35.4375 39.8249Z" fill="#FF8A00"/>
<path d="M28.4342 7.93125L25.3123 0L22.1904 7.93125C23.2029 7.7625 24.2998 7.59375 25.3123 7.59375C26.3248 7.59375 27.4217 7.67812 28.4342 7.93125Z" fill="#FF8A00"/>
<path d="M22.1904 42.6938L25.3123 50.6251L28.4342 42.6938C27.4217 42.947 26.4092 43.0313 25.3123 43.0313C24.2154 43.0313 23.2029 42.947 22.1904 42.6938Z" fill="#FF8A00"/>
<path d="M25.3125 41.3438C34.1663 41.3438 41.3438 34.1663 41.3438 25.3125C41.3438 16.4587 34.1663 9.28125 25.3125 9.28125C16.4587 9.28125 9.28125 16.4587 9.28125 25.3125C9.28125 34.1663 16.4587 41.3438 25.3125 41.3438Z" fill="#FF8A00"/>
<path d="M25.3125 41.3438C34.1663 41.3438 41.3438 34.1663 41.3438 25.3125C41.3438 16.4587 34.1663 9.28125 25.3125 9.28125C16.4587 9.28125 9.28125 16.4587 9.28125 25.3125C9.28125 34.1663 16.4587 41.3438 25.3125 41.3438Z" fill="#FCE202"/>
</svg>
