<svg width="54" height="54" viewBox="0 0 54 54" fill="none" xmlns="http://www.w3.org/2000/svg">
<g clip-path="url(#clip0_107_1327)">
<path d="M49.5872 40.1801C45.0513 47.9368 36.6342 53.1473 26.9999 53.1473C12.5593 53.1473 0.852539 41.4408 0.852539 26.9999C0.852539 12.5591 12.5593 0.852539 26.9999 0.852539C41.4407 0.852539 53.1473 12.5591 53.1473 26.9999C53.1473 30.8373 52.3208 34.4818 50.8357 37.7647" fill="#90C8EC"/>
<path d="M23.0617 17.1227C25.2364 17.1227 26.9994 15.3597 26.9994 13.185C26.9994 11.0103 25.2364 9.24731 23.0617 9.24731C20.887 9.24731 19.124 11.0103 19.124 13.185C19.124 15.3597 20.887 17.1227 23.0617 17.1227Z" fill="#578CAD"/>
<path d="M36.8314 18.1682C38.2072 18.1682 39.3225 17.0529 39.3225 15.6771C39.3225 14.3013 38.2072 13.186 36.8314 13.186C35.4556 13.186 34.3403 14.3013 34.3403 15.6771C34.3403 17.0529 35.4556 18.1682 36.8314 18.1682Z" fill="#578CAD"/>
<path d="M8.44709 35.4827C6.37168 35.4827 4.49149 36.3162 3.12061 37.6656C5.23452 42.3916 8.71055 46.3747 13.0492 49.1171C14.8675 47.7296 16.0415 45.5409 16.0415 43.0773C16.0416 38.8829 12.6413 35.4827 8.44709 35.4827Z" fill="#578CAD"/>
<path d="M35.011 41.5451C37.5063 41.5451 39.5292 39.5222 39.5292 37.0268C39.5292 34.5314 37.5063 32.5085 35.011 32.5085C32.5156 32.5085 30.4927 34.5314 30.4927 37.0268C30.4927 39.5222 32.5156 41.5451 35.011 41.5451Z" fill="#578CAD"/>
<path d="M17.5501 30.9355C18.9024 30.9355 19.9987 29.8392 19.9987 28.4869C19.9987 27.1346 18.9024 26.0383 17.5501 26.0383C16.1978 26.0383 15.1016 27.1346 15.1016 28.4869C15.1016 29.8392 16.1978 30.9355 17.5501 30.9355Z" fill="#578CAD"/>
<path d="M46.0919 7.90826C40.9922 2.80842 34.2118 0 27 0C19.7882 0 13.0079 2.80842 7.90826 7.90826C2.80842 13.0078 0 19.788 0 27C0 32.7105 1.76238 38.1494 5.02727 42.6986C5.06524 42.7517 5.10363 42.8045 5.14213 42.8572C5.20277 42.9403 5.26279 43.0238 5.32438 43.1063C6.6188 44.8478 8.12057 46.4282 9.80279 47.8165C9.91491 47.9094 10.028 48.0006 10.1413 48.0916C10.1483 48.0972 10.1551 48.1027 10.162 48.1082C14.9285 51.9256 20.8043 54 27 54C31.8017 54 36.5172 52.7234 40.6368 50.3081C44.6345 47.9642 47.9841 44.6109 50.3234 40.6105C50.5611 40.2039 50.4242 39.6819 50.0178 39.444C49.6112 39.2063 49.0893 39.3432 48.8513 39.7496C44.3263 47.4877 35.9535 52.2948 27 52.2948C22.4529 52.2948 18.1828 51.088 14.4914 48.9791C16.0311 47.4103 16.8943 45.3174 16.8943 43.0772C16.8943 38.4194 13.105 34.63 8.4471 34.63C6.63145 34.63 4.89945 35.2019 3.46001 36.2593C2.3277 33.3904 1.70522 30.2665 1.70522 27C1.70522 13.0524 13.0524 1.70522 27 1.70522C40.9476 1.70522 52.2948 13.0524 52.2948 27C52.2948 30.6301 51.5426 34.1337 50.0589 37.4134C49.8648 37.8424 50.0554 38.3475 50.4844 38.5415C50.9136 38.7357 51.4187 38.545 51.6126 38.1162C53.1969 34.6142 54 30.8743 54 27C54 19.788 51.1916 13.0078 46.0919 7.90826ZM8.44731 36.3353C12.1648 36.3353 15.1892 39.3597 15.1892 43.0771C15.1892 44.9943 14.3963 46.7766 12.995 48.0529C9.20995 45.5266 6.14123 42.0084 4.16391 37.8719C5.36857 36.8771 6.86834 36.3353 8.44731 36.3353Z" fill="#231F20"/>
<path d="M27.8525 13.1857C27.8525 10.5442 25.7037 8.39526 23.0623 8.39526C20.4208 8.39526 18.272 10.5442 18.272 13.1857C18.272 15.827 20.4208 17.9759 23.0623 17.9759C25.7037 17.9759 27.8525 15.8269 27.8525 13.1857ZM19.9773 13.1857C19.9773 11.4844 21.3613 10.1005 23.0624 10.1005C24.7635 10.1005 26.1473 11.4844 26.1473 13.1857C26.1473 14.8868 24.7634 16.2707 23.0623 16.2707C21.3612 16.2707 19.9773 14.8867 19.9773 13.1857Z" fill="#231F20"/>
<path d="M40.1756 15.6765C40.1756 13.8327 38.6758 12.3328 36.8321 12.3328C34.9883 12.3328 33.4883 13.8327 33.4883 15.6765C33.4883 17.5202 34.9883 19.0203 36.8321 19.0203C38.6757 19.0202 40.1756 17.5203 40.1756 15.6765ZM35.1934 15.6765C35.1934 14.7731 35.9285 14.038 36.832 14.038C37.7353 14.038 38.4703 14.7731 38.4703 15.6765C38.4703 16.58 37.7353 17.3151 36.832 17.3151C35.9285 17.315 35.1934 16.58 35.1934 15.6765Z" fill="#231F20"/>
<path d="M29.6406 37.0276C29.6406 39.9891 32.05 42.3985 35.0114 42.3985C37.973 42.3985 40.3824 39.9892 40.3824 37.0276C40.3824 34.0661 37.973 31.6567 35.0114 31.6567C32.05 31.6567 29.6406 34.066 29.6406 37.0276ZM35.0114 33.362C37.0327 33.362 38.6772 35.0064 38.6772 37.0276C38.6772 39.0488 37.0327 40.6933 35.0114 40.6933C32.9902 40.6933 31.3458 39.0489 31.3458 37.0276C31.3459 35.0063 32.9901 33.362 35.0114 33.362Z" fill="#231F20"/>
<path d="M14.2495 28.4867C14.2495 30.307 15.7304 31.788 17.5506 31.788C19.3709 31.788 20.8519 30.307 20.8519 28.4867C20.8519 26.6664 19.3709 25.1855 17.5506 25.1855C15.7304 25.1855 14.2495 26.6663 14.2495 28.4867ZM19.1466 28.4867C19.1466 29.3668 18.4306 30.0828 17.5506 30.0828C16.6707 30.0828 15.9548 29.3669 15.9548 28.4867C15.9548 27.6067 16.6707 26.8909 17.5506 26.8909C18.4306 26.8908 19.1466 27.6067 19.1466 28.4867Z" fill="#231F20"/>
<g opacity="0.2">
<path d="M3.52596 26.9999C3.52596 13.0076 14.5172 1.58207 28.3366 0.886184C27.8938 0.86393 27.4482 0.852539 26.9999 0.852539C12.5593 0.852539 0.852539 12.5591 0.852539 26.9999C0.852539 41.4408 12.5593 53.1473 26.9999 53.1473C27.4483 53.1473 27.8941 53.1359 28.3371 53.1137C14.5173 52.4179 3.52596 40.9926 3.52596 26.9999Z" fill="#231F20"/>
</g>
</g>
<defs>
<clipPath id="clip0_107_1327">
<rect width="54" height="54" fill="white"/>
</clipPath>
</defs>
</svg>
