<svg width="49" height="49" viewBox="0 0 49 49" fill="none" xmlns="http://www.w3.org/2000/svg">
<path d="M41.6278 13.0417C41.6278 14.4651 41.3832 15.829 40.9319 17.0979C39.3454 14.8763 36.7468 13.4286 33.8075 13.4286C32.2429 13.4286 30.7769 13.8399 29.5055 14.5589C27.6149 11.4189 24.1731 9.31896 20.2411 9.31896C19.4271 9.31896 18.6339 9.40902 17.8711 9.58052C19.359 4.56806 24.0016 0.912109 29.4982 0.912109C36.1968 0.912109 41.6278 6.34307 41.6278 13.0417Z" fill="#F7B239"/>
<path d="M33.2508 1.5048C32.0689 1.12055 30.808 0.912109 29.4982 0.912109C24.0016 0.912109 19.359 4.56797 17.8711 9.58042C18.6339 9.40892 19.4271 9.31886 20.2411 9.31886C21.3112 9.31886 22.3444 9.47543 23.3205 9.76513C24.7431 5.39838 28.5764 2.12103 33.2508 1.5048Z" fill="#E09B2D"/>
<path d="M42.5584 22.0142C44.8894 22.165 46.7349 24.1019 46.7349 26.4719C46.7349 28.9392 44.7348 30.9393 42.2675 30.9393C40.8927 30.9393 11.1346 30.9393 9.26592 30.9393C5.39952 30.9393 2.26562 27.8041 2.26562 23.9377C2.26562 20.0714 5.39961 16.9362 9.26592 16.9362C9.48126 16.9362 9.69295 16.9471 9.90226 16.9666C11.0289 13.2791 14.0716 10.4298 17.871 9.58065C18.6338 9.40915 19.427 9.31909 20.241 9.31909C24.173 9.31909 27.6148 11.4189 29.5054 14.559C30.7767 13.84 32.2428 13.4288 33.8074 13.4288C36.7467 13.4288 39.3453 14.8766 40.9318 17.098C41.9257 18.4885 42.5243 20.182 42.5584 22.0142Z" fill="#2197D8"/>
<path d="M6.03748 24.7892C6.03748 20.9228 9.17147 17.7876 13.0378 17.7876C13.2531 17.7876 13.4648 17.7985 13.6741 17.8181C14.8007 14.1305 17.8434 11.2812 21.6428 10.4321C22.4057 10.2606 23.1989 10.1705 24.0128 10.1705C24.1681 10.1705 24.3226 10.175 24.4763 10.1814C23.1755 9.62672 21.7443 9.31885 20.241 9.31885C19.427 9.31885 18.6338 9.4089 17.871 9.5804C14.0716 10.4296 11.0288 13.2789 9.90226 16.9664C9.69295 16.947 9.48135 16.936 9.26593 16.936C5.39952 16.936 2.26562 20.0712 2.26562 23.9375C2.26562 27.8038 5.39962 30.939 9.26593 30.939C9.35101 30.939 9.49437 30.939 9.6897 30.939C7.5137 29.7516 6.03748 27.4426 6.03748 24.7892Z" fill="#178BBF"/>
<path d="M39.5173 22.9832C39.0212 22.9832 38.6146 22.5857 38.6054 22.0876C38.5875 21.1169 38.2794 20.1863 37.7147 19.3962C37.2979 18.8126 36.7441 18.3215 36.1133 17.9753C35.6716 17.733 35.5099 17.1783 35.7523 16.7364C35.9946 16.2946 36.5493 16.133 36.9911 16.3753C37.8609 16.8524 38.6246 17.5301 39.1995 18.3352C39.9796 19.4265 40.4052 20.7124 40.4299 22.0537C40.4392 22.5575 40.0383 22.9736 39.5345 22.9828C39.5289 22.9832 39.5231 22.9832 39.5173 22.9832Z" fill="white"/>
<path d="M26.9006 17.0403C26.5911 17.0403 26.2894 16.8829 26.118 16.5984C24.8643 14.5161 22.6673 13.2729 20.241 13.2729C19.7372 13.2729 19.3286 12.8643 19.3286 12.3604C19.3286 11.8566 19.7372 11.448 20.241 11.448C23.3131 11.448 26.0946 13.0215 27.6815 15.6571C27.9413 16.0889 27.8021 16.6495 27.3703 16.9095C27.2233 16.9981 27.0609 17.0403 26.9006 17.0403Z" fill="white"/>
<path d="M15.0649 48.9999C14.7074 48.9999 14.368 48.7885 14.2221 48.4377L8.56489 34.8422C8.37129 34.3769 8.5915 33.8427 9.05681 33.6491C9.52183 33.4555 10.0562 33.6757 10.2498 34.141L15.907 47.7366C16.1007 48.2018 15.8804 48.736 15.4151 48.9297C15.3005 48.9773 15.1817 48.9999 15.0649 48.9999Z" fill="#2197D8"/>
<path d="M24.1811 48.9999C23.8236 48.9999 23.4842 48.7885 23.3383 48.4377L17.6811 34.8422C17.4875 34.3769 17.7077 33.8427 18.173 33.6491C18.638 33.4555 19.1724 33.6757 19.3661 34.141L25.0233 47.7366C25.2169 48.2018 24.9967 48.736 24.5312 48.9297C24.4166 48.9773 24.2978 48.9999 24.1811 48.9999Z" fill="#2197D8"/>
<path d="M33.2979 48.9999C32.9404 48.9999 32.601 48.7885 32.455 48.4378L26.7978 34.8422C26.6042 34.377 26.8244 33.8428 27.2898 33.6492C27.7548 33.4555 28.2891 33.6758 28.4828 34.1411L34.1401 47.7367C34.3337 48.2019 34.1134 48.7361 33.648 48.9297C33.5336 48.9774 33.4147 48.9999 33.2979 48.9999Z" fill="#2197D8"/>
<path d="M42.4141 48.9999C42.0566 48.9999 41.7172 48.7885 41.5712 48.4378L35.914 34.8422C35.7204 34.377 35.9406 33.8428 36.406 33.6492C36.871 33.4555 37.4053 33.6758 37.5991 34.1411L43.2563 47.7367C43.4499 48.2019 43.2297 48.7361 42.7643 48.9297C42.6496 48.9774 42.5308 48.9999 42.4141 48.9999Z" fill="#2197D8"/>
<path d="M33.807 17.3827C34.3109 17.3827 34.7194 16.9742 34.7194 16.4703C34.7194 15.9664 34.3109 15.5579 33.807 15.5579C33.303 15.5579 32.8945 15.9664 32.8945 16.4703C32.8945 16.9742 33.303 17.3827 33.807 17.3827Z" fill="white"/>
<path d="M43.4245 21.2179C43.2733 19.6873 42.7635 18.2336 41.9399 16.9563C42.3373 15.6954 42.5401 14.3811 42.5401 13.0418C42.5401 5.85052 36.6896 0 29.4984 0C26.6311 0 23.9103 0.912816 21.6307 2.63968C19.5672 4.2028 17.9938 6.38101 17.1581 8.81598C15.7407 9.20042 14.4044 9.85063 13.204 10.7531C11.4214 12.0934 10.0393 13.9459 9.25915 16.0236C4.89872 16.0275 1.35254 19.5762 1.35254 23.9376C1.35254 28.3012 4.90274 31.8515 9.26652 31.8515H42.2672C45.2338 31.8515 47.6472 29.438 47.6472 26.4716C47.6471 23.9196 45.8482 21.7507 43.4245 21.2179ZM22.7324 4.09437C24.6925 2.60963 27.032 1.82496 29.4984 1.82496C35.6834 1.82496 40.7152 6.85684 40.7152 13.0418C40.7152 13.7774 40.6424 14.5033 40.5027 15.2143C38.6938 13.4744 36.3211 12.516 33.807 12.516C32.4317 12.516 31.0704 12.8112 29.8233 13.3754C27.6262 10.2486 24.1034 8.40647 20.2405 8.40647C19.9139 8.40647 19.5893 8.41996 19.2676 8.44628C20.0367 6.74295 21.2334 5.22998 22.7324 4.09437ZM42.2672 30.0267H9.26642C5.90887 30.0267 3.17731 27.2951 3.17731 23.9376C3.17731 20.58 5.90887 17.8484 9.26642 17.8484C9.44194 17.8484 9.62301 17.8571 9.81987 17.8749C10.2503 17.9138 10.6483 17.6455 10.7744 17.2327C11.3807 15.2487 12.6329 13.4654 14.3005 12.2117C16.0238 10.9162 18.0778 10.2313 20.2404 10.2313C23.7424 10.2313 26.914 12.025 28.7242 15.0295C28.9792 15.4526 29.5245 15.5962 29.9548 15.3529C31.126 14.6907 32.4581 14.3406 33.8069 14.3406C35.875 14.3406 37.8262 15.1389 39.3009 16.5882C40.7736 18.0356 41.6064 19.9688 41.6456 22.0317C41.6546 22.5062 42.0258 22.8944 42.4993 22.9249C44.3625 23.0448 45.8221 24.6026 45.8221 26.4715C45.8221 28.4319 44.2274 30.0267 42.2672 30.0267Z" fill="#333333"/>
</svg>
