<svg width="64" height="52" viewBox="0 0 64 52" fill="none" xmlns="http://www.w3.org/2000/svg">
<path d="M32.0198 50.5194L31.9273 50.5425C31.9593 50.4443 32.002 50.268 32.002 49.9893C32.002 49.5516 31.7247 48.734 31.6482 48.617C31.5718 48.5 31.4882 48.4163 31.3033 48.4582C31.1629 48.4899 30.0855 48.929 29.3975 48.9507C28.1193 48.9897 27.5024 48.058 27.5024 48.058C27.5024 48.058 26.7931 48.3874 26.2296 48.6546C25.6642 48.9218 25.0082 49.3219 24.5247 49.5603C24.1122 49.7639 23.6411 49.8607 23.154 49.9113C22.6669 49.9618 22.2704 49.9445 22.1531 49.9532C22.0358 49.9618 21.0491 49.865 21.0136 50.658L21.0189 50.8415L20.9229 50.8039C20.9229 50.8039 20.8376 51.0495 20.8304 51.0957C20.8233 51.1434 20.7878 51.1708 20.9122 51.2344C21.0367 51.2979 21.5842 51.4886 22.2811 51.6302C22.978 51.7717 24.1087 51.9812 24.9816 51.9812C25.8544 51.9812 26.5976 51.8396 27.0278 51.7558C27.4598 51.672 28.3842 51.5117 28.4731 51.5449C28.562 51.5782 28.6793 51.8208 28.7807 51.8959C28.8838 51.971 31.6429 51.7789 31.8402 51.7457C31.9094 51.7359 31.9726 51.7075 32.0196 51.665C32.0667 51.6226 32.0949 51.5687 32.0998 51.5117V50.5743C32.1033 50.5353 32.0624 50.5093 32.0198 50.5194ZM51.4811 45.0998L50.5851 44.4802C50.5773 44.4747 50.568 44.4707 50.558 44.4686C50.548 44.4664 50.5375 44.4662 50.5274 44.4679C50.5173 44.4695 50.5078 44.4731 50.4996 44.4782C50.4914 44.4833 50.4848 44.4899 50.4802 44.4975L50.4411 44.5712C50.3042 44.4178 50.1434 44.2794 49.9629 44.1595C49.5451 43.8706 48.5816 43.5037 48.4198 43.4763C48.258 43.4474 48.1229 43.4445 48.0411 43.5875C47.9789 43.6973 47.6873 44.665 47.2518 45.1128C46.4447 45.9434 45.1469 45.7166 45.1469 45.7166L44.8749 46.9126C44.7558 47.4442 44.7042 48.123 44.6118 48.5853C44.5189 48.9791 44.3237 49.3524 44.0393 49.6802C43.7655 50.021 43.4882 50.2579 43.4171 50.3388C43.3478 50.4183 42.6047 50.9758 43.3371 51.5233L43.5167 51.6403L43.4189 51.6764C43.4189 51.6764 43.5967 51.8916 43.6358 51.9277C43.6749 51.9638 43.6802 52.0043 43.8207 51.9682C43.9611 51.932 44.5069 51.7125 45.1024 51.3673C45.6998 51.0206 46.6456 50.4472 47.2216 49.8968C47.7993 49.3465 48.1531 48.7846 48.3593 48.4582C48.5655 48.1317 49.0224 47.4427 49.1131 47.408C49.2038 47.3734 49.5113 47.46 49.6518 47.4456C49.7904 47.4312 51.4313 45.5649 51.5309 45.419C51.6304 45.2732 51.5398 45.1403 51.4811 45.0998Z" fill="#292F33"/>
<path d="M34.311 17.6843C35.959 19.071 39.7546 21.8587 39.8381 22.1924C40.2844 23.959 40.9297 25.9566 40.7626 27.1815C40.6417 28.0698 41.431 29.0564 41.7421 29.4681C42.1297 29.9794 43.1306 30.7652 43.7706 30.7103C44.1688 30.6771 44.7786 30.0892 44.4533 29.7916C43.8186 29.2138 43.9235 28.3342 43.5253 27.5397C42.727 25.9436 43.4453 22.9262 42.3501 20.9487C41.895 20.1297 41.047 18.5033 37.3297 15.7112C36.4213 16.3785 34.311 17.6843 34.311 17.6843Z" fill="#E2C196"/>
<path d="M28.5544 49.4044C26.3038 49.5619 25.2602 49.0679 25.4949 48.8036C25.7882 48.4742 25.7224 48.2301 25.726 48.0293C25.7758 44.5034 24.8887 39.3757 24.8887 39.3757C24.8887 38.873 24.894 38.2013 25.4433 37.1194C26.8264 34.3996 32.4673 26.0117 32.4673 26.0117C32.699 25.6823 33.0083 25.3932 33.3775 25.1609C33.7467 24.9286 34.1686 24.7577 34.6192 24.6579C35.0697 24.5581 35.54 24.5314 36.0032 24.5793C36.4664 24.6272 36.9135 24.7487 37.3189 24.937C39.0238 25.7286 39.3136 26.9664 38.6416 28.8789C37.3704 32.5016 33.3704 36.9707 31.7029 39.679C32.1011 42.7427 31.3936 45.2444 31.7651 48.1391C31.8184 48.5551 30.8051 49.247 28.5544 49.4044Z" fill="#2A6797"/>
<path d="M47.6392 46.1225C46.9921 46.9213 45.9147 47.4832 44.7983 47.333C42.5423 44.5539 35.9894 39.6471 35.9894 39.6471C35.561 39.286 34.9903 38.7992 34.4605 37.7101C33.1307 34.9729 30.0196 25.7544 30.0196 25.7544C29.9047 25.3868 29.8799 25.0044 29.9469 24.629C30.0139 24.2536 30.1712 23.8927 30.41 23.5667C30.6487 23.2408 30.9641 22.9562 31.3382 22.7293C31.7123 22.5024 32.1378 22.3377 32.5903 22.2444C34.4925 21.8515 35.7601 22.5795 36.9103 24.3331C39.0916 27.6568 40.0339 33.1298 41.1485 36.0187C44.473 38.2835 45.385 41.223 48.7485 43.459C48.633 44.6969 48.2863 45.3238 47.6392 46.1225Z" fill="#4289C1"/>
<path d="M33.0736 2.0482C30.2007 1.35342 26.1527 2.81375 25.7669 5.47442C25.2283 9.18664 28.1189 12.0972 30.9243 11.6509C33.8647 11.1829 35.6318 10.5213 36.5723 7.95453C37.5109 5.38775 35.9465 2.74297 33.0736 2.0482Z" fill="#F3D2A2"/>
<path d="M35.849 8.64937C39.4846 4.50815 29.785 5.56403 29.785 5.56403C27.9468 5.74748 29.4793 8.15392 28.7557 9.5767C28.2597 10.5618 30.8179 10.8868 30.8179 10.8868C30.8179 10.8868 31.9664 10.7929 32.1477 11.921L32.1495 11.9311C32.1939 12.2186 32.1922 12.5638 32.0748 13.0333C31.4899 15.3588 35.385 16.4884 35.9682 14.1585C36.1993 13.2369 35.9895 12.454 35.7477 11.7361L35.7246 11.6711C35.3602 10.6023 34.9513 9.67348 35.849 8.64937Z" fill="#F3D2A2"/>
<path d="M36.6506 2.58689C35.1199 1.17567 30.3804 0.165999 27.6622 2.27633C25.6106 2.13189 25.0008 3.74822 25.2675 4.63511C25.4808 5.34289 27.671 5.37755 28.359 6.70211C28.7022 6.33378 28.727 5.62744 28.6062 5.25911C29.3546 5.75167 29.2035 7.19322 32.0195 7.93133C34.743 8.64489 34.4764 10.5631 34.4764 10.5631C34.4764 10.5631 35.8044 9.93478 36.6719 8.96122C38.3324 7.10366 38.3377 4.14255 36.6506 2.58689Z" fill="#FFE51E"/>
<path d="M40.8891 28.8888C40.8891 28.8888 40.8891 30.3333 37.3335 30.3333H28.626C30.4038 23.7206 28.4589 21.8977 29.0544 17.9385C29.6962 13.6716 33.1202 11.047 35.2322 11.6696C38.4713 12.6244 40.0198 15.4844 40.4446 20.1312C40.8695 24.7779 40.8891 28.8888 40.8891 28.8888Z" fill="#FA743E"/>
<path d="M31.5554 17.033C31.2585 19.0537 30.983 23.4362 30.7038 23.7135C29.223 25.1883 27.6425 26.9491 26.2967 27.6554C25.3207 28.1667 24.855 29.3512 24.6487 29.8322C24.3927 30.4302 24.2701 31.6204 24.7501 32.009C25.0505 32.2516 26.0478 32.2646 26.1296 31.8501C26.2896 31.0426 27.2425 30.5255 27.7776 29.7311C28.8514 28.1364 32.3696 26.601 33.6301 24.5542C34.1527 23.7048 35.223 22.0567 35.5554 17.7234C34.2754 17.5645 31.5554 17.033 31.5554 17.033Z" fill="#F3D2A2"/>
</svg>
