<svg width="50" height="50" viewBox="0 0 50 50" fill="none" xmlns="http://www.w3.org/2000/svg">
<g clip-path="url(#clip0_148_935)">
<path d="M49.9945 37.721C49.8243 39.6787 49.2355 41.601 48.207 43.3458C48.1573 43.438 48.1077 43.5231 48.051 43.6153C47.5119 44.502 46.8594 45.3319 46.0933 46.0979C45.3343 46.8569 44.4974 47.5095 43.6178 48.0485C43.5256 48.1053 43.4404 48.155 43.3482 48.2046C41.6033 49.2401 39.674 49.836 37.7093 49.9991L34.5174 46.8001L27.9917 40.2815L27.3604 39.6503L24.6863 36.9762L14.5999 26.8756L8.07432 20.357L0.00244141 12.2781C0.151367 10.5687 0.619531 8.88057 1.42109 7.32002C1.57715 7.00791 1.74736 6.70293 1.93174 6.40508C2.4708 5.51133 3.13047 4.67441 3.90361 3.90117C4.67676 3.12803 5.51367 2.46836 6.40742 1.9293C6.70537 1.74482 7.01035 1.57461 7.32246 1.41855C8.88301 0.61709 10.5711 0.141895 12.2806 0L20.3525 8.079L26.8781 14.5976L36.9503 24.6769L39.6244 27.358L46.7884 34.522L49.9945 37.721Z" fill="#F5CCAB"/>
<path d="M13.4138 6.90762C13.6908 6.90762 13.9154 6.68302 13.9154 6.40596C13.9154 6.1289 13.6908 5.9043 13.4138 5.9043C13.1367 5.9043 12.9121 6.1289 12.9121 6.40596C12.9121 6.68302 13.1367 6.90762 13.4138 6.90762Z" fill="#F6C35B"/>
<path d="M15.5695 9.06338C15.8466 9.06338 16.0712 8.83878 16.0712 8.56172C16.0712 8.28466 15.8466 8.06006 15.5695 8.06006C15.2925 8.06006 15.0679 8.28466 15.0679 8.56172C15.0679 8.83878 15.2925 9.06338 15.5695 9.06338Z" fill="#F6C35B"/>
<path d="M17.7248 11.2189C18.0019 11.2189 18.2265 10.9943 18.2265 10.7172C18.2265 10.4402 18.0019 10.2156 17.7248 10.2156C17.4477 10.2156 17.2231 10.4402 17.2231 10.7172C17.2231 10.9943 17.4477 11.2189 17.7248 11.2189Z" fill="#F6C35B"/>
<path d="M19.8806 13.3744C20.1576 13.3744 20.3822 13.1498 20.3822 12.8728C20.3822 12.5957 20.1576 12.3711 19.8806 12.3711C19.6035 12.3711 19.3789 12.5957 19.3789 12.8728C19.3789 13.1498 19.6035 13.3744 19.8806 13.3744Z" fill="#F6C35B"/>
<path d="M22.0363 15.5302C22.3134 15.5302 22.538 15.3056 22.538 15.0285C22.538 14.7515 22.3134 14.5269 22.0363 14.5269C21.7593 14.5269 21.5347 14.7515 21.5347 15.0285C21.5347 15.3056 21.7593 15.5302 22.0363 15.5302Z" fill="#F6C35B"/>
<path d="M24.1921 17.6859C24.4691 17.6859 24.6938 17.4613 24.6938 17.1843C24.6938 16.9072 24.4691 16.6826 24.1921 16.6826C23.915 16.6826 23.6904 16.9072 23.6904 17.1843C23.6904 17.4613 23.915 17.6859 24.1921 17.6859Z" fill="#F6C35B"/>
<path d="M26.3474 19.8415C26.6244 19.8415 26.849 19.6169 26.849 19.3398C26.849 19.0627 26.6244 18.8381 26.3474 18.8381C26.0703 18.8381 25.8457 19.0627 25.8457 19.3398C25.8457 19.6169 26.0703 19.8415 26.3474 19.8415Z" fill="#F6C35B"/>
<path d="M28.5031 21.997C28.7802 21.997 29.0048 21.7724 29.0048 21.4953C29.0048 21.2183 28.7802 20.9937 28.5031 20.9937C28.2261 20.9937 28.0015 21.2183 28.0015 21.4953C28.0015 21.7724 28.2261 21.997 28.5031 21.997Z" fill="#F6C35B"/>
<path d="M10.7126 7.42617C10.9897 7.42617 11.2143 7.20157 11.2143 6.92451C11.2143 6.64745 10.9897 6.42285 10.7126 6.42285C10.4355 6.42285 10.2109 6.64745 10.2109 6.92451C10.2109 7.20157 10.4355 7.42617 10.7126 7.42617Z" fill="#F6C35B"/>
<path d="M12.8679 9.58169C13.1449 9.58169 13.3695 9.35709 13.3695 9.08003C13.3695 8.80297 13.1449 8.57837 12.8679 8.57837C12.5908 8.57837 12.3662 8.80297 12.3662 9.08003C12.3662 9.35709 12.5908 9.58169 12.8679 9.58169Z" fill="#F6C35B"/>
<path d="M15.0236 11.7372C15.3007 11.7372 15.5253 11.5126 15.5253 11.2355C15.5253 10.9585 15.3007 10.7339 15.0236 10.7339C14.7466 10.7339 14.522 10.9585 14.522 11.2355C14.522 11.5126 14.7466 11.7372 15.0236 11.7372Z" fill="#F6C35B"/>
<path d="M17.1794 13.893C17.4565 13.893 17.6811 13.6684 17.6811 13.3913C17.6811 13.1142 17.4565 12.8896 17.1794 12.8896C16.9023 12.8896 16.6777 13.1142 16.6777 13.3913C16.6777 13.6684 16.9023 13.893 17.1794 13.893Z" fill="#F6C35B"/>
<path d="M19.3352 16.0487C19.6122 16.0487 19.8368 15.8241 19.8368 15.5471C19.8368 15.27 19.6122 15.0454 19.3352 15.0454C19.0581 15.0454 18.8335 15.27 18.8335 15.5471C18.8335 15.8241 19.0581 16.0487 19.3352 16.0487Z" fill="#F6C35B"/>
<path d="M21.4904 18.2042C21.7675 18.2042 21.9921 17.9796 21.9921 17.7026C21.9921 17.4255 21.7675 17.2009 21.4904 17.2009C21.2134 17.2009 20.9888 17.4255 20.9888 17.7026C20.9888 17.9796 21.2134 18.2042 21.4904 18.2042Z" fill="#F6C35B"/>
<path d="M23.6462 20.3598C23.9233 20.3598 24.1479 20.1352 24.1479 19.8581C24.1479 19.581 23.9233 19.3564 23.6462 19.3564C23.3691 19.3564 23.1445 19.581 23.1445 19.8581C23.1445 20.1352 23.3691 20.3598 23.6462 20.3598Z" fill="#F6C35B"/>
<path d="M25.802 22.5155C26.079 22.5155 26.3036 22.2909 26.3036 22.0139C26.3036 21.7368 26.079 21.5122 25.802 21.5122C25.5249 21.5122 25.3003 21.7368 25.3003 22.0139C25.3003 22.2909 25.5249 22.5155 25.802 22.5155Z" fill="#F6C35B"/>
<path d="M7.75166 8.2582C8.02872 8.2582 8.25332 8.0336 8.25332 7.75654C8.25332 7.47948 8.02872 7.25488 7.75166 7.25488C7.4746 7.25488 7.25 7.47948 7.25 7.75654C7.25 8.0336 7.4746 8.2582 7.75166 8.2582Z" fill="#F6C35B"/>
<path d="M9.90742 10.414C10.1845 10.414 10.4091 10.1894 10.4091 9.9123C10.4091 9.63525 10.1845 9.41064 9.90742 9.41064C9.63036 9.41064 9.40576 9.63525 9.40576 9.9123C9.40576 10.1894 9.63036 10.414 9.90742 10.414Z" fill="#F6C35B"/>
<path d="M12.0632 12.5697C12.3402 12.5697 12.5648 12.3451 12.5648 12.0681C12.5648 11.791 12.3402 11.5664 12.0632 11.5664C11.7861 11.5664 11.5615 11.791 11.5615 12.0681C11.5615 12.3451 11.7861 12.5697 12.0632 12.5697Z" fill="#F6C35B"/>
<path d="M14.2185 14.7252C14.4955 14.7252 14.7201 14.5006 14.7201 14.2236C14.7201 13.9465 14.4955 13.7219 14.2185 13.7219C13.9414 13.7219 13.7168 13.9465 13.7168 14.2236C13.7168 14.5006 13.9414 14.7252 14.2185 14.7252Z" fill="#F6C35B"/>
<path d="M16.3742 16.8808C16.6513 16.8808 16.8759 16.6562 16.8759 16.3791C16.8759 16.102 16.6513 15.8774 16.3742 15.8774C16.0972 15.8774 15.8726 16.102 15.8726 16.3791C15.8726 16.6562 16.0972 16.8808 16.3742 16.8808Z" fill="#F6C35B"/>
<path d="M18.53 19.0365C18.807 19.0365 19.0316 18.8119 19.0316 18.5349C19.0316 18.2578 18.807 18.0332 18.53 18.0332C18.2529 18.0332 18.0283 18.2578 18.0283 18.5349C18.0283 18.8119 18.2529 19.0365 18.53 19.0365Z" fill="#F6C35B"/>
<path d="M20.6857 21.192C20.9628 21.192 21.1874 20.9674 21.1874 20.6904C21.1874 20.4133 20.9628 20.1887 20.6857 20.1887C20.4087 20.1887 20.1841 20.4133 20.1841 20.6904C20.1841 20.9674 20.4087 21.192 20.6857 21.192Z" fill="#F6C35B"/>
<path d="M22.841 23.3478C23.1181 23.3478 23.3427 23.1232 23.3427 22.8461C23.3427 22.5691 23.1181 22.3445 22.841 22.3445C22.564 22.3445 22.3394 22.5691 22.3394 22.8461C22.3394 23.1232 22.564 23.3478 22.841 23.3478Z" fill="#F6C35B"/>
<path d="M24.9968 25.5033C25.2738 25.5033 25.4984 25.2787 25.4984 25.0017C25.4984 24.7246 25.2738 24.5 24.9968 24.5C24.7197 24.5 24.4951 24.7246 24.4951 25.0017C24.4951 25.2787 24.7197 25.5033 24.9968 25.5033Z" fill="#F6C35B"/>
<path d="M7.20625 10.9325C7.48331 10.9325 7.70791 10.7079 7.70791 10.4309C7.70791 10.1538 7.48331 9.9292 7.20625 9.9292C6.92919 9.9292 6.70459 10.1538 6.70459 10.4309C6.70459 10.7079 6.92919 10.9325 7.20625 10.9325Z" fill="#F6C35B"/>
<path d="M9.36152 13.088C9.63858 13.088 9.86318 12.8634 9.86318 12.5864C9.86318 12.3093 9.63858 12.0847 9.36152 12.0847C9.08446 12.0847 8.85986 12.3093 8.85986 12.5864C8.85986 12.8634 9.08446 13.088 9.36152 13.088Z" fill="#F6C35B"/>
<path d="M11.5173 15.2436C11.7943 15.2436 12.0189 15.019 12.0189 14.7419C12.0189 14.4648 11.7943 14.2402 11.5173 14.2402C11.2402 14.2402 11.0156 14.4648 11.0156 14.7419C11.0156 15.019 11.2402 15.2436 11.5173 15.2436Z" fill="#F6C35B"/>
<path d="M13.673 17.3993C13.9501 17.3993 14.1747 17.1747 14.1747 16.8977C14.1747 16.6206 13.9501 16.396 13.673 16.396C13.396 16.396 13.1714 16.6206 13.1714 16.8977C13.1714 17.1747 13.396 17.3993 13.673 17.3993Z" fill="#F6C35B"/>
<path d="M15.8288 19.5551C16.1059 19.5551 16.3305 19.3305 16.3305 19.0534C16.3305 18.7764 16.1059 18.5518 15.8288 18.5518C15.5518 18.5518 15.3271 18.7764 15.3271 19.0534C15.3271 19.3305 15.5518 19.5551 15.8288 19.5551Z" fill="#F6C35B"/>
<path d="M17.9841 21.7106C18.2611 21.7106 18.4857 21.486 18.4857 21.2089C18.4857 20.9319 18.2611 20.7073 17.9841 20.7073C17.707 20.7073 17.4824 20.9319 17.4824 21.2089C17.4824 21.486 17.707 21.7106 17.9841 21.7106Z" fill="#F6C35B"/>
<path d="M20.1398 23.8661C20.4169 23.8661 20.6415 23.6415 20.6415 23.3645C20.6415 23.0874 20.4169 22.8628 20.1398 22.8628C19.8628 22.8628 19.6382 23.0874 19.6382 23.3645C19.6382 23.6415 19.8628 23.8661 20.1398 23.8661Z" fill="#F6C35B"/>
<path d="M22.2956 26.0219C22.5727 26.0219 22.7973 25.7973 22.7973 25.5202C22.7973 25.2432 22.5727 25.0186 22.2956 25.0186C22.0185 25.0186 21.7939 25.2432 21.7939 25.5202C21.7939 25.7973 22.0185 26.0219 22.2956 26.0219Z" fill="#F6C35B"/>
<path d="M6.40107 13.9203C6.67813 13.9203 6.90273 13.6957 6.90273 13.4187C6.90273 13.1416 6.67813 12.917 6.40107 12.917C6.12402 12.917 5.89941 13.1416 5.89941 13.4187C5.89941 13.6957 6.12402 13.9203 6.40107 13.9203Z" fill="#F6C35B"/>
<path d="M8.55684 16.0758C8.8339 16.0758 9.0585 15.8512 9.0585 15.5742C9.0585 15.2971 8.8339 15.0725 8.55684 15.0725C8.27978 15.0725 8.05518 15.2971 8.05518 15.5742C8.05518 15.8512 8.27978 16.0758 8.55684 16.0758Z" fill="#F6C35B"/>
<path d="M10.7126 18.2316C10.9897 18.2316 11.2143 18.007 11.2143 17.7299C11.2143 17.4529 10.9897 17.2283 10.7126 17.2283C10.4355 17.2283 10.2109 17.4529 10.2109 17.7299C10.2109 18.007 10.4355 18.2316 10.7126 18.2316Z" fill="#F6C35B"/>
<path d="M12.8679 20.3871C13.1449 20.3871 13.3695 20.1625 13.3695 19.8855C13.3695 19.6084 13.1449 19.3838 12.8679 19.3838C12.5908 19.3838 12.3662 19.6084 12.3662 19.8855C12.3662 20.1625 12.5908 20.3871 12.8679 20.3871Z" fill="#F6C35B"/>
<path d="M15.0236 22.5429C15.3007 22.5429 15.5253 22.3183 15.5253 22.0412C15.5253 21.7642 15.3007 21.5396 15.0236 21.5396C14.7466 21.5396 14.522 21.7642 14.522 22.0412C14.522 22.3183 14.7466 22.5429 15.0236 22.5429Z" fill="#F6C35B"/>
<path d="M17.1794 24.6984C17.4565 24.6984 17.6811 24.4738 17.6811 24.1967C17.6811 23.9197 17.4565 23.6951 17.1794 23.6951C16.9023 23.6951 16.6777 23.9197 16.6777 24.1967C16.6777 24.4738 16.9023 24.6984 17.1794 24.6984Z" fill="#F6C35B"/>
<path d="M19.3352 26.8541C19.6122 26.8541 19.8368 26.6295 19.8368 26.3525C19.8368 26.0754 19.6122 25.8508 19.3352 25.8508C19.0581 25.8508 18.8335 26.0754 18.8335 26.3525C18.8335 26.6295 19.0581 26.8541 19.3352 26.8541Z" fill="#F6C35B"/>
<path d="M21.4904 29.0097C21.7675 29.0097 21.9921 28.7851 21.9921 28.508C21.9921 28.2309 21.7675 28.0063 21.4904 28.0063C21.2134 28.0063 20.9888 28.2309 20.9888 28.508C20.9888 28.7851 21.2134 29.0097 21.4904 29.0097Z" fill="#F6C35B"/>
<path d="M43.5925 37.0863C43.8695 37.0863 44.0941 36.8617 44.0941 36.5847C44.0941 36.3076 43.8695 36.083 43.5925 36.083C43.3154 36.083 43.0908 36.3076 43.0908 36.5847C43.0908 36.8617 43.3154 37.0863 43.5925 37.0863Z" fill="#F6C35B"/>
<path d="M41.4367 34.9308C41.7138 34.9308 41.9384 34.7062 41.9384 34.4291C41.9384 34.1521 41.7138 33.9275 41.4367 33.9275C41.1597 33.9275 40.9351 34.1521 40.9351 34.4291C40.9351 34.7062 41.1597 34.9308 41.4367 34.9308Z" fill="#F6C35B"/>
<path d="M39.2814 32.7753C39.5585 32.7753 39.7831 32.5507 39.7831 32.2736C39.7831 31.9966 39.5585 31.772 39.2814 31.772C39.0044 31.772 38.7798 31.9966 38.7798 32.2736C38.7798 32.5507 39.0044 32.7753 39.2814 32.7753Z" fill="#F6C35B"/>
<path d="M37.1257 30.6195C37.4027 30.6195 37.6273 30.3949 37.6273 30.1179C37.6273 29.8408 37.4027 29.6162 37.1257 29.6162C36.8486 29.6162 36.624 29.8408 36.624 30.1179C36.624 30.3949 36.8486 30.6195 37.1257 30.6195Z" fill="#F6C35B"/>
<path d="M34.9699 28.4638C35.247 28.4638 35.4716 28.2392 35.4716 27.9621C35.4716 27.6851 35.247 27.4604 34.9699 27.4604C34.6929 27.4604 34.4683 27.6851 34.4683 27.9621C34.4683 28.2392 34.6929 28.4638 34.9699 28.4638Z" fill="#F6C35B"/>
<path d="M32.8142 26.3083C33.0912 26.3083 33.3158 26.0837 33.3158 25.8066C33.3158 25.5295 33.0912 25.3049 32.8142 25.3049C32.5371 25.3049 32.3125 25.5295 32.3125 25.8066C32.3125 26.0837 32.5371 26.3083 32.8142 26.3083Z" fill="#F6C35B"/>
<path d="M30.6589 24.1527C30.9359 24.1527 31.1605 23.9281 31.1605 23.6511C31.1605 23.374 30.9359 23.1494 30.6589 23.1494C30.3818 23.1494 30.1572 23.374 30.1572 23.6511C30.1572 23.9281 30.3818 24.1527 30.6589 24.1527Z" fill="#F6C35B"/>
<path d="M28.5031 21.997C28.7802 21.997 29.0048 21.7724 29.0048 21.4953C29.0048 21.2183 28.7802 20.9937 28.5031 20.9937C28.2261 20.9937 28.0015 21.2183 28.0015 21.4953C28.0015 21.7724 28.2261 21.997 28.5031 21.997Z" fill="#F6C35B"/>
<path d="M43.0739 39.7877C43.351 39.7877 43.5756 39.5631 43.5756 39.2861C43.5756 39.009 43.351 38.7844 43.0739 38.7844C42.7969 38.7844 42.5723 39.009 42.5723 39.2861C42.5723 39.5631 42.7969 39.7877 43.0739 39.7877Z" fill="#F6C35B"/>
<path d="M40.9187 37.6322C41.1957 37.6322 41.4203 37.4076 41.4203 37.1306C41.4203 36.8535 41.1957 36.6289 40.9187 36.6289C40.6416 36.6289 40.417 36.8535 40.417 37.1306C40.417 37.4076 40.6416 37.6322 40.9187 37.6322Z" fill="#F6C35B"/>
<path d="M38.7629 35.4765C39.0399 35.4765 39.2646 35.2519 39.2646 34.9748C39.2646 34.6977 39.0399 34.4731 38.7629 34.4731C38.4858 34.4731 38.2612 34.6977 38.2612 34.9748C38.2612 35.2519 38.4858 35.4765 38.7629 35.4765Z" fill="#F6C35B"/>
<path d="M36.6071 33.3209C36.8842 33.3209 37.1088 33.0963 37.1088 32.8193C37.1088 32.5422 36.8842 32.3176 36.6071 32.3176C36.3301 32.3176 36.1055 32.5422 36.1055 32.8193C36.1055 33.0963 36.3301 33.3209 36.6071 33.3209Z" fill="#F6C35B"/>
<path d="M34.4514 31.1652C34.7284 31.1652 34.953 30.9406 34.953 30.6635C34.953 30.3865 34.7284 30.1619 34.4514 30.1619C34.1743 30.1619 33.9497 30.3865 33.9497 30.6635C33.9497 30.9406 34.1743 31.1652 34.4514 31.1652Z" fill="#F6C35B"/>
<path d="M32.2961 29.0097C32.5732 29.0097 32.7978 28.7851 32.7978 28.508C32.7978 28.2309 32.5732 28.0063 32.2961 28.0063C32.019 28.0063 31.7944 28.2309 31.7944 28.508C31.7944 28.7851 32.019 29.0097 32.2961 29.0097Z" fill="#F6C35B"/>
<path d="M30.1403 26.8539C30.4174 26.8539 30.642 26.6293 30.642 26.3522C30.642 26.0752 30.4174 25.8506 30.1403 25.8506C29.8633 25.8506 29.6387 26.0752 29.6387 26.3522C29.6387 26.6293 29.8633 26.8539 30.1403 26.8539Z" fill="#F6C35B"/>
<path d="M27.9846 24.6984C28.2616 24.6984 28.4862 24.4738 28.4862 24.1967C28.4862 23.9197 28.2616 23.6951 27.9846 23.6951C27.7075 23.6951 27.4829 23.9197 27.4829 24.1967C27.4829 24.4738 27.7075 24.6984 27.9846 24.6984Z" fill="#F6C35B"/>
<path d="M42.2419 42.7484C42.519 42.7484 42.7436 42.5238 42.7436 42.2468C42.7436 41.9697 42.519 41.7451 42.2419 41.7451C41.9648 41.7451 41.7402 41.9697 41.7402 42.2468C41.7402 42.5238 41.9648 42.7484 42.2419 42.7484Z" fill="#F6C35B"/>
<path d="M40.0861 40.5927C40.3632 40.5927 40.5878 40.3681 40.5878 40.091C40.5878 39.814 40.3632 39.5894 40.0861 39.5894C39.8091 39.5894 39.5845 39.814 39.5845 40.091C39.5845 40.3681 39.8091 40.5927 40.0861 40.5927Z" fill="#F6C35B"/>
<path d="M37.9304 38.4372C38.2074 38.4372 38.432 38.2126 38.432 37.9355C38.432 37.6584 38.2074 37.4338 37.9304 37.4338C37.6533 37.4338 37.4287 37.6584 37.4287 37.9355C37.4287 38.2126 37.6533 38.4372 37.9304 38.4372Z" fill="#F6C35B"/>
<path d="M35.7751 36.2814C36.0522 36.2814 36.2768 36.0568 36.2768 35.7797C36.2768 35.5027 36.0522 35.2781 35.7751 35.2781C35.498 35.2781 35.2734 35.5027 35.2734 35.7797C35.2734 36.0568 35.498 36.2814 35.7751 36.2814Z" fill="#F6C35B"/>
<path d="M33.6193 34.1259C33.8964 34.1259 34.121 33.9013 34.121 33.6242C34.121 33.3472 33.8964 33.1226 33.6193 33.1226C33.3423 33.1226 33.1177 33.3472 33.1177 33.6242C33.1177 33.9013 33.3423 34.1259 33.6193 34.1259Z" fill="#F6C35B"/>
<path d="M31.4636 31.9701C31.7406 31.9701 31.9652 31.7455 31.9652 31.4685C31.9652 31.1914 31.7406 30.9668 31.4636 30.9668C31.1865 30.9668 30.9619 31.1914 30.9619 31.4685C30.9619 31.7455 31.1865 31.9701 31.4636 31.9701Z" fill="#F6C35B"/>
<path d="M29.3078 29.8146C29.5849 29.8146 29.8095 29.59 29.8095 29.3129C29.8095 29.0359 29.5849 28.8113 29.3078 28.8113C29.0308 28.8113 28.8062 29.0359 28.8062 29.3129C28.8062 29.59 29.0308 29.8146 29.3078 29.8146Z" fill="#F6C35B"/>
<path d="M27.1525 27.6591C27.4296 27.6591 27.6542 27.4345 27.6542 27.1574C27.6542 26.8804 27.4296 26.6558 27.1525 26.6558C26.8755 26.6558 26.6509 26.8804 26.6509 27.1574C26.6509 27.4345 26.8755 27.6591 27.1525 27.6591Z" fill="#F6C35B"/>
<path d="M24.9968 25.5033C25.2738 25.5033 25.4984 25.2787 25.4984 25.0017C25.4984 24.7246 25.2738 24.5 24.9968 24.5C24.7197 24.5 24.4951 24.7246 24.4951 25.0017C24.4951 25.2787 24.7197 25.5033 24.9968 25.5033Z" fill="#F6C35B"/>
<path d="M39.5676 43.2941C39.8446 43.2941 40.0692 43.0695 40.0692 42.7924C40.0692 42.5154 39.8446 42.2908 39.5676 42.2908C39.2905 42.2908 39.0659 42.5154 39.0659 42.7924C39.0659 43.0695 39.2905 43.2941 39.5676 43.2941Z" fill="#F6C35B"/>
<path d="M37.4123 41.1386C37.6894 41.1386 37.914 40.914 37.914 40.6369C37.914 40.3599 37.6894 40.1353 37.4123 40.1353C37.1352 40.1353 36.9106 40.3599 36.9106 40.6369C36.9106 40.914 37.1352 41.1386 37.4123 41.1386Z" fill="#F6C35B"/>
<path d="M35.2565 38.9828C35.5336 38.9828 35.7582 38.7582 35.7582 38.4812C35.7582 38.2041 35.5336 37.9795 35.2565 37.9795C34.9795 37.9795 34.7549 38.2041 34.7549 38.4812C34.7549 38.7582 34.9795 38.9828 35.2565 38.9828Z" fill="#F6C35B"/>
<path d="M33.1008 36.8273C33.3778 36.8273 33.6024 36.6027 33.6024 36.3256C33.6024 36.0486 33.3778 35.824 33.1008 35.824C32.8237 35.824 32.5991 36.0486 32.5991 36.3256C32.5991 36.6027 32.8237 36.8273 33.1008 36.8273Z" fill="#F6C35B"/>
<path d="M30.945 34.6715C31.2221 34.6715 31.4467 34.4469 31.4467 34.1699C31.4467 33.8928 31.2221 33.6682 30.945 33.6682C30.668 33.6682 30.4434 33.8928 30.4434 34.1699C30.4434 34.4469 30.668 34.6715 30.945 34.6715Z" fill="#F6C35B"/>
<path d="M28.7897 32.516C29.0668 32.516 29.2914 32.2914 29.2914 32.0144C29.2914 31.7373 29.0668 31.5127 28.7897 31.5127C28.5127 31.5127 28.2881 31.7373 28.2881 32.0144C28.2881 32.2914 28.5127 32.516 28.7897 32.516Z" fill="#F6C35B"/>
<path d="M26.634 30.3603C26.911 30.3603 27.1356 30.1357 27.1356 29.8586C27.1356 29.5815 26.911 29.3569 26.634 29.3569C26.3569 29.3569 26.1323 29.5815 26.1323 29.8586C26.1323 30.1357 26.3569 30.3603 26.634 30.3603Z" fill="#F6C35B"/>
<path d="M24.4782 28.2047C24.7553 28.2047 24.9799 27.9801 24.9799 27.7031C24.9799 27.426 24.7553 27.2014 24.4782 27.2014C24.2012 27.2014 23.9766 27.426 23.9766 27.7031C23.9766 27.9801 24.2012 28.2047 24.4782 28.2047Z" fill="#F6C35B"/>
<path d="M36.5798 44.099C36.8568 44.099 37.0814 43.8744 37.0814 43.5974C37.0814 43.3203 36.8568 43.0957 36.5798 43.0957C36.3027 43.0957 36.0781 43.3203 36.0781 43.5974C36.0781 43.8744 36.3027 44.099 36.5798 44.099Z" fill="#F6C35B"/>
<path d="M34.424 41.9435C34.7011 41.9435 34.9257 41.7189 34.9257 41.4418C34.9257 41.1648 34.7011 40.9402 34.424 40.9402C34.147 40.9402 33.9224 41.1648 33.9224 41.4418C33.9224 41.7189 34.147 41.9435 34.424 41.9435Z" fill="#F6C35B"/>
<path d="M32.2687 39.7877C32.5458 39.7877 32.7704 39.5631 32.7704 39.2861C32.7704 39.009 32.5458 38.7844 32.2687 38.7844C31.9917 38.7844 31.7671 39.009 31.7671 39.2861C31.7671 39.5631 31.9917 39.7877 32.2687 39.7877Z" fill="#F6C35B"/>
<path d="M30.113 37.6322C30.39 37.6322 30.6147 37.4076 30.6147 37.1306C30.6147 36.8535 30.39 36.6289 30.113 36.6289C29.8359 36.6289 29.6113 36.8535 29.6113 37.1306C29.6113 37.4076 29.8359 37.6322 30.113 37.6322Z" fill="#F6C35B"/>
<path d="M27.9572 35.4765C28.2343 35.4765 28.4589 35.2519 28.4589 34.9748C28.4589 34.6977 28.2343 34.4731 27.9572 34.4731C27.6802 34.4731 27.4556 34.6977 27.4556 34.9748C27.4556 35.2519 27.6802 35.4765 27.9572 35.4765Z" fill="#F6C35B"/>
<path d="M25.802 33.3209C26.079 33.3209 26.3036 33.0963 26.3036 32.8193C26.3036 32.5422 26.079 32.3176 25.802 32.3176C25.5249 32.3176 25.3003 32.5422 25.3003 32.8193C25.3003 33.0963 25.5249 33.3209 25.802 33.3209Z" fill="#F6C35B"/>
<path d="M23.6462 31.1652C23.9233 31.1652 24.1479 30.9406 24.1479 30.6635C24.1479 30.3865 23.9233 30.1619 23.6462 30.1619C23.3691 30.1619 23.1445 30.3865 23.1445 30.6635C23.1445 30.9406 23.3691 31.1652 23.6462 31.1652Z" fill="#F6C35B"/>
<path d="M21.4904 29.0097C21.7675 29.0097 21.9921 28.7851 21.9921 28.508C21.9921 28.2309 21.7675 28.0063 21.4904 28.0063C21.2134 28.0063 20.9888 28.2309 20.9888 28.508C20.9888 28.7851 21.2134 29.0097 21.4904 29.0097Z" fill="#F6C35B"/>
<path opacity="0.1" d="M39.6241 27.3579L38.1487 28.8475L37.3401 29.6632L36.6734 30.33L33.8291 33.1743L33.5027 33.5005L33.1694 33.841L30.3322 36.6782L29.6654 37.3521L27.3602 39.6503L24.686 36.9762L30.8216 30.8265L35.4463 26.1946L36.95 24.6768L39.6241 27.3579Z" fill="#040000"/>
<path opacity="0.1" d="M26.8468 14.5808L25.3714 16.0704L24.5627 16.8861L23.896 17.5528L21.0517 20.3971L20.7254 20.7234L20.392 21.0639L17.5548 23.9011L16.8881 24.575L14.5828 26.8731L11.9087 24.199L18.0442 18.0494L22.6689 13.4175L24.1727 11.8997L26.8468 14.5808Z" fill="#040000"/>
<path d="M0 37.7149L3.20117 34.521L9.71973 27.9954L23.1257 14.6036L29.6442 8.07803L37.7184 0.00390625C39.4278 0.152832 41.116 0.620898 42.6764 1.42256C42.9885 1.57861 43.2936 1.74883 43.5914 1.9332C44.4852 2.47227 45.3221 3.13193 46.0952 3.90508C46.8684 4.67813 47.528 5.51523 48.0671 6.40879C48.2516 6.70684 48.4218 7.01182 48.5777 7.32383C49.3793 8.88447 49.8545 10.5726 49.9964 12.282L41.9223 20.3562L35.4037 26.8817L21.9978 40.2733L15.4794 46.792L12.2781 50.0002C10.3204 49.83 8.39824 49.2412 6.65332 48.2127C6.56113 48.163 6.47598 48.1135 6.38379 48.0566C5.49717 47.5176 4.66728 46.865 3.90117 46.0989C3.14219 45.3399 2.48965 44.503 1.95059 43.6234C1.89385 43.5313 1.84424 43.4461 1.79453 43.354C0.758984 41.609 0.163184 39.6797 0 37.7149Z" fill="#F5CCAB"/>
<path d="M43.5939 13.9191C43.871 13.9191 44.0956 13.6945 44.0956 13.4174C44.0956 13.1404 43.871 12.9158 43.5939 12.9158C43.3169 12.9158 43.0923 13.1404 43.0923 13.4174C43.0923 13.6945 43.3169 13.9191 43.5939 13.9191Z" fill="#F6C35B"/>
<path d="M41.4382 16.0749C41.7152 16.0749 41.9398 15.8503 41.9398 15.5732C41.9398 15.2961 41.7152 15.0715 41.4382 15.0715C41.1611 15.0715 40.9365 15.2961 40.9365 15.5732C40.9365 15.8503 41.1611 16.0749 41.4382 16.0749Z" fill="#F6C35B"/>
<path d="M39.2829 18.2304C39.56 18.2304 39.7846 18.0058 39.7846 17.7287C39.7846 17.4517 39.56 17.2271 39.2829 17.2271C39.0059 17.2271 38.7812 17.4517 38.7812 17.7287C38.7812 18.0058 39.0059 18.2304 39.2829 18.2304Z" fill="#F6C35B"/>
<path d="M37.1271 20.3859C37.4042 20.3859 37.6288 20.1613 37.6288 19.8842C37.6288 19.6072 37.4042 19.3826 37.1271 19.3826C36.8501 19.3826 36.6255 19.6072 36.6255 19.8842C36.6255 20.1613 36.8501 20.3859 37.1271 20.3859Z" fill="#F6C35B"/>
<path d="M34.9714 22.5417C35.2484 22.5417 35.473 22.3171 35.473 22.04C35.473 21.7629 35.2484 21.5383 34.9714 21.5383C34.6943 21.5383 34.4697 21.7629 34.4697 22.04C34.4697 22.3171 34.6943 22.5417 34.9714 22.5417Z" fill="#F6C35B"/>
<path d="M32.8156 24.6974C33.0927 24.6974 33.3173 24.4728 33.3173 24.1958C33.3173 23.9187 33.0927 23.6941 32.8156 23.6941C32.5386 23.6941 32.314 23.9187 32.314 24.1958C32.314 24.4728 32.5386 24.6974 32.8156 24.6974Z" fill="#F6C35B"/>
<path d="M30.6604 26.8529C30.9374 26.8529 31.162 26.6283 31.162 26.3513C31.162 26.0742 30.9374 25.8496 30.6604 25.8496C30.3833 25.8496 30.1587 26.0742 30.1587 26.3513C30.1587 26.6283 30.3833 26.8529 30.6604 26.8529Z" fill="#F6C35B"/>
<path d="M28.5046 29.0084C28.7816 29.0084 29.0062 28.7838 29.0062 28.5068C29.0062 28.2297 28.7816 28.0051 28.5046 28.0051C28.2275 28.0051 28.0029 28.2297 28.0029 28.5068C28.0029 28.7838 28.2275 29.0084 28.5046 29.0084Z" fill="#F6C35B"/>
<path d="M43.0754 11.2177C43.3524 11.2177 43.577 10.9931 43.577 10.716C43.577 10.439 43.3524 10.2144 43.0754 10.2144C42.7983 10.2144 42.5737 10.439 42.5737 10.716C42.5737 10.9931 42.7983 11.2177 43.0754 11.2177Z" fill="#F6C35B"/>
<path d="M40.9201 13.3734C41.1972 13.3734 41.4218 13.1488 41.4218 12.8718C41.4218 12.5947 41.1972 12.3701 40.9201 12.3701C40.6431 12.3701 40.4185 12.5947 40.4185 12.8718C40.4185 13.1488 40.6431 13.3734 40.9201 13.3734Z" fill="#F6C35B"/>
<path d="M38.7644 15.529C39.0414 15.529 39.266 15.3044 39.266 15.0273C39.266 14.7502 39.0414 14.5256 38.7644 14.5256C38.4873 14.5256 38.2627 14.7502 38.2627 15.0273C38.2627 15.3044 38.4873 15.529 38.7644 15.529Z" fill="#F6C35B"/>
<path d="M36.6086 17.6847C36.8857 17.6847 37.1103 17.4601 37.1103 17.1831C37.1103 16.906 36.8857 16.6814 36.6086 16.6814C36.3315 16.6814 36.1069 16.906 36.1069 17.1831C36.1069 17.4601 36.3315 17.6847 36.6086 17.6847Z" fill="#F6C35B"/>
<path d="M34.4528 19.8402C34.7299 19.8402 34.9545 19.6156 34.9545 19.3386C34.9545 19.0615 34.7299 18.8369 34.4528 18.8369C34.1758 18.8369 33.9512 19.0615 33.9512 19.3386C33.9512 19.6156 34.1758 19.8402 34.4528 19.8402Z" fill="#F6C35B"/>
<path d="M32.2976 21.996C32.5746 21.996 32.7992 21.7714 32.7992 21.4943C32.7992 21.2173 32.5746 20.9927 32.2976 20.9927C32.0205 20.9927 31.7959 21.2173 31.7959 21.4943C31.7959 21.7714 32.0205 21.996 32.2976 21.996Z" fill="#F6C35B"/>
<path d="M30.1418 24.1515C30.4189 24.1515 30.6435 23.9269 30.6435 23.6499C30.6435 23.3728 30.4189 23.1482 30.1418 23.1482C29.8647 23.1482 29.6401 23.3728 29.6401 23.6499C29.6401 23.9269 29.8647 24.1515 30.1418 24.1515Z" fill="#F6C35B"/>
<path d="M27.986 26.3073C28.2631 26.3073 28.4877 26.0827 28.4877 25.8056C28.4877 25.5286 28.2631 25.304 27.986 25.304C27.709 25.304 27.4844 25.5286 27.4844 25.8056C27.4844 26.0827 27.709 26.3073 27.986 26.3073Z" fill="#F6C35B"/>
<path d="M42.2434 8.25698C42.5204 8.25698 42.745 8.03238 42.745 7.75532C42.745 7.47826 42.5204 7.25366 42.2434 7.25366C41.9663 7.25366 41.7417 7.47826 41.7417 7.75532C41.7417 8.03238 41.9663 8.25698 42.2434 8.25698Z" fill="#F6C35B"/>
<path d="M40.0876 10.4127C40.3647 10.4127 40.5893 10.1881 40.5893 9.91108C40.5893 9.63402 40.3647 9.40942 40.0876 9.40942C39.8105 9.40942 39.5859 9.63402 39.5859 9.91108C39.5859 10.1881 39.8105 10.4127 40.0876 10.4127Z" fill="#F6C35B"/>
<path d="M37.9318 12.5685C38.2089 12.5685 38.4335 12.3439 38.4335 12.0668C38.4335 11.7898 38.2089 11.5652 37.9318 11.5652C37.6548 11.5652 37.4302 11.7898 37.4302 12.0668C37.4302 12.3439 37.6548 12.5685 37.9318 12.5685Z" fill="#F6C35B"/>
<path d="M35.7766 14.724C36.0536 14.724 36.2782 14.4994 36.2782 14.2224C36.2782 13.9453 36.0536 13.7207 35.7766 13.7207C35.4995 13.7207 35.2749 13.9453 35.2749 14.2224C35.2749 14.4994 35.4995 14.724 35.7766 14.724Z" fill="#F6C35B"/>
<path d="M33.6208 16.8795C33.8979 16.8795 34.1225 16.6549 34.1225 16.3779C34.1225 16.1008 33.8979 15.8762 33.6208 15.8762C33.3437 15.8762 33.1191 16.1008 33.1191 16.3779C33.1191 16.6549 33.3437 16.8795 33.6208 16.8795Z" fill="#F6C35B"/>
<path d="M31.465 19.0353C31.7421 19.0353 31.9667 18.8107 31.9667 18.5336C31.9667 18.2566 31.7421 18.032 31.465 18.032C31.188 18.032 30.9634 18.2566 30.9634 18.5336C30.9634 18.8107 31.188 19.0353 31.465 19.0353Z" fill="#F6C35B"/>
<path d="M29.3098 21.1911C29.5868 21.1911 29.8114 20.9665 29.8114 20.6894C29.8114 20.4123 29.5868 20.1877 29.3098 20.1877C29.0327 20.1877 28.8081 20.4123 28.8081 20.6894C28.8081 20.9665 29.0327 21.1911 29.3098 21.1911Z" fill="#F6C35B"/>
<path d="M27.154 23.3466C27.4311 23.3466 27.6557 23.122 27.6557 22.8449C27.6557 22.5679 27.4311 22.3433 27.154 22.3433C26.8769 22.3433 26.6523 22.5679 26.6523 22.8449C26.6523 23.122 26.8769 23.3466 27.154 23.3466Z" fill="#F6C35B"/>
<path d="M24.9982 25.5021C25.2753 25.5021 25.4999 25.2775 25.4999 25.0004C25.4999 24.7234 25.2753 24.4988 24.9982 24.4988C24.7212 24.4988 24.4966 24.7234 24.4966 25.0004C24.4966 25.2775 24.7212 25.5021 24.9982 25.5021Z" fill="#F6C35B"/>
<path d="M39.569 7.71133C39.8461 7.71133 40.0707 7.48673 40.0707 7.20967C40.0707 6.93261 39.8461 6.70801 39.569 6.70801C39.292 6.70801 39.0674 6.93261 39.0674 7.20967C39.0674 7.48673 39.292 7.71133 39.569 7.71133Z" fill="#F6C35B"/>
<path d="M37.4138 9.86709C37.6908 9.86709 37.9154 9.64249 37.9154 9.36543C37.9154 9.08837 37.6908 8.86377 37.4138 8.86377C37.1367 8.86377 36.9121 9.08837 36.9121 9.36543C36.9121 9.64249 37.1367 9.86709 37.4138 9.86709Z" fill="#F6C35B"/>
<path d="M35.258 12.0226C35.5351 12.0226 35.7597 11.798 35.7597 11.5209C35.7597 11.2439 35.5351 11.0193 35.258 11.0193C34.9809 11.0193 34.7563 11.2439 34.7563 11.5209C34.7563 11.798 34.9809 12.0226 35.258 12.0226Z" fill="#F6C35B"/>
<path d="M33.1022 14.1784C33.3793 14.1784 33.6039 13.9538 33.6039 13.6767C33.6039 13.3996 33.3793 13.175 33.1022 13.175C32.8252 13.175 32.6006 13.3996 32.6006 13.6767C32.6006 13.9538 32.8252 14.1784 33.1022 14.1784Z" fill="#F6C35B"/>
<path d="M30.9465 16.3339C31.2235 16.3339 31.4481 16.1093 31.4481 15.8322C31.4481 15.5552 31.2235 15.3306 30.9465 15.3306C30.6694 15.3306 30.4448 15.5552 30.4448 15.8322C30.4448 16.1093 30.6694 16.3339 30.9465 16.3339Z" fill="#F6C35B"/>
<path d="M28.7912 18.4896C29.0683 18.4896 29.2929 18.265 29.2929 17.988C29.2929 17.7109 29.0683 17.4863 28.7912 17.4863C28.5142 17.4863 28.2896 17.7109 28.2896 17.988C28.2896 18.265 28.5142 18.4896 28.7912 18.4896Z" fill="#F6C35B"/>
<path d="M26.6355 20.6452C26.9125 20.6452 27.1371 20.4206 27.1371 20.1435C27.1371 19.8664 26.9125 19.6418 26.6355 19.6418C26.3584 19.6418 26.1338 19.8664 26.1338 20.1435C26.1338 20.4206 26.3584 20.6452 26.6355 20.6452Z" fill="#F6C35B"/>
<path d="M24.4797 22.8009C24.7567 22.8009 24.9813 22.5763 24.9813 22.2993C24.9813 22.0222 24.7567 21.7976 24.4797 21.7976C24.2026 21.7976 23.978 22.0222 23.978 22.2993C23.978 22.5763 24.2026 22.8009 24.4797 22.8009Z" fill="#F6C35B"/>
<path d="M36.5812 6.9064C36.8583 6.9064 37.0829 6.6818 37.0829 6.40474C37.0829 6.12768 36.8583 5.90308 36.5812 5.90308C36.3042 5.90308 36.0796 6.12768 36.0796 6.40474C36.0796 6.6818 36.3042 6.9064 36.5812 6.9064Z" fill="#F6C35B"/>
<path d="M34.426 9.06216C34.703 9.06216 34.9276 8.83756 34.9276 8.5605C34.9276 8.28344 34.703 8.05884 34.426 8.05884C34.1489 8.05884 33.9243 8.28344 33.9243 8.5605C33.9243 8.83756 34.1489 9.06216 34.426 9.06216Z" fill="#F6C35B"/>
<path d="M32.2702 11.2177C32.5473 11.2177 32.7719 10.9931 32.7719 10.716C32.7719 10.439 32.5473 10.2144 32.2702 10.2144C31.9932 10.2144 31.7686 10.439 31.7686 10.716C31.7686 10.9931 31.9932 11.2177 32.2702 11.2177Z" fill="#F6C35B"/>
<path d="M30.1145 13.3734C30.3915 13.3734 30.6161 13.1488 30.6161 12.8718C30.6161 12.5947 30.3915 12.3701 30.1145 12.3701C29.8374 12.3701 29.6128 12.5947 29.6128 12.8718C29.6128 13.1488 29.8374 13.3734 30.1145 13.3734Z" fill="#F6C35B"/>
<path d="M27.9587 15.529C28.2358 15.529 28.4604 15.3044 28.4604 15.0273C28.4604 14.7502 28.2358 14.5256 27.9587 14.5256C27.6816 14.5256 27.457 14.7502 27.457 15.0273C27.457 15.3044 27.6816 15.529 27.9587 15.529Z" fill="#F6C35B"/>
<path d="M25.8034 17.6847C26.0805 17.6847 26.3051 17.4601 26.3051 17.1831C26.3051 16.906 26.0805 16.6814 25.8034 16.6814C25.5264 16.6814 25.3018 16.906 25.3018 17.1831C25.3018 17.4601 25.5264 17.6847 25.8034 17.6847Z" fill="#F6C35B"/>
<path d="M23.6477 19.8402C23.9247 19.8402 24.1493 19.6156 24.1493 19.3386C24.1493 19.0615 23.9247 18.8369 23.6477 18.8369C23.3706 18.8369 23.146 19.0615 23.146 19.3386C23.146 19.6156 23.3706 19.8402 23.6477 19.8402Z" fill="#F6C35B"/>
<path d="M21.4919 21.996C21.769 21.996 21.9936 21.7714 21.9936 21.4943C21.9936 21.2173 21.769 20.9927 21.4919 20.9927C21.2148 20.9927 20.9902 21.2173 20.9902 21.4943C20.9902 21.7714 21.2148 21.996 21.4919 21.996Z" fill="#F6C35B"/>
<path d="M13.4152 44.098C13.6923 44.098 13.9169 43.8734 13.9169 43.5964C13.9169 43.3193 13.6923 43.0947 13.4152 43.0947C13.1382 43.0947 12.9136 43.3193 12.9136 43.5964C12.9136 43.8734 13.1382 44.098 13.4152 44.098Z" fill="#F6C35B"/>
<path d="M15.571 41.9423C15.8481 41.9423 16.0727 41.7177 16.0727 41.4406C16.0727 41.1636 15.8481 40.939 15.571 40.939C15.2939 40.939 15.0693 41.1636 15.0693 41.4406C15.0693 41.7177 15.2939 41.9423 15.571 41.9423Z" fill="#F6C35B"/>
<path d="M17.7263 39.7868C18.0033 39.7868 18.2279 39.5622 18.2279 39.2851C18.2279 39.008 18.0033 38.7834 17.7263 38.7834C17.4492 38.7834 17.2246 39.008 17.2246 39.2851C17.2246 39.5622 17.4492 39.7868 17.7263 39.7868Z" fill="#F6C35B"/>
<path d="M19.882 37.6312C20.1591 37.6312 20.3837 37.4066 20.3837 37.1296C20.3837 36.8525 20.1591 36.6279 19.882 36.6279C19.605 36.6279 19.3804 36.8525 19.3804 37.1296C19.3804 37.4066 19.605 37.6312 19.882 37.6312Z" fill="#F6C35B"/>
<path d="M22.0378 35.4755C22.3149 35.4755 22.5395 35.2509 22.5395 34.9738C22.5395 34.6968 22.3149 34.4722 22.0378 34.4722C21.7607 34.4722 21.5361 34.6968 21.5361 34.9738C21.5361 35.2509 21.7607 35.4755 22.0378 35.4755Z" fill="#F6C35B"/>
<path d="M24.1936 33.3197C24.4706 33.3197 24.6952 33.0951 24.6952 32.8181C24.6952 32.541 24.4706 32.3164 24.1936 32.3164C23.9165 32.3164 23.6919 32.541 23.6919 32.8181C23.6919 33.0951 23.9165 33.3197 24.1936 33.3197Z" fill="#F6C35B"/>
<path d="M26.3488 31.1642C26.6259 31.1642 26.8505 30.9396 26.8505 30.6625C26.8505 30.3855 26.6259 30.1609 26.3488 30.1609C26.0718 30.1609 25.8472 30.3855 25.8472 30.6625C25.8472 30.9396 26.0718 31.1642 26.3488 31.1642Z" fill="#F6C35B"/>
<path d="M28.5046 29.0087C28.7816 29.0087 29.0062 28.7841 29.0062 28.507C29.0062 28.23 28.7816 28.0054 28.5046 28.0054C28.2275 28.0054 28.0029 28.23 28.0029 28.507C28.0029 28.7841 28.2275 29.0087 28.5046 29.0087Z" fill="#F6C35B"/>
<path d="M10.7141 43.5795C10.9911 43.5795 11.2157 43.3549 11.2157 43.0778C11.2157 42.8008 10.9911 42.5762 10.7141 42.5762C10.437 42.5762 10.2124 42.8008 10.2124 43.0778C10.2124 43.3549 10.437 43.5795 10.7141 43.5795Z" fill="#F6C35B"/>
<path d="M12.8693 41.424C13.1464 41.424 13.371 41.1994 13.371 40.9223C13.371 40.6453 13.1464 40.4207 12.8693 40.4207C12.5923 40.4207 12.3677 40.6453 12.3677 40.9223C12.3677 41.1994 12.5923 41.424 12.8693 41.424Z" fill="#F6C35B"/>
<path d="M15.0251 39.2685C15.3022 39.2685 15.5268 39.0439 15.5268 38.7668C15.5268 38.4897 15.3022 38.2651 15.0251 38.2651C14.748 38.2651 14.5234 38.4897 14.5234 38.7668C14.5234 39.0439 14.748 39.2685 15.0251 39.2685Z" fill="#F6C35B"/>
<path d="M17.1809 37.1127C17.4579 37.1127 17.6825 36.8881 17.6825 36.611C17.6825 36.334 17.4579 36.1094 17.1809 36.1094C16.9038 36.1094 16.6792 36.334 16.6792 36.611C16.6792 36.8881 16.9038 37.1127 17.1809 37.1127Z" fill="#F6C35B"/>
<path d="M19.3366 34.9569C19.6137 34.9569 19.8383 34.7323 19.8383 34.4553C19.8383 34.1782 19.6137 33.9536 19.3366 33.9536C19.0596 33.9536 18.835 34.1782 18.835 34.4553C18.835 34.7323 19.0596 34.9569 19.3366 34.9569Z" fill="#F6C35B"/>
<path d="M21.4919 32.8014C21.769 32.8014 21.9936 32.5768 21.9936 32.2998C21.9936 32.0227 21.769 31.7981 21.4919 31.7981C21.2148 31.7981 20.9902 32.0227 20.9902 32.2998C20.9902 32.5768 21.2148 32.8014 21.4919 32.8014Z" fill="#F6C35B"/>
<path d="M23.6477 30.6459C23.9247 30.6459 24.1493 30.4213 24.1493 30.1442C24.1493 29.8672 23.9247 29.6426 23.6477 29.6426C23.3706 29.6426 23.146 29.8672 23.146 30.1442C23.146 30.4213 23.3706 30.6459 23.6477 30.6459Z" fill="#F6C35B"/>
<path d="M25.8034 28.4901C26.0805 28.4901 26.3051 28.2655 26.3051 27.9885C26.3051 27.7114 26.0805 27.4868 25.8034 27.4868C25.5264 27.4868 25.3018 27.7114 25.3018 27.9885C25.3018 28.2655 25.5264 28.4901 25.8034 28.4901Z" fill="#F6C35B"/>
<path d="M7.75313 42.7475C8.03018 42.7475 8.25479 42.5229 8.25479 42.2458C8.25479 41.9687 8.03018 41.7441 7.75313 41.7441C7.47607 41.7441 7.25146 41.9687 7.25146 42.2458C7.25146 42.5229 7.47607 42.7475 7.75313 42.7475Z" fill="#F6C35B"/>
<path d="M9.90889 40.5917C10.1859 40.5917 10.4105 40.3671 10.4105 40.09C10.4105 39.813 10.1859 39.5884 9.90889 39.5884C9.63183 39.5884 9.40723 39.813 9.40723 40.09C9.40723 40.3671 9.63183 40.5917 9.90889 40.5917Z" fill="#F6C35B"/>
<path d="M12.0646 38.4359C12.3417 38.4359 12.5663 38.2113 12.5663 37.9343C12.5663 37.6572 12.3417 37.4326 12.0646 37.4326C11.7876 37.4326 11.563 37.6572 11.563 37.9343C11.563 38.2113 11.7876 38.4359 12.0646 38.4359Z" fill="#F6C35B"/>
<path d="M14.2204 36.2804C14.4975 36.2804 14.7221 36.0558 14.7221 35.7788C14.7221 35.5017 14.4975 35.2771 14.2204 35.2771C13.9434 35.2771 13.7188 35.5017 13.7188 35.7788C13.7188 36.0558 13.9434 36.2804 14.2204 36.2804Z" fill="#F6C35B"/>
<path d="M16.3757 34.1249C16.6527 34.1249 16.8773 33.9003 16.8773 33.6232C16.8773 33.3462 16.6527 33.1216 16.3757 33.1216C16.0986 33.1216 15.874 33.3462 15.874 33.6232C15.874 33.9003 16.0986 34.1249 16.3757 34.1249Z" fill="#F6C35B"/>
<path d="M18.5314 31.9691C18.8085 31.9691 19.0331 31.7445 19.0331 31.4675C19.0331 31.1904 18.8085 30.9658 18.5314 30.9658C18.2544 30.9658 18.0298 31.1904 18.0298 31.4675C18.0298 31.7445 18.2544 31.9691 18.5314 31.9691Z" fill="#F6C35B"/>
<path d="M20.6872 29.8136C20.9643 29.8136 21.1889 29.589 21.1889 29.312C21.1889 29.0349 20.9643 28.8103 20.6872 28.8103C20.4101 28.8103 20.1855 29.0349 20.1855 29.312C20.1855 29.589 20.4101 29.8136 20.6872 29.8136Z" fill="#F6C35B"/>
<path d="M22.8425 27.6579C23.1195 27.6579 23.3441 27.4333 23.3441 27.1562C23.3441 26.8791 23.1195 26.6545 22.8425 26.6545C22.5654 26.6545 22.3408 26.8791 22.3408 27.1562C22.3408 27.4333 22.5654 27.6579 22.8425 27.6579Z" fill="#F6C35B"/>
<path d="M24.9982 25.5023C25.2753 25.5023 25.4999 25.2777 25.4999 25.0007C25.4999 24.7236 25.2753 24.499 24.9982 24.499C24.7212 24.499 24.4966 24.7236 24.4966 25.0007C24.4966 25.2777 24.7212 25.5023 24.9982 25.5023Z" fill="#F6C35B"/>
<path d="M7.20771 40.0731C7.48477 40.0731 7.70938 39.8485 7.70938 39.5715C7.70938 39.2944 7.48477 39.0698 7.20771 39.0698C6.93066 39.0698 6.70605 39.2944 6.70605 39.5715C6.70605 39.8485 6.93066 40.0731 7.20771 40.0731Z" fill="#F6C35B"/>
<path d="M9.36299 37.9176C9.64005 37.9176 9.86465 37.693 9.86465 37.416C9.86465 37.1389 9.64005 36.9143 9.36299 36.9143C9.08593 36.9143 8.86133 37.1389 8.86133 37.416C8.86133 37.693 9.08593 37.9176 9.36299 37.9176Z" fill="#F6C35B"/>
<path d="M11.5188 35.7621C11.7958 35.7621 12.0204 35.5375 12.0204 35.2605C12.0204 34.9834 11.7958 34.7588 11.5188 34.7588C11.2417 34.7588 11.0171 34.9834 11.0171 35.2605C11.0171 35.5375 11.2417 35.7621 11.5188 35.7621Z" fill="#F6C35B"/>
<path d="M13.6745 33.6063C13.9516 33.6063 14.1762 33.3817 14.1762 33.1047C14.1762 32.8276 13.9516 32.603 13.6745 32.603C13.3975 32.603 13.1729 32.8276 13.1729 33.1047C13.1729 33.3817 13.3975 33.6063 13.6745 33.6063Z" fill="#F6C35B"/>
<path d="M15.8303 31.4506C16.1073 31.4506 16.3319 31.226 16.3319 30.9489C16.3319 30.6719 16.1073 30.4473 15.8303 30.4473C15.5532 30.4473 15.3286 30.6719 15.3286 30.9489C15.3286 31.226 15.5532 31.4506 15.8303 31.4506Z" fill="#F6C35B"/>
<path d="M17.9855 29.2951C18.2626 29.2951 18.4872 29.0705 18.4872 28.7934C18.4872 28.5163 18.2626 28.2917 17.9855 28.2917C17.7085 28.2917 17.4839 28.5163 17.4839 28.7934C17.4839 29.0705 17.7085 29.2951 17.9855 29.2951Z" fill="#F6C35B"/>
<path d="M20.1413 27.1395C20.4184 27.1395 20.643 26.9149 20.643 26.6379C20.643 26.3608 20.4184 26.1362 20.1413 26.1362C19.8643 26.1362 19.6396 26.3608 19.6396 26.6379C19.6396 26.9149 19.8643 27.1395 20.1413 27.1395Z" fill="#F6C35B"/>
<path d="M22.2971 24.9838C22.5741 24.9838 22.7987 24.7592 22.7987 24.4821C22.7987 24.2051 22.5741 23.9805 22.2971 23.9805C22.02 23.9805 21.7954 24.2051 21.7954 24.4821C21.7954 24.7592 22.02 24.9838 22.2971 24.9838Z" fill="#F6C35B"/>
<path d="M6.40254 37.0854C6.6796 37.0854 6.9042 36.8608 6.9042 36.5837C6.9042 36.3066 6.6796 36.082 6.40254 36.082C6.12548 36.082 5.90088 36.3066 5.90088 36.5837C5.90088 36.8608 6.12548 37.0854 6.40254 37.0854Z" fill="#F6C35B"/>
<path d="M8.5583 34.9298C8.83536 34.9298 9.05996 34.7052 9.05996 34.4282C9.05996 34.1511 8.83536 33.9265 8.5583 33.9265C8.28124 33.9265 8.05664 34.1511 8.05664 34.4282C8.05664 34.7052 8.28124 34.9298 8.5583 34.9298Z" fill="#F6C35B"/>
<path d="M10.7141 32.7741C10.9911 32.7741 11.2157 32.5495 11.2157 32.2724C11.2157 31.9954 10.9911 31.7708 10.7141 31.7708C10.437 31.7708 10.2124 31.9954 10.2124 32.2724C10.2124 32.5495 10.437 32.7741 10.7141 32.7741Z" fill="#F6C35B"/>
<path d="M12.8693 30.6186C13.1464 30.6186 13.371 30.394 13.371 30.1169C13.371 29.8398 13.1464 29.6152 12.8693 29.6152C12.5923 29.6152 12.3677 29.8398 12.3677 30.1169C12.3677 30.394 12.5923 30.6186 12.8693 30.6186Z" fill="#F6C35B"/>
<path d="M15.0251 28.4628C15.3022 28.4628 15.5268 28.2382 15.5268 27.9611C15.5268 27.6841 15.3022 27.4595 15.0251 27.4595C14.748 27.4595 14.5234 27.6841 14.5234 27.9611C14.5234 28.2382 14.748 28.4628 15.0251 28.4628Z" fill="#F6C35B"/>
<path d="M17.1809 26.3073C17.4579 26.3073 17.6825 26.0827 17.6825 25.8056C17.6825 25.5286 17.4579 25.304 17.1809 25.304C16.9038 25.304 16.6792 25.5286 16.6792 25.8056C16.6792 26.0827 16.9038 26.3073 17.1809 26.3073Z" fill="#F6C35B"/>
<path d="M19.3366 24.1515C19.6137 24.1515 19.8383 23.9269 19.8383 23.6499C19.8383 23.3728 19.6137 23.1482 19.3366 23.1482C19.0596 23.1482 18.835 23.3728 18.835 23.6499C18.835 23.9269 19.0596 24.1515 19.3366 24.1515Z" fill="#F6C35B"/>
<path d="M21.4919 21.996C21.769 21.996 21.9936 21.7714 21.9936 21.4943C21.9936 21.2173 21.769 20.9927 21.4919 20.9927C21.2148 20.9927 20.9902 21.2173 20.9902 21.4943C20.9902 21.7714 21.2148 21.996 21.4919 21.996Z" fill="#F6C35B"/>
<g opacity="0.5">
<path d="M15.2125 27.5719L22.4267 34.7861C23.102 35.4613 24.1967 35.4613 24.8719 34.7861L34.7876 24.8705C35.4627 24.1953 35.4627 23.1004 34.7876 22.4252L27.5733 15.211C26.8981 14.5358 25.8033 14.5358 25.1281 15.211L15.2125 25.1267C14.5373 25.8019 14.5373 26.8965 15.2125 27.5719Z" fill="#F7F3D2"/>
<path d="M14.5645 27.7538C14.5929 27.7892 14.6283 27.8246 14.6566 27.853L18.728 31.9244L21.5795 34.7687L22.154 35.3433C22.1823 35.3717 22.2179 35.4001 22.2462 35.4285C22.3242 35.4993 22.4093 35.5632 22.4873 35.6127L22.5725 35.6624C23.3952 36.152 24.4663 36.0242 25.1472 35.3433L35.3471 25.1435C36.0422 24.4412 36.1557 23.3276 35.6166 22.4978C35.5599 22.4055 35.496 22.3205 35.4251 22.2423C35.3967 22.2139 35.3684 22.1785 35.3399 22.15L34.7725 21.5828L31.9211 18.7313L28.4171 15.2274L27.8496 14.6599C27.8213 14.6315 27.7858 14.596 27.7503 14.5748C26.9204 13.8371 25.6507 13.8655 24.8563 14.6599L14.6566 24.8526C14.2452 25.264 14.0396 25.8102 14.0396 26.3493C14.0396 26.8529 14.2169 27.3565 14.5645 27.7538ZM27.0198 15.4898L34.5102 22.9801C34.879 23.349 34.879 23.9518 34.5102 24.3207L24.3174 34.5135C23.9557 34.8752 23.3456 34.8752 22.9839 34.5135L20.4942 32.0167L17.9833 29.5128L17.6286 29.1511L15.4865 27.0161C15.3092 26.8387 15.21 26.6046 15.21 26.3565C15.21 26.101 15.3093 25.8598 15.4937 25.6825L25.6935 15.4827C25.8637 15.3053 26.1049 15.2059 26.3531 15.2059C26.6085 15.2059 26.8426 15.3053 27.0198 15.4898Z" fill="#F5A631"/>
</g>
<path opacity="0.2" d="M43.5914 1.9332C43.2935 1.74873 42.9885 1.57852 42.6764 1.42256C41.1159 0.620996 39.4277 0.152832 37.7184 0.00390625L29.6442 8.07803L23.1257 14.6036L9.71973 27.9955L3.20117 34.5211L0 37.7151C0.163184 39.68 0.758984 41.6093 1.79453 43.3543C1.84424 43.4464 1.89385 43.5316 1.95059 43.6237C2.48965 44.5032 3.14219 45.3402 3.90117 46.0992L46.0952 3.90518C45.3221 3.13193 44.4852 2.47236 43.5914 1.9332Z" fill="white"/>
</g>
<defs>
<clipPath id="clip0_148_935">
<rect width="50" height="50" fill="white"/>
</clipPath>
</defs>
</svg>
