<svg width="50" height="46" viewBox="0 0 50 46" fill="none" xmlns="http://www.w3.org/2000/svg">
<g clip-path="url(#clip0_106_1258)">
<path fill-rule="evenodd" clip-rule="evenodd" d="M43.3137 29.7301C42.9027 38.7603 34.8186 45.9659 24.9021 45.9659C14.7227 45.9659 6.47072 38.1189 6.47072 29.0091C6.47072 27.7914 6.44699 25.3579 8.4315 21.2522C9.61915 18.7951 10.364 17.2515 10.7844 15.8404C11.0154 15.0649 11.4646 13.8329 12.7452 15.8404C13.5003 17.0242 13.5295 18.7267 13.5295 18.7267C13.5295 18.7267 16.339 16.7433 18.2354 12.9542C21.0156 7.39935 18.7974 4.07887 18.0393 1.76985C17.777 0.971077 17.6123 -0.464484 19.4119 0.146324C21.2456 0.768857 26.0935 3.8909 28.6276 7.18162C32.2442 11.8781 33.5295 16.3816 33.5295 16.3816C33.5295 16.3816 34.6876 15.0593 35.0982 13.6757C35.5619 12.1134 35.5688 10.566 37.0588 12.2328C38.4758 13.8179 40.5803 16.7967 41.7648 19.6287C43.9156 24.7715 43.3137 29.7301 43.3137 29.7301Z" fill="url(#paint0_linear_106_1258)"/>
<path fill-rule="evenodd" clip-rule="evenodd" d="M24.9023 45.9661C17.8633 45.9661 12.1572 40.7165 12.1572 34.2406C12.1572 30.3331 13.8688 27.9608 17.431 24.7437C19.7117 22.6838 21.8464 20.1538 22.7537 18.431C22.9323 18.0919 23.3388 16.3246 24.906 18.3939C25.7282 19.4791 27.017 21.4091 27.8435 23.0563C29.2682 25.8962 29.6082 28.6484 29.6082 28.6484C29.6082 28.6484 31.0045 27.8915 31.9611 25.9426C32.2696 25.3144 32.8931 22.9365 34.6362 25.3141C35.9153 27.0588 37.6723 30.1958 37.6474 34.2406C37.6474 40.7165 31.9411 45.9661 24.9023 45.9661Z" fill="#FC9502"/>
<path fill-rule="evenodd" clip-rule="evenodd" d="M25.098 33.1582C26.9118 33.1582 26.9118 36.2481 29.2157 40.3739C30.7498 43.1211 28.4551 45.966 25.098 45.966C21.741 45.966 20 43.4624 20 40.3739C20 37.2856 23.2843 33.1582 25.098 33.1582Z" fill="#FCE202"/>
</g>
<defs>
<linearGradient id="paint0_linear_106_1258" x1="24.9297" y1="45.9998" x2="24.9297" y2="0.0337585" gradientUnits="userSpaceOnUse">
<stop stop-color="#FF4C0D"/>
<stop offset="1" stop-color="#FC9502"/>
</linearGradient>
<clipPath id="clip0_106_1258">
<rect width="50" height="46" fill="white"/>
</clipPath>
</defs>
</svg>
